<svg width="211" height="32" viewBox="0 0 211 32" fill="none" xmlns="http://www.w3.org/2000/svg">
<path d="M0.219609 4.48H15.1596V8.8H6.69961V12.544H13.8276V16.432H6.69961V20.608H15.1236V25H0.219609V4.48ZM17.6914 3.4L23.8474 3.148V25H17.6914V3.4ZM44.0358 8.44L39.7158 22.3C38.8758 24.964 38.1198 26.896 37.4478 28.096C36.7758 29.32 36.1038 30.172 35.4318 30.652C35.0478 30.916 34.4358 31.12 33.5958 31.264C32.7798 31.408 31.8918 31.48 30.9318 31.48C29.4918 31.48 28.3398 31.348 27.4758 31.084C27.4518 30.508 27.4758 29.8 27.5478 28.96C27.6198 28.144 27.7158 27.448 27.8358 26.872C28.8438 26.92 29.8278 26.944 30.7878 26.944C31.5078 26.944 32.0478 26.932 32.4078 26.908C32.7678 26.212 33.1038 25.48 33.4158 24.712L30.9318 24.568L25.3878 8.44H31.9038L34.7838 20.032L34.8198 20.716H34.9278L37.5198 8.44H44.0358ZM58.8543 19.384C58.8543 21.52 58.1703 23.056 56.8023 23.992C55.4583 24.928 53.5383 25.396 51.0423 25.396C49.2903 25.396 47.2743 25.144 44.9943 24.64C45.0423 24.16 45.1503 23.476 45.3183 22.588C45.5103 21.676 45.6663 20.98 45.7863 20.5C46.6503 20.644 47.6103 20.764 48.6663 20.86C49.7223 20.932 50.6223 20.968 51.3663 20.968C52.0143 20.968 52.4103 20.932 52.5543 20.86C52.5783 20.836 52.6023 20.776 52.6263 20.68C52.6743 20.56 52.6983 20.44 52.6983 20.32C52.6983 19.84 52.3983 19.516 51.7983 19.348C51.6063 19.3 50.8743 19.096 49.6023 18.736C48.3303 18.376 47.2863 17.728 46.4703 16.792C45.6783 15.832 45.2823 14.644 45.2823 13.228C45.2823 12.484 45.4503 11.656 45.7863 10.744C46.1223 9.832 46.4823 9.256 46.8663 9.016C47.1543 8.824 47.8503 8.632 48.9543 8.44C50.0583 8.224 51.0783 8.116 52.0143 8.116C54.0063 8.116 56.0103 8.26 58.0263 8.548C58.0263 8.98 57.9663 9.712 57.8463 10.744C57.7263 11.752 57.6183 12.388 57.5223 12.652C55.4823 12.388 53.8383 12.256 52.5903 12.256C51.9423 12.256 51.5223 12.292 51.3303 12.364C51.2823 12.388 51.2343 12.46 51.1863 12.58C51.1383 12.676 51.1143 12.808 51.1143 12.976C51.1143 13.312 51.2223 13.552 51.4383 13.696C51.6543 13.864 52.2183 14.068 53.1303 14.308C54.2103 14.62 55.1343 14.944 55.9023 15.28C56.6943 15.616 57.3783 16.12 57.9543 16.792C58.5543 17.464 58.8543 18.328 58.8543 19.384ZM64.0999 6.388C63.2839 6.388 62.5759 6.112 61.9759 5.56C61.3999 5.008 61.1119 4.348 61.1119 3.58C61.1119 2.812 61.3999 2.152 61.9759 1.6C62.5759 1.048 63.2839 0.771999 64.0999 0.771999C64.9159 0.771999 65.6119 1.048 66.1879 1.6C66.7639 2.152 67.0519 2.812 67.0519 3.58C67.0519 4.348 66.7639 5.008 66.1879 5.56C65.6119 6.112 64.9159 6.388 64.0999 6.388ZM61.0039 8.44H67.1599V25H61.0039V8.44ZM80.0763 25L79.5003 22.732C78.3963 24.532 76.8603 25.432 74.8923 25.432C73.2843 25.432 71.9643 24.988 70.9323 24.1C69.9243 23.188 69.4203 21.916 69.4203 20.284C69.4203 19.276 69.7083 18.4 70.2843 17.656C70.8843 16.888 71.7003 16.348 72.7323 16.036C74.0763 15.652 76.1523 15.436 78.9603 15.388C78.9603 13.804 78.8883 12.964 78.7443 12.868C78.6243 12.772 78.2403 12.724 77.5923 12.724C77.1843 12.724 76.6203 12.748 75.9003 12.796C74.7483 12.844 73.1883 12.976 71.2203 13.192C71.0283 11.896 70.8843 10.504 70.7883 9.016C72.0603 8.752 73.3923 8.536 74.7843 8.368C76.1763 8.176 77.4243 8.08 78.5283 8.08C80.4483 8.08 81.8883 8.404 82.8483 9.052C83.8083 9.676 84.4323 10.504 84.7203 11.536C85.0083 12.568 85.1403 13.876 85.1163 15.46L85.0803 20.752L85.1883 25H80.0763ZM76.9803 21.4C77.6043 21.4 78.2643 21.28 78.9603 21.04V18.376H78.6723C76.8963 18.376 75.9123 18.472 75.7203 18.664C75.6003 18.784 75.5043 18.964 75.4323 19.204C75.3843 19.444 75.3603 19.672 75.3603 19.888C75.3603 20.464 75.4923 20.86 75.7563 21.076C76.0203 21.292 76.4283 21.4 76.9803 21.4ZM103.916 9.484C104.132 9.748 104.288 10.408 104.384 11.464C104.504 12.52 104.564 14.128 104.564 16.288V25H98.4079V16.36V14.884C98.4079 14.116 98.3479 13.636 98.2279 13.444C98.0359 13.204 97.5919 13.084 96.8959 13.084C96.5599 13.084 96.3079 13.096 96.1399 13.12C95.4679 13.144 94.7719 13.3 94.0519 13.588V25H87.8959V8.44H92.8999L93.5839 11.212C95.3119 9.124 97.3759 8.08 99.7759 8.08C100.64 8.08 101.444 8.2 102.188 8.44C102.956 8.68 103.532 9.028 103.916 9.484ZM112.966 4.48H127.906V8.8H119.446V12.544H126.574V16.432H119.446V20.608H127.87V25H112.966V4.48ZM143.722 19.384C143.722 21.52 143.038 23.056 141.67 23.992C140.326 24.928 138.406 25.396 135.91 25.396C134.158 25.396 132.142 25.144 129.862 24.64C129.91 24.16 130.018 23.476 130.186 22.588C130.378 21.676 130.534 20.98 130.654 20.5C131.518 20.644 132.478 20.764 133.534 20.86C134.59 20.932 135.49 20.968 136.234 20.968C136.882 20.968 137.278 20.932 137.422 20.86C137.446 20.836 137.47 20.776 137.494 20.68C137.542 20.56 137.566 20.44 137.566 20.32C137.566 19.84 137.266 19.516 136.666 19.348C136.474 19.3 135.742 19.096 134.47 18.736C133.198 18.376 132.154 17.728 131.338 16.792C130.546 15.832 130.15 14.644 130.15 13.228C130.15 12.484 130.318 11.656 130.654 10.744C130.99 9.832 131.35 9.256 131.734 9.016C132.022 8.824 132.718 8.632 133.822 8.44C134.926 8.224 135.946 8.116 136.882 8.116C138.874 8.116 140.878 8.26 142.894 8.548C142.894 8.98 142.834 9.712 142.714 10.744C142.594 11.752 142.486 12.388 142.39 12.652C140.35 12.388 138.706 12.256 137.458 12.256C136.81 12.256 136.39 12.292 136.198 12.364C136.15 12.388 136.102 12.46 136.054 12.58C136.006 12.676 135.982 12.808 135.982 12.976C135.982 13.312 136.09 13.552 136.306 13.696C136.522 13.864 137.086 14.068 137.998 14.308C139.078 14.62 140.002 14.944 140.77 15.28C141.562 15.616 142.246 16.12 142.822 16.792C143.422 17.464 143.722 18.328 143.722 19.384ZM159.155 19.384C159.155 21.52 158.471 23.056 157.103 23.992C155.759 24.928 153.839 25.396 151.343 25.396C149.591 25.396 147.575 25.144 145.295 24.64C145.343 24.16 145.451 23.476 145.619 22.588C145.811 21.676 145.967 20.98 146.087 20.5C146.951 20.644 147.911 20.764 148.967 20.86C150.023 20.932 150.923 20.968 151.667 20.968C152.315 20.968 152.711 20.932 152.855 20.86C152.879 20.836 152.903 20.776 152.927 20.68C152.975 20.56 152.999 20.44 152.999 20.32C152.999 19.84 152.699 19.516 152.099 19.348C151.907 19.3 151.175 19.096 149.903 18.736C148.631 18.376 147.587 17.728 146.771 16.792C145.979 15.832 145.583 14.644 145.583 13.228C145.583 12.484 145.751 11.656 146.087 10.744C146.423 9.832 146.783 9.256 147.167 9.016C147.455 8.824 148.151 8.632 149.255 8.44C150.359 8.224 151.379 8.116 152.315 8.116C154.307 8.116 156.311 8.26 158.327 8.548C158.327 8.98 158.267 9.712 158.147 10.744C158.027 11.752 157.919 12.388 157.823 12.652C155.783 12.388 154.139 12.256 152.891 12.256C152.243 12.256 151.823 12.292 151.631 12.364C151.583 12.388 151.535 12.46 151.487 12.58C151.439 12.676 151.415 12.808 151.415 12.976C151.415 13.312 151.523 13.552 151.739 13.696C151.955 13.864 152.519 14.068 153.431 14.308C154.511 14.62 155.435 14.944 156.203 15.28C156.995 15.616 157.679 16.12 158.255 16.792C158.855 17.464 159.155 18.328 159.155 19.384ZM171.061 25L170.485 22.732C169.381 24.532 167.845 25.432 165.877 25.432C164.269 25.432 162.949 24.988 161.917 24.1C160.909 23.188 160.405 21.916 160.405 20.284C160.405 19.276 160.693 18.4 161.269 17.656C161.869 16.888 162.685 16.348 163.717 16.036C165.061 15.652 167.137 15.436 169.945 15.388C169.945 13.804 169.873 12.964 169.729 12.868C169.609 12.772 169.225 12.724 168.577 12.724C168.169 12.724 167.605 12.748 166.885 12.796C165.733 12.844 164.173 12.976 162.205 13.192C162.013 11.896 161.869 10.504 161.773 9.016C163.045 8.752 164.377 8.536 165.769 8.368C167.161 8.176 168.409 8.08 169.513 8.08C171.433 8.08 172.873 8.404 173.833 9.052C174.793 9.676 175.417 10.504 175.705 11.536C175.993 12.568 176.125 13.876 176.101 15.46L176.065 20.752L176.173 25H171.061ZM167.965 21.4C168.589 21.4 169.249 21.28 169.945 21.04V18.376H169.657C167.881 18.376 166.897 18.472 166.705 18.664C166.585 18.784 166.489 18.964 166.417 19.204C166.369 19.444 166.345 19.672 166.345 19.888C166.345 20.464 166.477 20.86 166.741 21.076C167.005 21.292 167.413 21.4 167.965 21.4ZM196.016 8.44L191.696 22.3C190.856 24.964 190.1 26.896 189.428 28.096C188.756 29.32 188.084 30.172 187.412 30.652C187.028 30.916 186.416 31.12 185.576 31.264C184.76 31.408 183.872 31.48 182.912 31.48C181.472 31.48 180.32 31.348 179.456 31.084C179.432 30.508 179.456 29.8 179.528 28.96C179.6 28.144 179.696 27.448 179.816 26.872C180.824 26.92 181.808 26.944 182.768 26.944C183.488 26.944 184.028 26.932 184.388 26.908C184.748 26.212 185.084 25.48 185.396 24.712L182.912 24.568L177.368 8.44H183.884L186.764 20.032L186.8 20.716H186.908L189.5 8.44H196.016ZM210.835 19.384C210.835 21.52 210.151 23.056 208.783 23.992C207.439 24.928 205.519 25.396 203.023 25.396C201.271 25.396 199.255 25.144 196.975 24.64C197.023 24.16 197.131 23.476 197.299 22.588C197.491 21.676 197.647 20.98 197.767 20.5C198.631 20.644 199.591 20.764 200.647 20.86C201.703 20.932 202.603 20.968 203.347 20.968C203.995 20.968 204.391 20.932 204.535 20.86C204.559 20.836 204.583 20.776 204.607 20.68C204.655 20.56 204.679 20.44 204.679 20.32C204.679 19.84 204.379 19.516 203.779 19.348C203.587 19.3 202.855 19.096 201.583 18.736C200.311 18.376 199.267 17.728 198.451 16.792C197.659 15.832 197.263 14.644 197.263 13.228C197.263 12.484 197.431 11.656 197.767 10.744C198.103 9.832 198.463 9.256 198.847 9.016C199.135 8.824 199.831 8.632 200.935 8.44C202.039 8.224 203.059 8.116 203.995 8.116C205.987 8.116 207.991 8.26 210.007 8.548C210.007 8.98 209.947 9.712 209.827 10.744C209.707 11.752 209.599 12.388 209.503 12.652C207.463 12.388 205.819 12.256 204.571 12.256C203.923 12.256 203.503 12.292 203.311 12.364C203.263 12.388 203.215 12.46 203.167 12.58C203.119 12.676 203.095 12.808 203.095 12.976C203.095 13.312 203.203 13.552 203.419 13.696C203.635 13.864 204.199 14.068 205.111 14.308C206.191 14.62 207.115 14.944 207.883 15.28C208.675 15.616 209.359 16.12 209.935 16.792C210.535 17.464 210.835 18.328 210.835 19.384Z" fill="white"/>
</svg>
