<svg width="180" height="216" viewBox="0 0 180 216" fill="none" xmlns="http://www.w3.org/2000/svg">
<path d="M176.374 201.206C176.374 201.206 176.374 206.154 176.374 212.451H90.2227V156.225C103.553 156.225 112.894 149.478 112.894 149.478C117.836 154.965 133.298 162.972 133.298 162.972C176.238 176.466 176.374 201.206 176.374 201.206Z" fill="#6D6E71"/>
<path d="M90.2224 156.225V212.451H4.07129C4.07129 206.154 4.07129 201.206 4.07129 201.206C4.07129 201.206 4.47937 176.601 47.1468 162.972C47.1468 162.972 62.6087 154.965 67.551 149.478C67.551 149.478 76.8916 156.225 90.2224 156.225Z" fill="#58595B"/>
<path d="M67.5518 149.478V135.174C74.1718 138.592 81.7894 140.481 90.2231 140.481C98.6568 140.481 106.274 138.592 112.894 135.174V149.478C112.894 149.478 103.554 156.225 90.2231 156.225C76.8923 156.225 67.5518 149.478 67.5518 149.478Z" fill="#FFD7A3"/>
<path d="M140.1 61.7641C140.1 61.7641 119.696 65.7225 90.2228 46.0207C86.9128 43.8166 40.3459 61.7641 40.3459 61.7641V41.5225C40.3459 41.5225 38.4415 7.78657 90.2228 7.78657C90.2228 7.78657 116.884 -2.33422 142.367 12.2847C167.849 26.9036 146.357 38.3289 169.573 50.5188C169.573 50.5188 168.62 61.7641 140.1 61.7641Z" fill="#A18369"/>
<path d="M40.346 86.5038C40.346 89.5176 40.5273 92.4863 40.9354 95.3651C33.9073 94.4205 26.7432 87.7633 26.7432 82.0057C26.7432 75.7983 32.8191 73.0094 40.346 73.0094V86.5038Z" fill="#FFD7A3"/>
<path d="M140.1 73.0094C147.627 73.0094 153.703 75.7983 153.703 82.0057C153.703 87.7633 146.539 94.4205 139.511 95.3651C139.919 92.4863 140.1 89.5176 140.1 86.5038V73.0094Z" fill="#FFD7A3"/>
<path d="M140.1 73.0094V86.5038C140.1 89.5176 139.918 92.4863 139.51 95.3651C137.062 112.953 127.449 127.707 112.894 135.174C106.274 138.592 98.6564 140.481 90.2226 140.481C81.7889 140.481 74.1713 138.592 67.5513 135.174C52.9963 127.707 43.3837 112.953 40.9352 95.3651C40.5271 92.4863 40.3457 89.5176 40.3457 86.5038V73.0094V61.7641C40.3457 61.7641 86.9126 43.8166 90.2226 46.0206C119.695 65.7224 140.1 61.7641 140.1 61.7641V73.0094Z" fill="#FFE1B2"/>
<path d="M134.614 159.847C130.563 157.73 120.591 152.124 116.295 148.102V137.172C130.073 129.357 139.494 115.336 142.505 98.1742C150.309 95.9571 157.103 88.6899 157.103 82.0052C157.103 75.2382 151.976 70.7482 143.5 69.818V65.0801C171.003 64.167 172.842 52.2119 172.961 50.8008L173.149 48.5796L171.163 47.537C161.395 42.4082 160.913 38.1844 160.245 32.3387C159.5 25.8096 158.572 17.6842 144.069 9.36448C119.348 -4.81902 93.978 2.91236 89.6242 4.41429C69.9024 4.511 55.3025 9.38652 46.2249 18.91C36.7659 28.8337 36.8943 40.2423 36.945 41.5945V69.818C28.4696 70.7482 23.3422 75.2387 23.3422 82.0052C23.3422 88.6899 30.1359 95.9571 37.9408 98.1742C40.9547 115.343 50.3774 129.362 64.1507 137.172V148.102C59.8522 152.126 49.8709 157.737 45.825 159.85C1.62355 174.076 0.689489 200.049 0.671352 201.15L0.670898 215.825H179.774V201.187C179.769 200.08 179.115 173.942 134.614 159.847ZM90.2227 152.851C81.0494 152.851 73.8563 149.309 70.9521 147.623V140.39C76.9291 142.688 83.3868 143.855 90.2227 143.855C97.0599 143.855 103.519 142.688 109.493 140.391V147.632C106.605 149.321 99.4649 152.851 90.2227 152.851ZM150.302 82.0057C150.302 84.7612 147.297 88.5127 143.38 90.5836C143.455 89.2508 143.5 76.5998 143.5 76.5998C149.562 77.4428 150.302 80.5519 150.302 82.0057ZM51.1672 23.5457C59.0006 15.3272 72.1409 11.1601 90.2231 11.1601L90.8511 11.1583L91.4333 10.9393C91.6859 10.8448 116.958 1.60566 140.665 15.2049C152.2 21.8229 152.797 27.0475 153.488 33.098C154.159 38.9761 154.912 45.5771 165.157 51.8952C163.242 54.1703 157.928 57.8332 143.486 58.3316L139.464 58.4494C139.416 58.4584 134.561 59.3144 126.358 57.8813C118.757 56.553 106.648 52.9311 92.1185 43.2192C90.4585 42.1136 88.2362 41.9944 80.0972 44.3068C75.7584 45.5393 69.9772 47.4155 62.9142 49.8827C55.5446 52.457 48.2757 55.155 43.7474 56.8593V41.5225L43.7419 41.334C43.736 41.2396 43.2994 31.7998 51.1672 23.5457ZM30.1436 82.0057C30.1436 80.5519 30.8841 77.4428 36.945 76.5998C36.945 76.5998 36.9908 89.2508 37.0657 90.5836C33.1485 88.5122 30.1436 84.7612 30.1436 82.0057ZM44.3028 94.8955C43.9337 92.2911 43.7464 89.4681 43.7464 86.5038V64.0766C63.1363 56.6686 84.369 49.4199 88.9064 49.2067C111.598 64.203 129.129 65.682 136.699 65.448V86.5038C136.699 89.4681 136.512 92.2911 136.142 94.9036C133.803 111.703 124.76 125.288 111.324 132.181C104.994 135.451 97.8938 137.108 90.2231 137.108C82.5525 137.108 75.4528 135.45 69.1139 132.177C55.6856 125.288 46.6429 111.702 44.3028 94.8955ZM7.4723 201.247C7.49769 200.566 8.72965 178.788 48.1896 166.183C48.1896 166.183 61.7751 159.133 68.0066 153.735C71.42 155.659 78.1556 158.777 86.8224 159.459V209.078H7.47275L7.4723 201.247ZM172.973 209.078H93.6234V159.459C102.29 158.777 109.026 155.659 112.439 153.735C118.671 159.133 132.271 166.188 132.271 166.188C143.814 169.815 159.35 176.649 167.818 188.605C172.678 195.466 172.962 200.956 172.973 201.243V209.078Z" fill="#231F20"/>
<path d="M90.223 107.87H99.2915V101.123H93.6237V86.5038H86.8223V104.496C86.8223 106.359 88.3449 107.87 90.223 107.87Z" fill="#231F20"/>
<path d="M108.36 168.595H99.291V175.342H108.36V168.595Z" fill="#231F20"/>
<path d="M108.36 182.089H99.291V188.836H108.36V182.089Z" fill="#231F20"/>
<path d="M108.36 195.583H99.291V202.331H108.36V195.583Z" fill="#231F20"/>
<path d="M81.1545 168.595H72.0859V175.342H81.1545V168.595Z" fill="#231F20"/>
<path d="M81.1545 182.089H72.0859V188.836H81.1545V182.089Z" fill="#231F20"/>
<path d="M81.1545 195.583H72.0859V202.331H81.1545V195.583Z" fill="#231F20"/>
</svg>
