<svg width="180" height="216" viewBox="0 0 180 216" fill="none" xmlns="http://www.w3.org/2000/svg">
<path d="M89.9824 48.5872C59.558 34.3665 40.1064 50.8023 40.1064 50.8023V37.5119C40.1064 37.5119 49.3108 4.28592 89.9824 4.28592C130.654 4.28592 139.858 37.5119 139.858 37.5119V50.8023C139.858 50.8023 120.407 34.3665 89.9824 48.5872Z" fill="#E7ECED"/>
<path d="M112.653 136.392C106.033 139.759 98.4159 141.62 89.9824 141.62C81.5488 141.62 73.9314 139.759 67.3115 136.392C52.7568 129.038 43.1443 114.508 40.6959 97.1857C40.2878 94.3504 40.1064 91.4265 40.1064 88.4584V84.0282C40.1064 84.0282 55.704 110.609 71.8457 110.609C71.8457 110.21 71.9817 97.3186 89.9824 97.3186C107.983 97.3186 108.119 110.21 108.119 110.609C124.261 110.609 139.858 84.0282 139.858 84.0282V88.4584C139.858 91.4265 139.677 94.3504 139.269 97.1857C136.82 114.508 127.208 129.038 112.653 136.392Z" fill="#E7ECED"/>
<path d="M176.132 201.427C176.132 201.427 176.132 206.3 176.132 212.502H3.83301C3.83301 206.3 3.83301 201.427 3.83301 201.427C3.83301 201.427 4.24108 177.194 46.9077 163.771C46.9077 163.771 62.3692 155.885 67.3114 150.48L89.9823 170.416L112.653 150.48C117.595 155.885 133.057 163.771 133.057 163.771C175.996 177.061 176.132 201.427 176.132 201.427Z" fill="#43B05C"/>
<path d="M112.653 146.05V150.48L89.9824 170.416L67.3115 150.48V146.05V136.392C73.9314 139.759 81.5488 141.62 89.9824 141.62C98.416 141.62 106.033 139.759 112.653 136.392V146.05Z" fill="#FFD7A3"/>
<path d="M40.1064 88.4584C40.1064 91.4265 40.2878 94.3504 40.6959 97.1857C33.6679 96.2554 26.5039 89.6988 26.5039 84.0282C26.5039 77.9146 32.5797 75.168 40.1064 75.168V84.0282V88.4584Z" fill="#FFD7A3"/>
<path d="M139.858 75.168C147.385 75.168 153.461 77.9146 153.461 84.0282C153.461 89.6988 146.297 96.2554 139.269 97.1857C139.677 94.3504 139.858 91.4265 139.858 88.4584V84.0282V75.168Z" fill="#FFD7A3"/>
<path d="M139.858 75.168V84.0282C139.858 84.0282 124.261 110.609 108.119 110.609C108.119 110.21 107.983 97.3186 89.9824 97.3186C71.9817 97.3186 71.8457 110.21 71.8457 110.609C55.704 110.609 40.1064 84.0282 40.1064 84.0282V75.168V50.8023C40.1064 50.8023 59.558 34.3665 89.9824 48.5872C120.407 34.3665 139.858 50.8023 139.858 50.8023V75.168Z" fill="#FFE1B2"/>
<path d="M134.372 160.692C130.323 158.609 120.352 153.089 116.054 149.128V138.361C129.832 130.665 139.252 116.856 142.263 99.9537C150.068 97.77 156.862 90.6118 156.862 84.0282C156.862 77.364 151.734 72.9414 143.259 72.0252V37.0702L143.141 36.644C143.038 36.275 140.546 27.5011 132.74 18.7202C125.538 10.6192 112.273 0.963318 89.9825 0.963318C67.6916 0.963318 54.4274 10.6192 47.2253 18.7202C39.4183 27.5011 36.9264 36.2745 36.8243 36.644L36.706 37.0702V72.0252C28.2307 72.9414 23.1035 77.364 23.1035 84.0282C23.1035 90.6118 29.897 97.77 37.7017 99.9537C40.7156 116.862 50.138 130.67 63.911 138.361V149.127C59.6113 153.091 49.6302 158.615 45.5853 160.696C1.38524 174.707 0.451207 200.287 0.43307 201.372L0.432617 215.825H179.532V201.408C179.526 200.317 178.873 174.576 134.372 160.692ZM89.9825 165.946L70.7123 149V141.53C76.6893 143.793 83.1468 144.942 89.9825 144.942C96.8196 144.942 103.279 143.793 109.253 141.531V149L89.9825 165.946ZM86.5819 79.5981V94.1546C75.2134 95.2285 70.4362 101.668 68.973 106.941C58.5616 104.51 47.6438 89.8866 43.5073 83.124V52.4649C45.3468 51.228 49.2679 48.935 54.8676 47.4779C65.4663 44.7206 76.7867 46.1019 88.5153 51.5842L89.9825 52.27L91.4498 51.5842C103.179 46.1023 114.499 44.7201 125.097 47.4779C130.697 48.935 134.618 51.2284 136.458 52.4649V83.124C132.318 89.8924 121.385 104.536 110.965 106.947C110.555 105.469 109.843 103.708 108.611 101.942C106.362 98.7203 101.932 94.9507 93.3832 94.152V79.5981H86.5819ZM150.06 84.0282C150.06 86.7421 147.056 90.4373 143.138 92.4765C143.213 91.1634 143.259 78.7041 143.259 78.7041C149.32 79.5343 150.06 82.5964 150.06 84.0282ZM52.3598 23.0776C61.4857 12.813 74.1438 7.60851 89.9825 7.60851C105.706 7.60851 118.299 12.7413 127.415 22.865C133.432 29.5478 135.916 36.3534 136.458 38.0036V44.7188C134.075 43.4872 130.976 42.1657 127.232 41.1583C119.017 38.9486 105.976 37.8663 89.9825 44.923C73.9896 37.8663 60.948 38.9481 52.7329 41.1583C48.9891 42.1657 45.89 43.4868 43.5073 44.7188V37.9979C44.0373 36.3627 46.4341 29.7428 52.3598 23.0776ZM29.9047 84.0282C29.9047 82.5964 30.6452 79.5343 36.706 78.7041C36.706 78.7041 36.7518 91.1638 36.8266 92.4765C32.9095 90.4373 29.9047 86.7421 29.9047 84.0282ZM44.0636 96.7236C43.9997 96.2789 43.9484 95.8195 43.8954 95.3623C50.3675 103.548 60.7607 113.932 71.8459 113.932L75.2111 113.905L75.2465 110.617C75.2574 109.596 75.7638 100.641 89.9825 100.641C104.201 100.641 104.708 109.596 104.719 110.609V113.932H108.119C119.204 113.932 129.598 103.548 136.07 95.3627C136.017 95.8221 135.965 96.2837 135.901 96.7312C133.562 113.276 124.519 126.657 111.084 133.445C104.753 136.665 97.6535 138.297 89.9825 138.297C82.3116 138.297 75.2125 136.665 68.8737 133.441C55.4462 126.657 46.4037 113.276 44.0636 96.7236ZM172.731 209.179H7.23388V201.488C7.25564 201.098 7.64377 195.757 12.4854 189.077C21.0101 177.315 36.4766 170.543 47.9503 166.933C47.9503 166.933 61.0586 160.234 67.3715 155.003L86.5819 171.895V192.566H93.3832V171.895L112.594 155.003C118.906 160.234 132.031 166.938 132.031 166.938C143.573 170.51 159.109 177.24 167.577 189.015C172.436 195.773 172.72 201.179 172.731 201.462V209.179Z" fill="#231F20"/>
</svg>
