<svg width="180" height="216" viewBox="0 0 180 216" fill="none" xmlns="http://www.w3.org/2000/svg">
<path d="M164.363 126.114C157.199 114.463 152.801 83.6295 150.489 62.1434C149.129 49.2517 148.494 39.7269 148.494 39.7269C148.494 20.1458 132.261 4.28592 112.22 4.28592H89.5495H66.8787C46.8376 4.28592 30.6053 20.1458 30.6053 39.7269C30.6053 39.7269 29.9251 50.0491 28.4289 63.7825C26.0711 85.1358 21.7183 114.729 14.7357 126.114C1.22382 148.176 46.4749 163.771 46.4749 163.771C46.4749 163.771 61.9364 155.885 66.8787 150.48V146.05V136.392C49.9208 127.842 39.6736 109.59 39.6736 88.4584V64.0927L89.5495 48.5872C89.5495 48.5872 124.327 39.9042 139.425 64.0927V88.4584C139.425 109.59 129.178 127.842 112.22 136.392V146.05V150.48C117.163 155.885 132.624 163.771 132.624 163.771C132.624 163.771 177.875 148.176 164.363 126.114Z" fill="#414042"/>
<path d="M175.699 201.427C175.699 201.427 175.699 206.3 175.699 212.502H3.40039C3.40039 206.3 3.40039 201.427 3.40039 201.427C3.40039 201.427 3.67244 185.7 26.0713 172.586V172.631C63.4782 172.631 52.1428 190.351 89.5497 190.351C126.957 190.351 115.621 172.631 153.028 172.631L153.119 172.498C175.608 185.611 175.699 201.427 175.699 201.427Z" fill="#DC5B69"/>
<path d="M132.624 163.771C140.967 166.34 147.678 169.353 153.119 172.498L153.028 172.631C115.621 172.631 126.957 190.351 89.5497 190.351C52.1428 190.351 63.4782 172.631 26.0713 172.631V172.587C31.467 169.441 38.1775 166.384 46.4751 163.771C46.4751 163.771 61.9366 155.885 66.8788 150.48V146.05V136.392C73.4987 139.759 81.1162 141.62 89.5497 141.62C97.9833 141.62 105.601 139.759 112.221 136.392V146.05V150.48C117.163 155.885 132.624 163.771 132.624 163.771Z" fill="#FFE1B2"/>
<path d="M112.221 136.392C105.601 139.759 97.9833 141.62 89.5497 141.62C81.1162 141.62 73.4988 139.759 66.8789 136.392C49.9211 127.842 39.6738 109.59 39.6738 88.4584V64.0926L89.5497 48.5872C89.5497 48.5872 124.327 39.9041 139.426 64.0926V88.4584C139.426 109.59 129.178 127.842 112.221 136.392Z" fill="#FFE1B2"/>
<path d="M80.4814 72.9529V88.4584C80.4814 90.8949 78.441 92.8885 75.9472 92.8885H57.8105C55.3167 92.8885 53.2764 90.8949 53.2764 88.4584V72.9529H80.4814Z" fill="white"/>
<path d="M125.823 72.9529V88.4584C125.823 90.8949 123.783 92.8885 121.289 92.8885H103.152C100.659 92.8885 98.6182 90.8949 98.6182 88.4584V72.9529H125.823Z" fill="white"/>
<path d="M154.851 169.639C150.945 167.381 146.643 165.335 142.003 163.517C151.17 159.286 165.176 151.282 169.159 140.495C171.15 135.104 170.518 129.692 167.279 124.403C162.065 115.924 157.304 93.6895 153.872 61.8023C152.61 49.8383 151.968 40.6812 151.895 39.614C151.832 18.2918 134.058 0.963318 112.221 0.963318H89.5499H66.8791C45.0416 0.963318 27.2681 18.2931 27.205 39.6153C27.1302 40.722 26.4401 50.6499 25.0481 63.4259C21.6257 94.4204 16.9279 116.077 11.8179 124.408C8.58183 129.692 7.95067 135.105 9.94118 140.496C13.9335 151.308 27.9976 159.325 37.1634 163.548C32.53 165.392 28.2302 167.459 24.3236 169.737C0.577198 183.639 0.0126957 200.654 0 201.371V215.825H179.1V201.408C179.096 200.686 178.724 183.558 154.851 169.639ZM69.415 152.694L70.2797 151.748V141.53C76.2566 143.793 82.7142 144.942 89.5499 144.942C96.3875 144.942 102.847 143.792 108.82 141.53V151.748L109.685 152.693C114.89 158.386 131.602 166.939 131.602 166.939C134.722 167.9 137.698 168.963 140.534 170.111C129.787 171.67 124.5 175.261 119.347 178.763C113.094 183.014 107.187 187.029 89.5499 187.029C71.9134 187.029 66.0062 183.014 59.7527 178.763C54.6187 175.274 49.3527 171.695 38.6833 170.128C41.4918 168.975 44.4354 167.904 47.519 166.933C47.519 166.933 64.2098 158.386 69.415 152.694ZM136.025 78.4906H129.224V69.6303H95.2176V78.4906H83.8822V69.6303H49.8759V78.4906H43.0746V66.5221L90.4708 51.7875C91.3659 51.5789 99.341 49.8068 108.731 50.5958C121.167 51.64 130.344 56.5016 136.025 65.0504L136.025 78.4906ZM122.423 76.2755V88.4584C122.423 89.0586 121.904 89.5659 121.289 89.5659H103.152C102.538 89.5659 102.019 89.0586 102.019 88.4584V76.2755H122.423ZM77.081 76.2755V88.4584C77.081 89.0586 76.5618 89.5659 75.9474 89.5659H57.8107C57.1963 89.5659 56.6772 89.0586 56.6772 88.4584V76.2755H77.081ZM43.0746 85.1358H49.8759V88.4584C49.8759 92.733 53.4357 96.2111 57.8107 96.2111H75.9474C80.3224 96.2111 83.8822 92.733 83.8822 88.4584V85.1358H95.2176V88.4584C95.2176 92.733 98.7774 96.2111 103.152 96.2111H121.289C125.664 96.2111 129.224 92.733 129.224 88.4584V85.1358H136.025V88.4584C136.025 98.2893 133.667 107.653 129.207 115.536C124.776 123.365 118.363 129.556 110.651 133.445C104.32 136.665 97.2208 138.297 89.5499 138.297C81.879 138.297 74.7799 136.665 68.4384 133.44C60.7366 129.556 54.3235 123.365 49.8931 115.536C45.4324 107.653 43.0746 98.2893 43.0746 88.4584V85.1358ZM16.3371 138.235C15.0571 134.764 15.4878 131.358 17.6529 127.822C23.419 118.421 28.1822 96.9943 31.8109 64.1343C33.2972 50.4895 33.9927 40.0446 33.999 39.9405L34.0063 39.7269C34.0063 22.0166 48.7528 7.60851 66.8791 7.60851H89.5499H112.221C130.347 7.60851 145.094 22.0166 145.094 39.7269L145.101 39.9427C145.108 40.0388 145.756 49.6783 147.108 62.4907C149.608 85.7214 154.125 115.914 161.446 127.821C163.612 131.358 164.043 134.764 162.763 138.235C158.973 148.513 141.06 157.068 132.876 160.137C128.352 157.747 119.581 152.777 115.621 149.128V138.363C123.702 133.85 130.43 127.108 135.159 118.751C140.175 109.886 142.826 99.411 142.826 88.4584V63.1597L142.329 62.3627C135.566 51.5288 124.078 45.1645 109.105 43.9582C98.0828 43.0699 89.0856 45.2739 88.7084 45.3683L36.2734 61.6632V88.4584C36.2734 99.411 38.925 109.886 43.9411 118.751C48.6712 127.111 55.4026 133.854 63.4784 138.364V149.128C59.5224 152.774 50.7628 157.739 46.2359 160.131C43.8822 159.232 38.8053 157.166 33.4445 154.178C24.1989 149.026 18.2831 143.513 16.3371 138.235ZM172.299 209.179H6.80126V201.489C6.81849 201.176 7.06515 197.745 9.57618 193.032C13.7875 185.127 21.1773 179.455 26.9457 175.96C43.8994 176.092 49.7208 180.04 55.8687 184.219C62.7081 188.867 69.7796 193.674 89.5499 193.674C109.32 193.674 116.392 188.867 123.231 184.219C129.408 180.02 135.255 176.054 152.396 175.958C162.392 182.02 167.261 188.52 169.596 192.968C172.112 197.762 172.29 201.239 172.299 201.463V209.179Z" fill="#231F20"/>
<path d="M89.55 109.501H98.6184V102.856H92.9507V95.1036H86.1494V106.179C86.1494 108.014 87.6715 109.501 89.55 109.501Z" fill="#231F20"/>
</svg>
