<svg width="154" height="215" viewBox="0 0 154 215" fill="none" xmlns="http://www.w3.org/2000/svg">
<path d="M90.9616 163.481V182.165H105.303C110.584 182.165 114.865 186.347 114.865 191.507C114.865 196.666 110.584 200.849 105.303 200.849H90.9616V205.519C90.9616 210.679 86.6812 214.861 81.4004 214.861H71.8396C66.5588 214.861 62.2783 210.679 62.2783 205.519V200.849V182.165V163.481V144.798V98.0887H90.9621V144.798H105.304C110.584 144.798 114.865 148.98 114.865 154.139C114.865 159.299 110.584 163.481 105.304 163.481H90.9616Z" fill="#D6A154"/>
<path d="M153.109 21.3527V90.7487C153.109 102.542 143.325 112.102 131.255 112.102H93.0107H90.9615C90.9615 127.58 78.1193 140.127 62.2778 140.127V112.101H60.2286H21.984C9.91448 112.101 0.129883 102.541 0.129883 90.7487V21.3527C0.130312 9.56007 9.9149 0 21.9845 0H131.255C143.325 0 153.109 9.56007 153.109 21.3527Z" fill="#FED766"/>
<path d="M65.8637 74.5006V74.9677C65.8637 76.9023 64.2582 78.4709 62.2782 78.4709C60.2982 78.4709 58.6927 76.9023 58.6927 74.9677V74.5006C58.6927 72.566 60.2982 70.9974 62.2782 70.9974C64.2582 70.9978 65.8637 72.566 65.8637 74.5006ZM76.6198 70.9978C74.6398 70.9978 73.0343 72.5664 73.0343 74.501V74.9681C73.0343 76.9027 74.6398 78.4713 76.6198 78.4713C78.5999 78.4713 80.2054 76.9027 80.2054 74.9681V74.501C80.2054 72.566 78.5999 70.9978 76.6198 70.9978ZM90.9615 70.9978C88.9815 70.9978 87.376 72.5664 87.376 74.501V74.9681C87.376 76.9027 88.9815 78.4713 90.9615 78.4713C92.9415 78.4713 94.547 76.9027 94.547 74.9681V74.501C94.547 72.566 92.942 70.9978 90.9615 70.9978ZM47.9361 40.8702H105.303C107.283 40.8702 108.889 39.3015 108.889 37.367C108.889 35.4324 107.283 33.8637 105.303 33.8637H47.9361C45.9561 33.8637 44.3506 35.4324 44.3506 37.367C44.351 39.302 45.9561 40.8702 47.9361 40.8702ZM105.304 52.5474H47.9361C45.9561 52.5474 44.3506 54.1161 44.3506 56.0507C44.3506 57.9852 45.9561 59.5539 47.9361 59.5539H105.303C107.283 59.5539 108.889 57.9852 108.889 56.0507C108.889 54.1161 107.284 52.5474 105.304 52.5474Z" fill="#AD8653"/>
</svg>
