<svg width="432" height="42" viewBox="0 0 432 42" fill="none" xmlns="http://www.w3.org/2000/svg">
<path d="M4.75783 12.232C4.61383 12.232 4.54183 12.172 4.54183 12.052C4.54183 11.884 4.64983 11.656 4.86583 11.368C5.08183 11.056 5.29783 10.732 5.51383 10.396C5.75383 10.06 5.90983 9.796 5.98183 9.604C6.17383 9.1 6.28183 8.608 6.30583 8.128C6.35383 7.648 6.37783 7.18 6.37783 6.724V5.464C6.37783 5.272 6.43783 5.128 6.55783 5.032C6.67783 4.912 6.82183 4.852 6.98983 4.852C7.15783 4.852 7.31383 4.912 7.45783 5.032C7.60183 5.128 7.67383 5.272 7.67383 5.464C7.67383 6.616 7.46983 7.804 7.06183 9.028C6.67783 10.252 6.02983 11.26 5.11783 12.052C5.06983 12.076 5.00983 12.112 4.93783 12.16C4.88983 12.208 4.82983 12.232 4.75783 12.232ZM1.19383 12.232C1.04983 12.232 0.977828 12.172 0.977828 12.052C0.977828 11.908 1.07383 11.692 1.26583 11.404C1.48183 11.092 1.69783 10.768 1.91383 10.432C2.15383 10.096 2.30983 9.82 2.38183 9.604C2.64583 8.884 2.77783 8.2 2.77783 7.552C2.80183 6.904 2.81383 6.208 2.81383 5.464C2.81383 5.272 2.87383 5.128 2.99383 5.032C3.11383 4.912 3.25783 4.852 3.42583 4.852C3.59383 4.852 3.74983 4.912 3.89383 5.032C4.03783 5.128 4.10983 5.272 4.10983 5.464C4.10983 6.592 3.90583 7.78 3.49783 9.028C3.11383 10.276 2.46583 11.284 1.55383 12.052C1.50583 12.076 1.44583 12.112 1.37383 12.16C1.32583 12.208 1.26583 12.232 1.19383 12.232ZM12.2942 31.42C11.7662 31.42 11.3582 31.228 11.0702 30.844C10.7822 30.484 10.6382 30.052 10.6382 29.548C10.6382 29.38 10.6862 29.092 10.7822 28.684C10.9022 28.3 11.0822 28.108 11.3222 28.108C11.4662 28.108 11.5622 28.168 11.6102 28.288C11.6582 28.408 11.6822 28.54 11.6822 28.684C11.6822 28.852 11.6702 29.02 11.6462 29.188C11.6222 29.356 11.6102 29.488 11.6102 29.584C11.6102 29.824 11.6582 30.052 11.7542 30.268C11.8502 30.508 12.0542 30.628 12.3662 30.628C12.6062 30.628 12.8102 30.592 12.9782 30.52C14.6342 30.016 16.1342 29.128 17.4782 27.856C18.8222 26.584 19.9982 25.084 21.0062 23.356C22.0382 21.604 22.8902 19.768 23.5622 17.848C24.2582 15.904 24.7742 13.996 25.1102 12.124C25.4702 10.228 25.6502 8.524 25.6502 7.012C25.6502 6.172 25.4462 5.44 25.0382 4.816C24.6542 4.192 24.0062 3.88 23.0942 3.88C22.1342 3.88 21.1742 4.144 20.2142 4.672C19.2542 5.176 18.3302 5.86 17.4422 6.724C16.5782 7.564 15.7982 8.5 15.1022 9.532C14.4302 10.564 13.8902 11.608 13.4822 12.664C13.0982 13.696 12.9062 14.668 12.9062 15.58C12.9062 16.108 13.0262 16.6 13.2662 17.056C13.5062 17.488 13.9382 17.704 14.5622 17.704C15.4022 17.704 16.1942 17.596 16.9382 17.38C17.7062 17.164 18.3902 16.912 18.9902 16.624C19.6142 16.336 20.1182 16.084 20.5022 15.868C20.9102 15.652 21.1622 15.544 21.2582 15.544C21.3542 15.544 21.4022 15.58 21.4022 15.652C21.3782 15.7 21.3182 15.772 21.2222 15.868C20.3342 16.588 19.3142 17.2 18.1622 17.704C17.0342 18.208 15.8822 18.46 14.7062 18.46C13.7462 18.46 12.9542 18.232 12.3302 17.776C11.7062 17.296 11.3942 16.54 11.3942 15.508C11.3942 14.524 11.6462 13.456 12.1502 12.304C12.6542 11.128 13.3262 9.964 14.1662 8.812C15.0302 7.66 15.9902 6.604 17.0462 5.644C18.1022 4.684 19.1822 3.916 20.2862 3.34C21.3902 2.764 22.4462 2.476 23.4542 2.476C24.2222 2.476 24.8582 2.716 25.3622 3.196C25.8662 3.676 26.2382 4.264 26.4782 4.96C26.7422 5.656 26.8742 6.34 26.8742 7.012C26.8742 8.62 26.6702 10.396 26.2622 12.34C25.8782 14.26 25.3022 16.228 24.5342 18.244C23.7662 20.236 22.8302 22.12 21.7262 23.896C20.6222 25.672 19.3502 27.208 17.9102 28.504C16.4942 29.8 14.9342 30.712 13.2302 31.24C12.9182 31.36 12.6062 31.42 12.2942 31.42ZM29.071 28.144C28.903 28.144 28.771 28.084 28.675 27.964C28.603 27.82 28.567 27.664 28.567 27.496C28.567 26.152 28.639 24.808 28.783 23.464C28.951 22.096 29.035 20.74 29.035 19.396C29.035 19.252 29.023 18.976 28.999 18.568C28.999 18.136 28.975 17.68 28.927 17.2C28.903 16.696 28.855 16.252 28.783 15.868C28.735 15.46 28.663 15.208 28.567 15.112C28.471 15.04 28.375 14.956 28.279 14.86C28.207 14.764 28.171 14.644 28.171 14.5C28.171 14.356 28.231 14.248 28.351 14.176C28.495 14.08 28.639 14.032 28.783 14.032C29.191 14.032 29.479 14.224 29.647 14.608C29.839 14.968 29.959 15.412 30.007 15.94C30.079 16.468 30.115 16.972 30.115 17.452C30.115 19.708 30.043 21.976 29.899 24.256C29.995 23.992 30.187 23.524 30.475 22.852C30.763 22.18 31.111 21.424 31.519 20.584C31.927 19.744 32.347 18.94 32.779 18.172C33.235 17.38 33.655 16.732 34.039 16.228C34.423 15.7 34.735 15.436 34.975 15.436C35.311 15.436 35.551 15.652 35.695 16.084C35.863 16.492 35.947 16.828 35.947 17.092C35.947 18.196 35.887 19.3 35.767 20.404C35.671 21.508 35.623 22.624 35.623 23.752C35.623 23.896 35.635 24.172 35.659 24.58C35.707 24.964 35.779 25.336 35.875 25.696C35.995 26.032 36.175 26.2 36.415 26.2C36.607 26.2 36.859 25.984 37.171 25.552C37.483 25.12 37.807 24.616 38.143 24.04C38.479 23.44 38.779 22.876 39.043 22.348C39.307 21.82 39.487 21.448 39.583 21.232C39.607 21.184 39.631 21.136 39.655 21.088C39.679 21.016 39.715 20.98 39.763 20.98C39.883 20.98 39.955 21.076 39.979 21.268C40.003 21.436 40.015 21.544 40.015 21.592C40.015 21.832 39.883 22.252 39.619 22.852C39.355 23.452 39.019 24.088 38.611 24.76C38.227 25.432 37.819 26.008 37.387 26.488C36.979 26.968 36.607 27.208 36.271 27.208C35.791 27.208 35.431 27.016 35.191 26.632C34.975 26.248 34.831 25.816 34.759 25.336C34.687 24.832 34.651 24.412 34.651 24.076C34.651 23.284 34.687 22.492 34.759 21.7C34.855 20.908 34.903 20.116 34.903 19.324C34.903 19.252 34.891 19.072 34.867 18.784C34.867 18.496 34.855 18.22 34.831 17.956C34.807 17.692 34.747 17.56 34.651 17.56C34.411 17.56 34.099 17.86 33.715 18.46C33.355 19.06 32.959 19.816 32.527 20.728C32.119 21.64 31.711 22.588 31.303 23.572C30.895 24.532 30.535 25.396 30.223 26.164C29.935 26.932 29.731 27.448 29.611 27.712C29.563 27.808 29.491 27.904 29.395 28C29.323 28.096 29.215 28.144 29.071 28.144ZM39.9478 28.72C39.7078 28.72 39.5158 28.528 39.3718 28.144C39.2278 27.784 39.1198 27.34 39.0478 26.812C38.9758 26.284 38.9278 25.768 38.9038 25.264C38.9038 24.76 38.9038 24.376 38.9038 24.112C38.9038 23.152 38.9398 22.036 39.0118 20.764C39.1078 19.492 39.2278 18.148 39.3718 16.732C39.5398 15.316 39.7438 13.912 39.9838 12.52C40.2238 11.128 40.4998 9.832 40.8118 8.632C41.1238 7.432 41.4718 6.4 41.8558 5.536C42.0238 5.128 42.3118 4.924 42.7198 4.924C42.8878 4.924 43.0318 4.972 43.1518 5.068C43.2718 5.164 43.3318 5.308 43.3318 5.5C43.3318 5.548 43.3198 5.62 43.2958 5.716C43.2718 5.788 43.2478 5.848 43.2238 5.896C42.6478 7.504 42.0838 9.124 41.5318 10.756C40.9798 12.364 40.5958 14.02 40.3798 15.724C40.2358 16.852 40.0918 18.004 39.9478 19.18C39.8278 20.356 39.7678 21.52 39.7678 22.672C39.7678 22.984 39.7798 23.296 39.8038 23.608C39.8278 23.896 39.8758 24.196 39.9478 24.508C40.0678 23.548 40.2718 22.6 40.5598 21.664C40.8718 20.728 41.1478 19.804 41.3878 18.892C41.1478 18.58 41.0278 18.184 41.0278 17.704C41.0278 17.464 41.0998 17.176 41.2438 16.84C41.3878 16.48 41.6278 16.384 41.9638 16.552C42.0358 16.36 42.1558 16.024 42.3238 15.544C42.5158 15.064 42.7438 14.536 43.0078 13.96C43.2718 13.36 43.5478 12.784 43.8358 12.232C44.1238 11.68 44.4118 11.224 44.6998 10.864C45.0118 10.504 45.2878 10.324 45.5278 10.324C45.9358 10.324 46.2238 10.468 46.3918 10.756C46.5598 11.044 46.6678 11.392 46.7158 11.8C46.7638 12.184 46.7878 12.52 46.7878 12.808C46.7878 13.264 46.7278 13.9 46.6078 14.716C46.5118 15.508 46.3318 16.336 46.0678 17.2C45.8278 18.04 45.4918 18.76 45.0598 19.36C44.6518 19.936 44.1238 20.224 43.4758 20.224C43.3078 20.224 43.1758 20.212 43.0798 20.188C43.1278 20.524 43.1758 21.016 43.2238 21.664C43.2958 22.312 43.4038 22.984 43.5478 23.68C43.7158 24.376 43.9438 24.964 44.2318 25.444C44.5198 25.924 44.8918 26.164 45.3478 26.164C45.7798 26.164 46.1518 26.008 46.4638 25.696C46.7998 25.36 47.0758 24.952 47.2918 24.472C47.5318 23.992 47.7358 23.512 47.9038 23.032C48.0958 22.552 48.2638 22.156 48.4078 21.844C48.5518 21.508 48.6958 21.34 48.8398 21.34C48.9358 21.34 48.9958 21.4 49.0198 21.52C49.0438 21.616 49.0558 21.688 49.0558 21.736C49.0558 22.12 48.9478 22.624 48.7318 23.248C48.5158 23.848 48.2278 24.46 47.8678 25.084C47.5318 25.684 47.1358 26.2 46.6798 26.632C46.2478 27.04 45.8038 27.244 45.3478 27.244C44.6278 27.244 44.0518 26.98 43.6198 26.452C43.2118 25.924 42.8998 25.264 42.6838 24.472C42.4678 23.68 42.3118 22.9 42.2158 22.132C42.1198 21.34 42.0358 20.692 41.9638 20.188L41.8558 20.224C41.5438 21.544 41.2198 22.864 40.8838 24.184C40.5718 25.48 40.4158 26.8 40.4158 28.144C40.4158 28.288 40.3798 28.42 40.3078 28.54C40.2358 28.66 40.1158 28.72 39.9478 28.72ZM43.4398 19.144C43.9198 19.144 44.3038 18.892 44.5918 18.388C44.8798 17.884 45.0958 17.272 45.2398 16.552C45.3838 15.808 45.4798 15.1 45.5278 14.428C45.5758 13.756 45.5998 13.24 45.5998 12.88C45.5998 12.808 45.5878 12.604 45.5638 12.268C45.5398 11.908 45.4678 11.728 45.3478 11.728C45.1318 11.728 44.8798 11.98 44.5918 12.484C44.3038 12.988 44.0158 13.588 43.7278 14.284C43.4638 14.956 43.2238 15.592 43.0078 16.192C42.7918 16.768 42.6478 17.152 42.5758 17.344C42.6958 17.632 42.7798 17.932 42.8278 18.244C42.8758 18.532 42.9238 18.82 42.9718 19.108C43.0438 19.132 43.1158 19.144 43.1878 19.144C43.2838 19.144 43.3678 19.144 43.4398 19.144ZM66.1572 36.46C65.6292 36.46 65.2812 36.244 65.1132 35.812C64.9452 35.38 64.8612 34.936 64.8612 34.48C64.8612 33.328 65.0892 32.104 65.5452 30.808C66.0012 29.512 66.6132 28.216 67.3812 26.92C68.1492 25.6 69.0132 24.352 69.9732 23.176C70.9572 22 71.9652 20.956 72.9972 20.044C74.0532 19.108 75.0612 18.376 76.0212 17.848C76.2612 16.528 76.4772 15.196 76.6692 13.852C76.8612 12.508 76.9572 11.176 76.9572 9.856V8.956C76.5012 10.012 75.9972 11.08 75.4452 12.16C74.9172 13.216 74.3172 14.236 73.6452 15.22C73.3572 15.652 72.9492 16.24 72.4212 16.984C71.8932 17.728 71.2932 18.532 70.6212 19.396C69.9492 20.236 69.2532 21.04 68.5332 21.808C67.8372 22.552 67.1532 23.176 66.4812 23.68C65.8092 24.16 65.2092 24.4 64.6812 24.4C64.0812 24.4 63.6612 24.136 63.4212 23.608C63.1812 23.08 63.0612 22.564 63.0612 22.06C63.0612 21.004 63.3012 19.828 63.7812 18.532C64.2852 17.236 64.8972 15.892 65.6172 14.5C66.3372 13.108 67.0572 11.728 67.7772 10.36C68.4972 8.968 69.0972 7.648 69.5772 6.4C70.0812 5.128 70.3332 3.976 70.3332 2.944C70.3332 2.536 70.2372 2.26 70.0452 2.116C69.8772 1.972 69.6132 1.9 69.2532 1.9C68.3412 1.9 67.3692 2.14 66.3372 2.62C65.3052 3.1 64.2852 3.748 63.2772 4.564C62.2692 5.38 61.3572 6.28 60.5412 7.264C59.7492 8.248 59.1012 9.268 58.5972 10.324C58.1172 11.356 57.8772 12.328 57.8772 13.24C57.8772 13.624 57.9972 13.996 58.2372 14.356C58.4772 14.692 58.8132 14.86 59.2452 14.86C59.8452 14.86 60.4212 14.704 60.9732 14.392C61.5492 14.08 62.0412 13.78 62.4492 13.492C62.8572 13.18 63.0972 13.024 63.1692 13.024C63.3612 13.024 63.4572 13.108 63.4572 13.276C63.4572 13.516 63.2892 13.792 62.9532 14.104C62.6172 14.416 62.1972 14.716 61.6932 15.004C61.2132 15.268 60.7452 15.496 60.2892 15.688C59.8332 15.856 59.4852 15.94 59.2452 15.94C58.5012 15.94 57.9012 15.664 57.4452 15.112C57.0132 14.56 56.7972 13.936 56.7972 13.24C56.7972 12.232 57.0612 11.164 57.5892 10.036C58.1412 8.884 58.8612 7.768 59.7492 6.688C60.6612 5.608 61.6572 4.624 62.7372 3.736C63.8412 2.848 64.9572 2.14 66.0852 1.612C67.2372 1.084 68.3172 0.819998 69.3252 0.819998C70.1652 0.819998 70.7772 1.084 71.1612 1.612C71.5452 2.116 71.7372 2.752 71.7372 3.52C71.7372 4.552 71.4732 5.692 70.9452 6.94C70.4412 8.188 69.8172 9.496 69.0732 10.864C68.3292 12.208 67.5732 13.54 66.8052 14.86C66.0612 16.18 65.4252 17.44 64.8972 18.64C64.3932 19.84 64.1412 20.908 64.1412 21.844C64.1412 22.108 64.1892 22.456 64.2852 22.888C64.4052 23.296 64.6452 23.5 65.0052 23.5C65.3892 23.5 65.8572 23.26 66.4092 22.78C66.9852 22.276 67.5852 21.64 68.2092 20.872C68.8572 20.08 69.4812 19.276 70.0812 18.46C70.6812 17.62 71.2212 16.852 71.7012 16.156C72.1812 15.46 72.5292 14.944 72.7452 14.608C73.6332 13.336 74.3172 12.004 74.7972 10.612C75.2772 9.196 75.7812 7.78 76.3092 6.364C76.4292 6.1 76.5612 5.884 76.7052 5.716C76.8492 5.548 77.0772 5.464 77.3892 5.464C77.7972 5.464 78.0852 5.62 78.2532 5.932C78.4212 6.244 78.5172 6.604 78.5412 7.012C78.5892 7.396 78.6132 7.732 78.6132 8.02C78.6132 9.508 78.4812 11.044 78.2172 12.628C77.9772 14.188 77.7252 15.712 77.4612 17.2C77.9892 17.008 78.5292 16.84 79.0812 16.696C79.6572 16.528 80.2212 16.444 80.7732 16.444C81.3972 16.444 81.9252 16.612 82.3572 16.948C82.8132 17.284 83.0412 17.788 83.0412 18.46V18.604C83.0412 18.7 83.0292 18.796 83.0052 18.892C82.9812 18.988 82.9212 19.048 82.8252 19.072C82.6812 19 82.5852 18.868 82.5372 18.676C82.5132 18.484 82.4652 18.28 82.3932 18.064C82.3212 17.848 82.1652 17.668 81.9252 17.524C81.7092 17.356 81.3492 17.272 80.8452 17.272C80.2452 17.272 79.6212 17.368 78.9732 17.56C78.3492 17.752 77.7732 17.98 77.2452 18.244C76.7412 20.788 76.0572 23.272 75.1932 25.696C74.3292 28.12 73.0812 30.364 71.4492 32.428C71.1852 32.74 70.8492 33.124 70.4412 33.58C70.0332 34.036 69.5772 34.48 69.0732 34.912C68.5932 35.344 68.1012 35.704 67.5972 35.992C67.0932 36.304 66.6132 36.46 66.1572 36.46ZM66.6612 35.272C66.9732 35.272 67.3212 35.14 67.7052 34.876C68.0892 34.612 68.4732 34.288 68.8572 33.904C69.2652 33.544 69.6252 33.172 69.9372 32.788C70.2732 32.428 70.5252 32.14 70.6932 31.924C72.2052 30.076 73.3212 28.036 74.0412 25.804C74.7852 23.572 75.3732 21.304 75.8052 19C74.9652 19.528 74.0892 20.224 73.1772 21.088C72.2892 21.952 71.4132 22.924 70.5492 24.004C69.6852 25.084 68.9052 26.224 68.2092 27.424C67.5372 28.6 66.9972 29.764 66.5892 30.916C66.1812 32.092 65.9772 33.184 65.9772 34.192C65.9772 34.408 66.0132 34.636 66.0852 34.876C66.1812 35.14 66.3732 35.272 66.6612 35.272ZM84.065 28.576C83.609 28.576 83.225 28.408 82.913 28.072C82.625 27.736 82.397 27.328 82.229 26.848C82.061 26.344 81.941 25.84 81.869 25.336C81.821 24.832 81.797 24.412 81.797 24.076C81.797 23.716 81.833 23.14 81.905 22.348C82.001 21.532 82.145 20.632 82.337 19.648C82.529 18.664 82.769 17.716 83.057 16.804C83.345 15.868 83.681 15.088 84.065 14.464C84.473 13.84 84.941 13.504 85.469 13.456C85.541 13.24 85.649 13.06 85.793 12.916C85.937 12.748 86.129 12.664 86.369 12.664C86.849 12.664 87.269 12.868 87.629 13.276C87.989 13.684 88.289 14.188 88.529 14.788C88.769 15.388 88.949 15.976 89.069 16.552C89.213 17.128 89.285 17.596 89.285 17.956C89.285 19.06 89.177 20.152 88.961 21.232L89.249 21.268C89.945 21.268 90.485 21.16 90.869 20.944C91.253 20.728 91.553 20.524 91.769 20.332C91.985 20.116 92.165 20.008 92.309 20.008C92.453 20.008 92.525 20.092 92.525 20.26C92.525 20.548 92.369 20.812 92.057 21.052C91.769 21.268 91.409 21.472 90.977 21.664C90.545 21.832 90.125 21.952 89.717 22.024C89.309 22.096 88.997 22.108 88.781 22.06C88.661 22.564 88.457 23.188 88.169 23.932C87.905 24.652 87.569 25.372 87.161 26.092C86.777 26.788 86.321 27.376 85.793 27.856C85.265 28.336 84.689 28.576 84.065 28.576ZM87.989 20.512C88.133 19.672 88.205 18.82 88.205 17.956C88.205 17.764 88.157 17.44 88.061 16.984C87.989 16.504 87.869 16 87.701 15.472C87.557 14.944 87.377 14.488 87.161 14.104C86.945 13.72 86.717 13.528 86.477 13.528C86.357 13.528 86.261 13.624 86.189 13.816C86.141 13.984 86.105 14.176 86.081 14.392C86.081 14.608 86.081 14.752 86.081 14.824C86.081 15.784 86.225 16.792 86.513 17.848C86.825 18.88 87.317 19.768 87.989 20.512ZM84.173 27.64C84.533 27.64 84.905 27.4 85.289 26.92C85.673 26.416 86.033 25.816 86.369 25.12C86.729 24.4 87.029 23.716 87.269 23.068C87.509 22.42 87.665 21.94 87.737 21.628C86.825 21.004 86.141 20.164 85.685 19.108C85.253 18.052 85.037 16.972 85.037 15.868C85.037 15.388 85.073 14.932 85.145 14.5C84.641 15.364 84.221 16.384 83.885 17.56C83.549 18.736 83.297 19.936 83.129 21.16C82.985 22.384 82.913 23.5 82.913 24.508C82.913 24.748 82.937 25.12 82.985 25.624C83.057 26.128 83.189 26.596 83.381 27.028C83.573 27.436 83.837 27.64 84.173 27.64ZM92.8805 27.172C92.4965 27.172 92.1845 27.016 91.9445 26.704C91.7285 26.392 91.5605 26.008 91.4405 25.552C91.3205 25.072 91.2365 24.616 91.1885 24.184C91.1645 23.728 91.1525 23.368 91.1525 23.104C91.1525 22.864 91.1525 22.624 91.1525 22.384C91.1765 22.144 91.2005 21.904 91.2245 21.664C91.3205 20.92 91.4525 20.188 91.6205 19.468C91.7885 18.724 91.9205 17.98 92.0165 17.236C92.0645 16.852 92.1005 16.48 92.1245 16.12C92.1485 15.76 92.1725 15.388 92.1965 15.004C92.2205 14.884 92.2565 14.776 92.3045 14.68C92.3525 14.56 92.4485 14.5 92.5925 14.5C92.8565 14.5 93.0125 14.62 93.0605 14.86C93.1325 15.076 93.1685 15.28 93.1685 15.472C93.1685 16.336 93.0845 17.188 92.9165 18.028C92.7485 18.868 92.5805 19.708 92.4125 20.548C92.2445 21.388 92.1605 22.24 92.1605 23.104C92.1605 23.2 92.1605 23.416 92.1605 23.752C92.1845 24.064 92.2205 24.412 92.2685 24.796C92.3165 25.156 92.3885 25.468 92.4845 25.732C92.6045 25.996 92.7485 26.128 92.9165 26.128C93.1325 26.128 93.4085 25.876 93.7445 25.372C94.1045 24.868 94.4645 24.268 94.8245 23.572C95.2085 22.852 95.5445 22.192 95.8325 21.592C96.1445 20.968 96.3485 20.548 96.4445 20.332C96.7805 19.588 96.9965 18.904 97.0925 18.28C97.2125 17.656 97.2965 17.08 97.3445 16.552C97.3925 16 97.5125 15.46 97.7045 14.932C97.8245 14.644 98.0045 14.5 98.2445 14.5C98.6045 14.5 98.7845 14.716 98.7845 15.148C98.7845 15.892 98.7005 16.792 98.5325 17.848C98.3645 18.88 98.2805 19.9 98.2805 20.908V21.7C98.2805 21.868 98.2805 22.132 98.2805 22.492C98.2805 22.828 98.3045 23.188 98.3525 23.572C98.4245 23.956 98.5205 24.28 98.6405 24.544C98.7845 24.808 98.9885 24.94 99.2525 24.94C99.5645 24.94 99.8765 24.76 100.188 24.4C100.5 24.04 100.788 23.62 101.052 23.14C101.34 22.66 101.58 22.24 101.772 21.88C101.964 21.52 102.108 21.34 102.204 21.34C102.348 21.34 102.42 21.436 102.42 21.628C102.42 21.844 102.3 22.192 102.06 22.672C101.844 23.128 101.556 23.608 101.196 24.112C100.86 24.616 100.5 25.048 100.116 25.408C99.7565 25.768 99.4445 25.948 99.1805 25.948C98.6285 25.948 98.2085 25.72 97.9205 25.264C97.6565 24.808 97.4645 24.244 97.3445 23.572C97.2485 22.9 97.2005 22.252 97.2005 21.628C97.2005 20.98 97.2005 20.476 97.2005 20.116C97.1045 20.404 96.9485 20.836 96.7325 21.412C96.5165 21.964 96.2645 22.576 95.9765 23.248C95.6885 23.896 95.3765 24.52 95.0405 25.12C94.7045 25.72 94.3445 26.212 93.9605 26.596C93.6005 26.98 93.2405 27.172 92.8805 27.172ZM104.109 27.892C103.941 27.892 103.809 27.832 103.713 27.712C103.617 27.592 103.569 27.448 103.569 27.28C103.569 26.368 103.605 25.456 103.677 24.544C103.773 23.608 103.821 22.684 103.821 21.772C103.821 21.172 103.797 20.416 103.749 19.504C103.725 18.568 103.641 17.656 103.497 16.768C103.377 15.856 103.161 15.16 102.849 14.68C102.825 14.632 102.801 14.596 102.777 14.572C102.753 14.524 102.741 14.476 102.741 14.428C102.741 14.284 102.813 14.188 102.957 14.14C103.101 14.068 103.221 14.032 103.317 14.032C103.653 14.032 103.917 14.224 104.109 14.608C104.301 14.992 104.445 15.484 104.541 16.084C104.637 16.684 104.697 17.308 104.721 17.956C104.769 18.58 104.793 19.156 104.793 19.684C104.793 20.188 104.793 20.536 104.793 20.728C104.793 20.968 104.793 21.196 104.793 21.412C104.817 21.628 104.829 21.856 104.829 22.096C104.925 21.76 105.093 21.244 105.333 20.548C105.573 19.852 105.861 19.084 106.197 18.244C106.533 17.38 106.893 16.564 107.277 15.796C107.685 15.004 108.081 14.356 108.465 13.852C108.873 13.348 109.257 13.096 109.617 13.096C109.977 13.096 110.241 13.324 110.409 13.78C110.577 14.236 110.685 14.728 110.733 15.256C110.805 15.784 110.841 16.18 110.841 16.444C110.841 16.612 110.829 16.9 110.805 17.308C110.781 17.692 110.721 18.052 110.625 18.388C110.553 18.724 110.409 18.892 110.193 18.892C110.001 18.892 109.905 18.676 109.905 18.244C109.905 18.052 109.917 17.872 109.941 17.704C109.965 17.536 109.977 17.404 109.977 17.308C109.977 17.188 109.965 16.912 109.941 16.48C109.917 16.024 109.857 15.592 109.761 15.184C109.689 14.776 109.581 14.572 109.437 14.572C109.293 14.572 109.113 14.716 108.897 15.004C108.705 15.268 108.501 15.592 108.285 15.976C108.093 16.336 107.913 16.696 107.745 17.056C107.601 17.392 107.505 17.632 107.457 17.776C107.097 18.664 106.713 19.672 106.305 20.8C105.921 21.928 105.585 23.068 105.297 24.22C105.033 25.348 104.901 26.404 104.901 27.388C104.733 27.724 104.469 27.892 104.109 27.892ZM123.7 14.644C122.764 14.644 121.9 14.392 121.108 13.888C120.316 13.384 119.68 12.724 119.2 11.908C118.72 11.068 118.48 10.192 118.48 9.28C118.48 8.08 118.768 7.012 119.344 6.076C119.944 5.14 120.712 4.348 121.648 3.7C122.608 3.052 123.652 2.56 124.78 2.224C125.908 1.888 127 1.72 128.056 1.72C129.304 1.72 130.504 1.888 131.656 2.224C132.808 2.56 133.924 2.98 135.004 3.484C136.084 3.988 137.116 4.504 138.1 5.032C139.084 5.536 140.02 5.956 140.908 6.292C141.796 6.628 142.624 6.796 143.392 6.796C144.4 6.796 145.108 6.508 145.516 5.932C145.924 5.356 146.128 4.636 146.128 3.772V3.664C146.128 3.544 146.14 3.424 146.164 3.304C146.212 3.16 146.308 3.088 146.452 3.088C146.692 3.088 146.824 3.244 146.848 3.556C146.896 3.868 146.92 4.108 146.92 4.276C146.92 4.996 146.728 5.596 146.344 6.076C145.96 6.532 145.468 6.88 144.868 7.12C144.268 7.336 143.644 7.444 142.996 7.444C142.036 7.444 141.1 7.288 140.188 6.976C139.3 6.664 138.4 6.28 137.488 5.824C136.6 5.368 135.688 4.924 134.752 4.492C133.816 4.036 132.82 3.652 131.764 3.34C130.708 3.028 129.568 2.872 128.344 2.872C127.456 2.872 126.52 3.016 125.536 3.304C124.552 3.592 123.628 4.012 122.764 4.564C121.9 5.116 121.204 5.8 120.676 6.616C120.148 7.408 119.884 8.32 119.884 9.352C119.884 10.072 120.076 10.78 120.46 11.476C120.844 12.172 121.36 12.748 122.008 13.204C122.656 13.66 123.352 13.888 124.096 13.888C124.552 13.888 124.936 13.804 125.248 13.636C125.584 13.468 125.848 13.312 126.04 13.168C126.256 13 126.424 12.916 126.544 12.916C126.688 12.916 126.76 12.988 126.76 13.132C126.76 13.42 126.544 13.684 126.112 13.924C125.704 14.14 125.26 14.32 124.78 14.464C124.3 14.584 123.94 14.644 123.7 14.644ZM131.116 28.396C130.3 28.396 129.664 28.204 129.208 27.82C128.752 27.412 128.428 26.896 128.236 26.272C128.068 25.648 127.984 24.988 127.984 24.292C127.984 23.02 128.104 21.568 128.344 19.936C128.608 18.28 128.98 16.6 129.46 14.896C129.964 13.192 130.564 11.596 131.26 10.108C131.98 8.596 132.784 7.372 133.672 6.436C133.84 6.244 134.068 6.148 134.356 6.148C134.524 6.148 134.716 6.196 134.932 6.292C135.148 6.364 135.268 6.496 135.292 6.688L135.184 6.976C134.896 7.432 134.584 7.864 134.248 8.272C133.912 8.68 133.6 9.124 133.312 9.604C132.064 11.692 131.032 13.984 130.216 16.48C129.424 18.952 129.028 21.424 129.028 23.896C129.028 24.376 129.052 24.88 129.1 25.408C129.148 25.912 129.292 26.368 129.532 26.776C129.772 27.184 130.168 27.472 130.72 27.64C130.84 27.664 130.972 27.712 131.116 27.784C131.284 27.856 131.368 27.976 131.368 28.144C131.368 28.312 131.284 28.396 131.116 28.396ZM137.996 27.748C137.708 27.748 137.492 27.544 137.348 27.136C137.204 26.704 137.096 26.2 137.024 25.624C136.952 25.024 136.904 24.472 136.88 23.968C136.88 23.44 136.88 23.092 136.88 22.924C136.88 21.46 136.94 19.9 137.06 18.244C137.204 16.564 137.42 14.872 137.708 13.168C138.02 11.44 138.428 9.796 138.932 8.236C139.436 6.652 140.06 5.224 140.804 3.952C140.972 3.664 141.224 3.52 141.56 3.52C141.704 3.52 141.836 3.568 141.956 3.664C142.076 3.736 142.136 3.856 142.136 4.024C142.136 4.168 142.088 4.336 141.992 4.528C141.296 6.136 140.636 7.708 140.012 9.244C139.388 10.756 138.884 12.376 138.5 14.104C137.996 16.408 137.744 18.748 137.744 21.124C137.744 22.276 137.816 23.416 137.96 24.544C138.08 24.16 138.32 23.572 138.68 22.78C139.04 21.988 139.46 21.112 139.94 20.152C140.444 19.192 140.972 18.268 141.524 17.38C142.1 16.492 142.652 15.772 143.18 15.22C143.708 14.644 144.176 14.356 144.584 14.356C145.016 14.356 145.292 14.572 145.412 15.004C145.556 15.412 145.628 15.784 145.628 16.12C145.628 17.08 145.556 18.04 145.412 19C145.268 19.96 145.196 20.932 145.196 21.916C145.196 22.012 145.208 22.276 145.232 22.708C145.256 23.116 145.304 23.512 145.376 23.896C145.472 24.28 145.592 24.472 145.736 24.472C145.952 24.472 146.168 24.34 146.384 24.076C146.6 23.788 146.792 23.476 146.96 23.14C147.152 22.78 147.32 22.468 147.464 22.204C147.608 21.916 147.716 21.772 147.788 21.772C147.86 21.772 147.908 21.832 147.932 21.952C147.956 22.048 147.968 22.12 147.968 22.168C147.968 22.48 147.848 22.912 147.608 23.464C147.392 23.992 147.104 24.484 146.744 24.94C146.384 25.372 146.024 25.588 145.664 25.588C145.328 25.588 145.052 25.444 144.836 25.156C144.644 24.868 144.5 24.52 144.404 24.112C144.308 23.704 144.236 23.308 144.188 22.924C144.164 22.54 144.152 22.24 144.152 22.024C144.152 21.16 144.188 20.296 144.26 19.432C144.356 18.568 144.404 17.704 144.404 16.84V16.552C144.404 16.408 144.392 16.276 144.368 16.156C144.344 16.012 144.284 15.94 144.188 15.94C144.044 15.94 143.84 16.108 143.576 16.444C143.312 16.756 143.132 16.972 143.036 17.092C142.388 17.908 141.764 18.88 141.164 20.008C140.588 21.136 140.084 22.3 139.652 23.5C139.22 24.676 138.908 25.78 138.716 26.812C138.692 27.004 138.62 27.208 138.5 27.424C138.404 27.64 138.236 27.748 137.996 27.748ZM151.565 28.576C151.109 28.576 150.725 28.408 150.413 28.072C150.125 27.736 149.897 27.328 149.729 26.848C149.561 26.344 149.441 25.84 149.369 25.336C149.321 24.832 149.297 24.412 149.297 24.076C149.297 23.716 149.333 23.14 149.405 22.348C149.501 21.532 149.645 20.632 149.837 19.648C150.029 18.664 150.269 17.716 150.557 16.804C150.845 15.868 151.181 15.088 151.565 14.464C151.973 13.84 152.441 13.504 152.969 13.456C153.041 13.24 153.149 13.06 153.293 12.916C153.437 12.748 153.629 12.664 153.869 12.664C154.349 12.664 154.769 12.868 155.129 13.276C155.489 13.684 155.789 14.188 156.029 14.788C156.269 15.388 156.449 15.976 156.569 16.552C156.713 17.128 156.785 17.596 156.785 17.956C156.785 19.06 156.677 20.152 156.461 21.232L156.749 21.268C157.445 21.268 157.985 21.16 158.369 20.944C158.753 20.728 159.053 20.524 159.269 20.332C159.485 20.116 159.665 20.008 159.809 20.008C159.953 20.008 160.025 20.092 160.025 20.26C160.025 20.548 159.869 20.812 159.557 21.052C159.269 21.268 158.909 21.472 158.477 21.664C158.045 21.832 157.625 21.952 157.217 22.024C156.809 22.096 156.497 22.108 156.281 22.06C156.161 22.564 155.957 23.188 155.669 23.932C155.405 24.652 155.069 25.372 154.661 26.092C154.277 26.788 153.821 27.376 153.293 27.856C152.765 28.336 152.189 28.576 151.565 28.576ZM155.489 20.512C155.633 19.672 155.705 18.82 155.705 17.956C155.705 17.764 155.657 17.44 155.561 16.984C155.489 16.504 155.369 16 155.201 15.472C155.057 14.944 154.877 14.488 154.661 14.104C154.445 13.72 154.217 13.528 153.977 13.528C153.857 13.528 153.761 13.624 153.689 13.816C153.641 13.984 153.605 14.176 153.581 14.392C153.581 14.608 153.581 14.752 153.581 14.824C153.581 15.784 153.725 16.792 154.013 17.848C154.325 18.88 154.817 19.768 155.489 20.512ZM151.673 27.64C152.033 27.64 152.405 27.4 152.789 26.92C153.173 26.416 153.533 25.816 153.869 25.12C154.229 24.4 154.529 23.716 154.769 23.068C155.009 22.42 155.165 21.94 155.237 21.628C154.325 21.004 153.641 20.164 153.185 19.108C152.753 18.052 152.537 16.972 152.537 15.868C152.537 15.388 152.573 14.932 152.645 14.5C152.141 15.364 151.721 16.384 151.385 17.56C151.049 18.736 150.797 19.936 150.629 21.16C150.485 22.384 150.413 23.5 150.413 24.508C150.413 24.748 150.437 25.12 150.485 25.624C150.557 26.128 150.689 26.596 150.881 27.028C151.073 27.436 151.337 27.64 151.673 27.64ZM160.38 27.172C159.996 27.172 159.684 27.016 159.444 26.704C159.228 26.392 159.06 26.008 158.94 25.552C158.82 25.072 158.736 24.616 158.688 24.184C158.664 23.728 158.652 23.368 158.652 23.104C158.652 22.864 158.652 22.624 158.652 22.384C158.676 22.144 158.7 21.904 158.724 21.664C158.82 20.92 158.952 20.188 159.12 19.468C159.288 18.724 159.42 17.98 159.516 17.236C159.564 16.852 159.6 16.48 159.624 16.12C159.648 15.76 159.672 15.388 159.696 15.004C159.72 14.884 159.756 14.776 159.804 14.68C159.852 14.56 159.948 14.5 160.092 14.5C160.356 14.5 160.512 14.62 160.56 14.86C160.632 15.076 160.668 15.28 160.668 15.472C160.668 16.336 160.584 17.188 160.416 18.028C160.248 18.868 160.08 19.708 159.912 20.548C159.744 21.388 159.66 22.24 159.66 23.104C159.66 23.2 159.66 23.416 159.66 23.752C159.684 24.064 159.72 24.412 159.768 24.796C159.816 25.156 159.888 25.468 159.984 25.732C160.104 25.996 160.248 26.128 160.416 26.128C160.632 26.128 160.908 25.876 161.244 25.372C161.604 24.868 161.964 24.268 162.324 23.572C162.708 22.852 163.044 22.192 163.332 21.592C163.644 20.968 163.848 20.548 163.944 20.332C164.28 19.588 164.496 18.904 164.592 18.28C164.712 17.656 164.796 17.08 164.844 16.552C164.892 16 165.012 15.46 165.204 14.932C165.324 14.644 165.504 14.5 165.744 14.5C166.104 14.5 166.284 14.716 166.284 15.148C166.284 15.892 166.2 16.792 166.032 17.848C165.864 18.88 165.78 19.9 165.78 20.908V21.7C165.78 21.868 165.78 22.132 165.78 22.492C165.78 22.828 165.804 23.188 165.852 23.572C165.924 23.956 166.02 24.28 166.14 24.544C166.284 24.808 166.488 24.94 166.752 24.94C167.064 24.94 167.376 24.76 167.688 24.4C168 24.04 168.288 23.62 168.552 23.14C168.84 22.66 169.08 22.24 169.272 21.88C169.464 21.52 169.608 21.34 169.704 21.34C169.848 21.34 169.92 21.436 169.92 21.628C169.92 21.844 169.8 22.192 169.56 22.672C169.344 23.128 169.056 23.608 168.696 24.112C168.36 24.616 168 25.048 167.616 25.408C167.256 25.768 166.944 25.948 166.68 25.948C166.128 25.948 165.708 25.72 165.42 25.264C165.156 24.808 164.964 24.244 164.844 23.572C164.748 22.9 164.7 22.252 164.7 21.628C164.7 20.98 164.7 20.476 164.7 20.116C164.604 20.404 164.448 20.836 164.232 21.412C164.016 21.964 163.764 22.576 163.476 23.248C163.188 23.896 162.876 24.52 162.54 25.12C162.204 25.72 161.844 26.212 161.46 26.596C161.1 26.98 160.74 27.172 160.38 27.172ZM171.249 41.572C170.721 41.572 170.325 41.416 170.061 41.104C169.821 40.816 169.653 40.456 169.557 40.024C169.485 39.592 169.449 39.172 169.449 38.764C169.449 37.852 169.593 36.832 169.881 35.704C170.169 34.576 170.565 33.424 171.069 32.248C171.597 31.072 172.197 29.956 172.869 28.9C173.565 27.844 174.309 26.908 175.101 26.092C175.893 25.276 176.709 24.676 177.549 24.292L177.585 22.888C177.585 22.624 177.573 22.18 177.549 21.556C177.549 20.908 177.525 20.212 177.477 19.468C177.429 18.724 177.369 18.064 177.297 17.488C177.225 16.912 177.153 16.564 177.081 16.444C176.865 16.78 176.601 17.368 176.289 18.208C175.977 19.048 175.629 19.984 175.245 21.016C174.861 22.024 174.453 23.008 174.021 23.968C173.613 24.928 173.181 25.72 172.725 26.344C172.293 26.968 171.861 27.28 171.429 27.28C170.925 27.28 170.541 27.124 170.277 26.812C170.037 26.5 169.869 26.128 169.773 25.696C169.701 25.24 169.665 24.82 169.665 24.436C169.665 23.98 169.773 23.296 169.989 22.384C170.205 21.472 170.493 20.488 170.853 19.432C171.237 18.352 171.669 17.332 172.149 16.372C172.653 15.388 173.181 14.584 173.733 13.96C174.285 13.336 174.849 13.024 175.425 13.024C175.761 13.024 176.037 13.144 176.253 13.384C176.493 13.624 176.673 13.888 176.793 14.176C176.841 14.104 176.925 14.068 177.045 14.068C177.405 14.068 177.693 14.38 177.909 15.004C178.125 15.628 178.281 16.408 178.377 17.344C178.497 18.256 178.581 19.204 178.629 20.188C178.677 21.172 178.701 22.024 178.701 22.744C178.701 23.032 178.689 23.296 178.665 23.536C178.665 23.752 178.665 23.92 178.665 24.04H178.773C178.941 24.04 179.097 24.088 179.241 24.184C179.409 24.28 179.493 24.424 179.493 24.616C179.493 24.976 179.301 25.156 178.917 25.156C178.773 25.156 178.665 25.144 178.593 25.12C178.377 27.16 178.041 29.2 177.585 31.24C177.153 33.304 176.481 35.272 175.569 37.144C175.425 37.456 175.185 37.852 174.849 38.332C174.537 38.836 174.177 39.328 173.769 39.808C173.361 40.312 172.929 40.732 172.473 41.068C172.041 41.404 171.633 41.572 171.249 41.572ZM171.429 26.092C171.741 26.092 172.077 25.804 172.437 25.228C172.821 24.628 173.205 23.884 173.589 22.996C173.973 22.108 174.333 21.184 174.669 20.224C175.005 19.24 175.293 18.364 175.533 17.596C175.797 16.804 175.977 16.252 176.073 15.94C176.025 15.844 175.989 15.76 175.965 15.688C175.965 15.616 175.965 15.544 175.965 15.472C175.965 15.376 175.965 15.232 175.965 15.04C175.965 14.824 175.929 14.632 175.857 14.464C175.785 14.272 175.641 14.176 175.425 14.176C174.993 14.176 174.549 14.476 174.093 15.076C173.661 15.676 173.241 16.432 172.833 17.344C172.449 18.256 172.101 19.216 171.789 20.224C171.501 21.208 171.261 22.108 171.069 22.924C170.901 23.74 170.817 24.328 170.817 24.688C170.817 24.904 170.841 25.192 170.889 25.552C170.937 25.912 171.117 26.092 171.429 26.092ZM171.249 40.492C171.537 40.492 171.849 40.336 172.185 40.024C172.545 39.736 172.881 39.364 173.193 38.908C173.529 38.476 173.817 38.044 174.057 37.612C174.321 37.204 174.513 36.88 174.633 36.64C175.521 34.912 176.181 33.088 176.613 31.168C177.045 29.272 177.345 27.364 177.513 25.444C176.841 25.804 176.169 26.38 175.497 27.172C174.849 27.94 174.225 28.828 173.625 29.836C173.025 30.844 172.485 31.888 172.005 32.968C171.549 34.072 171.189 35.116 170.925 36.1C170.661 37.108 170.529 37.984 170.529 38.728C170.529 38.872 170.541 39.076 170.565 39.34C170.589 39.628 170.649 39.892 170.745 40.132C170.865 40.372 171.033 40.492 171.249 40.492ZM182.609 27.748C182.321 27.748 182.105 27.544 181.961 27.136C181.817 26.704 181.709 26.2 181.637 25.624C181.565 25.024 181.517 24.472 181.493 23.968C181.493 23.44 181.493 23.092 181.493 22.924C181.493 21.46 181.553 19.9 181.673 18.244C181.817 16.564 182.033 14.872 182.321 13.168C182.633 11.44 183.041 9.796 183.545 8.236C184.049 6.652 184.673 5.224 185.417 3.952C185.585 3.664 185.837 3.52 186.173 3.52C186.317 3.52 186.449 3.568 186.569 3.664C186.689 3.736 186.749 3.856 186.749 4.024C186.749 4.168 186.701 4.336 186.605 4.528C185.909 6.136 185.249 7.708 184.625 9.244C184.001 10.756 183.497 12.376 183.113 14.104C182.609 16.408 182.357 18.748 182.357 21.124C182.357 22.276 182.429 23.416 182.573 24.544C182.693 24.16 182.933 23.572 183.293 22.78C183.653 21.988 184.073 21.112 184.553 20.152C185.057 19.192 185.585 18.268 186.137 17.38C186.713 16.492 187.265 15.772 187.793 15.22C188.321 14.644 188.789 14.356 189.197 14.356C189.629 14.356 189.905 14.572 190.025 15.004C190.169 15.412 190.241 15.784 190.241 16.12C190.241 17.08 190.169 18.04 190.025 19C189.881 19.96 189.809 20.932 189.809 21.916C189.809 22.012 189.821 22.276 189.845 22.708C189.869 23.116 189.917 23.512 189.989 23.896C190.085 24.28 190.205 24.472 190.349 24.472C190.565 24.472 190.781 24.34 190.997 24.076C191.213 23.788 191.405 23.476 191.573 23.14C191.765 22.78 191.933 22.468 192.077 22.204C192.221 21.916 192.329 21.772 192.401 21.772C192.473 21.772 192.521 21.832 192.545 21.952C192.569 22.048 192.581 22.12 192.581 22.168C192.581 22.48 192.461 22.912 192.221 23.464C192.005 23.992 191.717 24.484 191.357 24.94C190.997 25.372 190.637 25.588 190.277 25.588C189.941 25.588 189.665 25.444 189.449 25.156C189.257 24.868 189.113 24.52 189.017 24.112C188.921 23.704 188.849 23.308 188.801 22.924C188.777 22.54 188.765 22.24 188.765 22.024C188.765 21.16 188.801 20.296 188.873 19.432C188.969 18.568 189.017 17.704 189.017 16.84V16.552C189.017 16.408 189.005 16.276 188.981 16.156C188.957 16.012 188.897 15.94 188.801 15.94C188.657 15.94 188.453 16.108 188.189 16.444C187.925 16.756 187.745 16.972 187.649 17.092C187.001 17.908 186.377 18.88 185.777 20.008C185.201 21.136 184.697 22.3 184.265 23.5C183.833 24.676 183.521 25.78 183.329 26.812C183.305 27.004 183.233 27.208 183.113 27.424C183.017 27.64 182.849 27.748 182.609 27.748ZM196.754 27.388C196.226 27.388 195.806 27.208 195.494 26.848C195.182 26.464 194.942 25.996 194.774 25.444C194.63 24.868 194.534 24.304 194.486 23.752C194.438 23.176 194.414 22.708 194.414 22.348C194.414 21.052 194.462 19.744 194.558 18.424C194.678 17.104 194.798 15.796 194.918 14.5C194.51 14.668 194.114 14.86 193.73 15.076C193.37 15.292 193.034 15.568 192.722 15.904C192.674 15.952 192.614 16 192.542 16.048C192.494 16.096 192.422 16.12 192.326 16.12C192.158 16.12 191.99 16.036 191.822 15.868C191.678 15.7 191.606 15.532 191.606 15.364C191.606 15.148 191.75 14.932 192.038 14.716C192.326 14.476 192.674 14.26 193.082 14.068C193.514 13.852 193.91 13.672 194.27 13.528C194.654 13.384 194.918 13.288 195.062 13.24C195.086 13.048 195.134 12.688 195.206 12.16C195.302 11.608 195.41 10.996 195.53 10.324C195.65 9.628 195.782 8.968 195.926 8.344C196.094 7.696 196.262 7.168 196.43 6.76C196.598 6.328 196.766 6.112 196.934 6.112C197.102 6.112 197.27 6.172 197.438 6.292C197.606 6.412 197.69 6.556 197.69 6.724C197.69 6.796 197.63 7.096 197.51 7.624C197.39 8.152 197.234 8.776 197.042 9.496C196.874 10.192 196.718 10.852 196.574 11.476C196.454 12.1 196.37 12.532 196.322 12.772C197.378 12.46 198.386 12.208 199.346 12.016C200.33 11.824 201.362 11.728 202.442 11.728C202.538 11.728 202.718 11.728 202.982 11.728C203.246 11.728 203.498 11.74 203.738 11.764C204.002 11.788 204.134 11.836 204.134 11.908C203.894 12.004 203.63 12.076 203.342 12.124C203.078 12.172 202.814 12.208 202.55 12.232C201.398 12.328 200.306 12.544 199.274 12.88C198.266 13.216 197.234 13.588 196.178 13.996C196.01 15.364 195.866 16.756 195.746 18.172C195.626 19.564 195.566 20.944 195.566 22.312C195.566 22.576 195.578 22.936 195.602 23.392C195.626 23.824 195.674 24.268 195.746 24.724C195.818 25.156 195.938 25.528 196.106 25.84C196.274 26.152 196.514 26.308 196.826 26.308C197.234 26.308 197.654 26.08 198.086 25.624C198.518 25.144 198.95 24.568 199.382 23.896C199.814 23.2 200.21 22.504 200.57 21.808C200.93 21.112 201.242 20.524 201.506 20.044C201.794 19.564 201.986 19.312 202.082 19.288V19.396C202.082 19.756 201.962 20.26 201.722 20.908C201.482 21.556 201.158 22.252 200.75 22.996C200.366 23.716 199.934 24.412 199.454 25.084C198.998 25.756 198.53 26.308 198.05 26.74C197.594 27.172 197.162 27.388 196.754 27.388ZM203.389 28.108C202.957 28.108 202.741 27.892 202.741 27.46C202.741 27.052 202.885 26.596 203.173 26.092C203.485 25.564 203.857 25.036 204.289 24.508C204.721 23.956 205.153 23.452 205.585 22.996C206.041 22.54 206.413 22.168 206.701 21.88C206.365 21.712 205.945 21.568 205.441 21.448C204.961 21.304 204.469 21.148 203.965 20.98C203.485 20.788 203.077 20.548 202.741 20.26C202.429 19.948 202.273 19.54 202.273 19.036C202.273 18.508 202.465 17.908 202.849 17.236C203.257 16.564 203.773 15.916 204.397 15.292C205.021 14.644 205.657 14.116 206.305 13.708C206.953 13.276 207.529 13.06 208.033 13.06C208.345 13.06 208.645 13.144 208.933 13.312C209.245 13.456 209.401 13.708 209.401 14.068C209.401 14.164 209.377 14.296 209.329 14.464C209.281 14.632 209.197 14.716 209.077 14.716C208.909 14.716 208.765 14.632 208.645 14.464C208.549 14.272 208.429 14.176 208.285 14.176C207.877 14.176 207.385 14.344 206.809 14.68C206.257 15.016 205.717 15.448 205.189 15.976C204.661 16.48 204.217 17.008 203.857 17.56C203.521 18.112 203.353 18.604 203.353 19.036C203.353 19.324 203.521 19.576 203.857 19.792C204.193 20.008 204.589 20.188 205.045 20.332C205.525 20.476 205.993 20.62 206.449 20.764C206.905 20.884 207.241 21.016 207.457 21.16C207.577 21.04 207.781 20.848 208.069 20.584C208.357 20.32 208.681 20.032 209.041 19.72C209.401 19.408 209.725 19.144 210.013 18.928C210.325 18.712 210.541 18.604 210.661 18.604C210.757 18.604 210.805 18.652 210.805 18.748C210.805 18.868 210.685 19.072 210.445 19.36C210.229 19.624 209.953 19.912 209.617 20.224C209.305 20.536 209.005 20.836 208.717 21.124C208.429 21.388 208.225 21.58 208.105 21.7C208.321 22.06 208.429 22.444 208.429 22.852C208.429 23.26 208.249 23.764 207.889 24.364C207.529 24.94 207.073 25.516 206.521 26.092C205.993 26.668 205.441 27.148 204.865 27.532C204.289 27.916 203.797 28.108 203.389 28.108ZM204.757 26.272C204.973 26.272 205.225 26.152 205.513 25.912C205.825 25.672 206.125 25.372 206.413 25.012C206.701 24.652 206.941 24.304 207.133 23.968C207.349 23.608 207.457 23.32 207.457 23.104C207.457 22.864 207.409 22.684 207.313 22.564C207.169 22.708 206.941 22.936 206.629 23.248C206.341 23.56 206.029 23.908 205.693 24.292C205.381 24.652 205.105 25 204.865 25.336C204.649 25.648 204.541 25.888 204.541 26.056C204.541 26.2 204.613 26.272 204.757 26.272ZM210.377 32.788C210.233 32.788 210.161 32.716 210.161 32.572C210.161 32.452 210.293 32.248 210.557 31.96C210.821 31.672 211.097 31.372 211.385 31.06C211.673 30.772 211.865 30.544 211.961 30.376C212.297 29.776 212.549 29.152 212.717 28.504C212.885 27.856 212.993 27.196 213.041 26.524C213.089 26.092 213.293 25.876 213.653 25.876C214.133 25.876 214.373 26.116 214.373 26.596C214.373 27.004 214.229 27.544 213.941 28.216C213.677 28.912 213.329 29.608 212.897 30.304C212.465 31 212.021 31.588 211.565 32.068C211.109 32.548 210.713 32.788 210.377 32.788ZM228.189 31.42C227.661 31.42 227.253 31.228 226.965 30.844C226.677 30.484 226.533 30.052 226.533 29.548C226.533 29.38 226.581 29.092 226.677 28.684C226.797 28.3 226.977 28.108 227.217 28.108C227.361 28.108 227.457 28.168 227.505 28.288C227.553 28.408 227.577 28.54 227.577 28.684C227.577 28.852 227.565 29.02 227.541 29.188C227.517 29.356 227.505 29.488 227.505 29.584C227.505 29.824 227.553 30.052 227.649 30.268C227.745 30.508 227.949 30.628 228.261 30.628C228.501 30.628 228.705 30.592 228.873 30.52C230.529 30.016 232.029 29.128 233.373 27.856C234.717 26.584 235.893 25.084 236.901 23.356C237.933 21.604 238.785 19.768 239.457 17.848C240.153 15.904 240.669 13.996 241.005 12.124C241.365 10.228 241.545 8.524 241.545 7.012C241.545 6.172 241.341 5.44 240.933 4.816C240.549 4.192 239.901 3.88 238.989 3.88C238.029 3.88 237.069 4.144 236.109 4.672C235.149 5.176 234.225 5.86 233.337 6.724C232.473 7.564 231.693 8.5 230.997 9.532C230.325 10.564 229.785 11.608 229.377 12.664C228.993 13.696 228.801 14.668 228.801 15.58C228.801 16.108 228.921 16.6 229.161 17.056C229.401 17.488 229.833 17.704 230.457 17.704C231.297 17.704 232.089 17.596 232.833 17.38C233.601 17.164 234.285 16.912 234.885 16.624C235.509 16.336 236.013 16.084 236.397 15.868C236.805 15.652 237.057 15.544 237.153 15.544C237.249 15.544 237.297 15.58 237.297 15.652C237.273 15.7 237.213 15.772 237.117 15.868C236.229 16.588 235.209 17.2 234.057 17.704C232.929 18.208 231.777 18.46 230.601 18.46C229.641 18.46 228.849 18.232 228.225 17.776C227.601 17.296 227.289 16.54 227.289 15.508C227.289 14.524 227.541 13.456 228.045 12.304C228.549 11.128 229.221 9.964 230.061 8.812C230.925 7.66 231.885 6.604 232.941 5.644C233.997 4.684 235.077 3.916 236.181 3.34C237.285 2.764 238.341 2.476 239.349 2.476C240.117 2.476 240.753 2.716 241.257 3.196C241.761 3.676 242.133 4.264 242.373 4.96C242.637 5.656 242.769 6.34 242.769 7.012C242.769 8.62 242.565 10.396 242.157 12.34C241.773 14.26 241.197 16.228 240.429 18.244C239.661 20.236 238.725 22.12 237.621 23.896C236.517 25.672 235.245 27.208 233.805 28.504C232.389 29.8 230.829 30.712 229.125 31.24C228.813 31.36 228.501 31.42 228.189 31.42ZM244.966 28.144C244.798 28.144 244.666 28.084 244.57 27.964C244.498 27.82 244.462 27.664 244.462 27.496C244.462 26.152 244.534 24.808 244.678 23.464C244.846 22.096 244.93 20.74 244.93 19.396C244.93 19.252 244.918 18.976 244.894 18.568C244.894 18.136 244.87 17.68 244.822 17.2C244.798 16.696 244.75 16.252 244.678 15.868C244.63 15.46 244.558 15.208 244.462 15.112C244.366 15.04 244.27 14.956 244.174 14.86C244.102 14.764 244.066 14.644 244.066 14.5C244.066 14.356 244.126 14.248 244.246 14.176C244.39 14.08 244.534 14.032 244.678 14.032C245.086 14.032 245.374 14.224 245.542 14.608C245.734 14.968 245.854 15.412 245.902 15.94C245.974 16.468 246.01 16.972 246.01 17.452C246.01 19.708 245.938 21.976 245.794 24.256C245.89 23.992 246.082 23.524 246.37 22.852C246.658 22.18 247.006 21.424 247.414 20.584C247.822 19.744 248.242 18.94 248.674 18.172C249.13 17.38 249.55 16.732 249.934 16.228C250.318 15.7 250.63 15.436 250.87 15.436C251.206 15.436 251.446 15.652 251.59 16.084C251.758 16.492 251.842 16.828 251.842 17.092C251.842 18.196 251.782 19.3 251.662 20.404C251.566 21.508 251.518 22.624 251.518 23.752C251.518 23.896 251.53 24.172 251.554 24.58C251.602 24.964 251.674 25.336 251.77 25.696C251.89 26.032 252.07 26.2 252.31 26.2C252.502 26.2 252.754 25.984 253.066 25.552C253.378 25.12 253.702 24.616 254.038 24.04C254.374 23.44 254.674 22.876 254.938 22.348C255.202 21.82 255.382 21.448 255.478 21.232C255.502 21.184 255.526 21.136 255.55 21.088C255.574 21.016 255.61 20.98 255.658 20.98C255.778 20.98 255.85 21.076 255.874 21.268C255.898 21.436 255.91 21.544 255.91 21.592C255.91 21.832 255.778 22.252 255.514 22.852C255.25 23.452 254.914 24.088 254.506 24.76C254.122 25.432 253.714 26.008 253.282 26.488C252.874 26.968 252.502 27.208 252.166 27.208C251.686 27.208 251.326 27.016 251.086 26.632C250.87 26.248 250.726 25.816 250.654 25.336C250.582 24.832 250.546 24.412 250.546 24.076C250.546 23.284 250.582 22.492 250.654 21.7C250.75 20.908 250.798 20.116 250.798 19.324C250.798 19.252 250.786 19.072 250.762 18.784C250.762 18.496 250.75 18.22 250.726 17.956C250.702 17.692 250.642 17.56 250.546 17.56C250.306 17.56 249.994 17.86 249.61 18.46C249.25 19.06 248.854 19.816 248.422 20.728C248.014 21.64 247.606 22.588 247.198 23.572C246.79 24.532 246.43 25.396 246.118 26.164C245.83 26.932 245.626 27.448 245.506 27.712C245.458 27.808 245.386 27.904 245.29 28C245.218 28.096 245.11 28.144 244.966 28.144ZM255.842 28.108C255.41 28.108 255.194 27.892 255.194 27.46C255.194 27.052 255.338 26.596 255.626 26.092C255.938 25.564 256.31 25.036 256.742 24.508C257.174 23.956 257.606 23.452 258.038 22.996C258.494 22.54 258.866 22.168 259.154 21.88C258.818 21.712 258.398 21.568 257.894 21.448C257.414 21.304 256.922 21.148 256.418 20.98C255.938 20.788 255.53 20.548 255.194 20.26C254.882 19.948 254.726 19.54 254.726 19.036C254.726 18.508 254.918 17.908 255.302 17.236C255.71 16.564 256.226 15.916 256.85 15.292C257.474 14.644 258.11 14.116 258.758 13.708C259.406 13.276 259.982 13.06 260.486 13.06C260.798 13.06 261.098 13.144 261.386 13.312C261.698 13.456 261.854 13.708 261.854 14.068C261.854 14.164 261.83 14.296 261.782 14.464C261.734 14.632 261.65 14.716 261.53 14.716C261.362 14.716 261.218 14.632 261.098 14.464C261.002 14.272 260.882 14.176 260.738 14.176C260.33 14.176 259.838 14.344 259.262 14.68C258.71 15.016 258.17 15.448 257.642 15.976C257.114 16.48 256.67 17.008 256.31 17.56C255.974 18.112 255.806 18.604 255.806 19.036C255.806 19.324 255.974 19.576 256.31 19.792C256.646 20.008 257.042 20.188 257.498 20.332C257.978 20.476 258.446 20.62 258.902 20.764C259.358 20.884 259.694 21.016 259.91 21.16C260.03 21.04 260.234 20.848 260.522 20.584C260.81 20.32 261.134 20.032 261.494 19.72C261.854 19.408 262.178 19.144 262.466 18.928C262.778 18.712 262.994 18.604 263.114 18.604C263.21 18.604 263.258 18.652 263.258 18.748C263.258 18.868 263.138 19.072 262.898 19.36C262.682 19.624 262.406 19.912 262.07 20.224C261.758 20.536 261.458 20.836 261.17 21.124C260.882 21.388 260.678 21.58 260.558 21.7C260.774 22.06 260.882 22.444 260.882 22.852C260.882 23.26 260.702 23.764 260.342 24.364C259.982 24.94 259.526 25.516 258.974 26.092C258.446 26.668 257.894 27.148 257.318 27.532C256.742 27.916 256.25 28.108 255.842 28.108ZM257.21 26.272C257.426 26.272 257.678 26.152 257.966 25.912C258.278 25.672 258.578 25.372 258.866 25.012C259.154 24.652 259.394 24.304 259.586 23.968C259.802 23.608 259.91 23.32 259.91 23.104C259.91 22.864 259.862 22.684 259.766 22.564C259.622 22.708 259.394 22.936 259.082 23.248C258.794 23.56 258.482 23.908 258.146 24.292C257.834 24.652 257.558 25 257.318 25.336C257.102 25.648 256.994 25.888 256.994 26.056C256.994 26.2 257.066 26.272 257.21 26.272ZM265.206 37.288C264.75 37.288 264.366 37.084 264.054 36.676C263.742 36.268 263.502 35.74 263.334 35.092C263.166 34.468 263.034 33.808 262.938 33.112C262.866 32.44 262.818 31.804 262.794 31.204C262.77 30.628 262.758 30.184 262.758 29.872C262.758 28.216 262.878 26.512 263.118 24.76C263.358 23.008 263.67 21.268 264.054 19.54C264.438 17.788 264.846 16.132 265.278 14.572C265.086 14.524 264.942 14.392 264.846 14.176C264.774 13.936 264.738 13.732 264.738 13.564C264.738 13.132 264.882 12.916 265.17 12.916C265.338 12.916 265.53 12.952 265.746 13.024C265.818 12.856 265.89 12.676 265.962 12.484C266.058 12.268 266.214 12.16 266.43 12.16C266.574 12.16 266.706 12.208 266.826 12.304C266.946 12.4 267.006 12.532 267.006 12.7C267.006 12.796 266.97 12.928 266.898 13.096C266.85 13.24 266.802 13.36 266.754 13.456C267.666 13.984 268.506 14.644 269.274 15.436C270.066 16.204 270.522 17.152 270.642 18.28C270.738 18.208 270.93 18.064 271.218 17.848C271.53 17.632 271.83 17.428 272.118 17.236C272.43 17.02 272.622 16.912 272.694 16.912C272.814 16.912 272.874 16.972 272.874 17.092C272.874 17.188 272.718 17.392 272.406 17.704C272.094 17.992 271.758 18.28 271.398 18.568C271.038 18.856 270.798 19.06 270.678 19.18C270.678 19.852 270.51 20.644 270.174 21.556C269.862 22.444 269.43 23.308 268.878 24.148C268.326 24.988 267.69 25.684 266.97 26.236C266.25 26.788 265.506 27.064 264.738 27.064C264.33 27.064 264.126 26.872 264.126 26.488C264.126 26.008 264.33 25.42 264.738 24.724C265.17 24.028 265.686 23.308 266.286 22.564C266.91 21.82 267.522 21.148 268.122 20.548C268.722 19.924 269.214 19.456 269.598 19.144V18.892C269.646 17.86 269.322 17.02 268.626 16.372C267.93 15.724 267.162 15.184 266.322 14.752C265.578 17.2 264.954 19.768 264.45 22.456C263.946 25.12 263.694 27.736 263.694 30.304C263.694 30.568 263.706 31.024 263.73 31.672C263.754 32.344 263.814 33.04 263.91 33.76C264.03 34.504 264.198 35.14 264.414 35.668C264.654 36.196 264.978 36.46 265.386 36.46C265.698 36.46 265.974 36.316 266.214 36.028C266.454 35.74 266.67 35.452 266.862 35.164C267.054 34.876 267.21 34.732 267.33 34.732C267.426 34.732 267.474 34.816 267.474 34.984C267.474 35.248 267.342 35.56 267.078 35.92C266.814 36.304 266.502 36.628 266.142 36.892C265.782 37.156 265.47 37.288 265.206 37.288ZM265.026 26.236C265.53 26.236 266.022 26.02 266.502 25.588C266.982 25.132 267.414 24.58 267.798 23.932C268.206 23.26 268.554 22.6 268.842 21.952C269.13 21.304 269.322 20.788 269.418 20.404C269.274 20.548 269.022 20.824 268.662 21.232C268.326 21.616 267.942 22.072 267.51 22.6C267.078 23.104 266.658 23.608 266.25 24.112C265.866 24.592 265.542 25.024 265.278 25.408C265.014 25.792 264.882 26.044 264.882 26.164C264.882 26.212 264.93 26.236 265.026 26.236ZM275.529 13.852C275.361 13.852 275.205 13.816 275.061 13.744C274.917 13.648 274.845 13.516 274.845 13.348C274.845 13.156 274.929 12.868 275.097 12.484C275.265 12.076 275.481 11.668 275.745 11.26C276.009 10.852 276.285 10.504 276.573 10.216C276.885 9.928 277.161 9.784 277.401 9.784C277.593 9.784 277.689 9.904 277.689 10.144C277.689 10.432 277.533 10.66 277.221 10.828C277.029 10.948 276.861 11.176 276.717 11.512C276.597 11.848 276.489 12.196 276.393 12.556C276.321 12.916 276.249 13.204 276.177 13.42C276.105 13.708 275.889 13.852 275.529 13.852ZM274.809 27.64C274.257 27.64 273.849 27.412 273.585 26.956C273.321 26.476 273.153 25.936 273.081 25.336C273.009 24.712 272.973 24.208 272.973 23.824C272.973 23.584 272.997 23.14 273.045 22.492C273.117 21.844 273.201 21.124 273.297 20.332C273.417 19.516 273.549 18.724 273.693 17.956C273.861 17.188 274.053 16.552 274.269 16.048C274.485 15.544 274.713 15.292 274.953 15.292C275.145 15.292 275.313 15.352 275.457 15.472C275.601 15.592 275.673 15.748 275.673 15.94C275.673 16.228 275.589 16.684 275.421 17.308C275.253 17.932 275.049 18.64 274.809 19.432C274.593 20.224 274.389 21.028 274.197 21.844C274.029 22.636 273.945 23.356 273.945 24.004C273.945 24.172 273.957 24.46 273.981 24.868C274.029 25.276 274.113 25.66 274.233 26.02C274.353 26.356 274.545 26.524 274.809 26.524C275.169 26.524 275.565 26.26 275.997 25.732C276.429 25.204 276.861 24.556 277.293 23.788C277.749 22.996 278.169 22.216 278.553 21.448C278.937 20.656 279.261 19.996 279.525 19.468C279.789 18.94 279.969 18.676 280.065 18.676C280.185 18.676 280.257 18.724 280.281 18.82C280.329 18.892 280.353 18.976 280.353 19.072C280.353 19.384 280.221 19.888 279.957 20.584C279.693 21.256 279.345 22 278.913 22.816C278.481 23.608 278.013 24.376 277.509 25.12C277.005 25.84 276.513 26.44 276.033 26.92C275.553 27.4 275.145 27.64 274.809 27.64ZM280.804 27.892C280.636 27.892 280.504 27.832 280.408 27.712C280.312 27.592 280.264 27.448 280.264 27.28C280.264 26.368 280.3 25.456 280.372 24.544C280.468 23.608 280.516 22.684 280.516 21.772C280.516 21.172 280.492 20.416 280.444 19.504C280.42 18.568 280.336 17.656 280.192 16.768C280.072 15.856 279.856 15.16 279.544 14.68C279.52 14.632 279.496 14.596 279.472 14.572C279.448 14.524 279.436 14.476 279.436 14.428C279.436 14.284 279.508 14.188 279.652 14.14C279.796 14.068 279.916 14.032 280.012 14.032C280.348 14.032 280.612 14.224 280.804 14.608C280.996 14.992 281.14 15.484 281.236 16.084C281.332 16.684 281.392 17.308 281.416 17.956C281.464 18.58 281.488 19.156 281.488 19.684C281.488 20.188 281.488 20.536 281.488 20.728C281.488 20.968 281.488 21.196 281.488 21.412C281.512 21.628 281.524 21.856 281.524 22.096C281.62 21.76 281.788 21.244 282.028 20.548C282.268 19.852 282.556 19.084 282.892 18.244C283.228 17.38 283.588 16.564 283.972 15.796C284.38 15.004 284.776 14.356 285.16 13.852C285.568 13.348 285.952 13.096 286.312 13.096C286.672 13.096 286.936 13.324 287.104 13.78C287.272 14.236 287.38 14.728 287.428 15.256C287.5 15.784 287.536 16.18 287.536 16.444C287.536 16.612 287.524 16.9 287.5 17.308C287.476 17.692 287.416 18.052 287.32 18.388C287.248 18.724 287.104 18.892 286.888 18.892C286.696 18.892 286.6 18.676 286.6 18.244C286.6 18.052 286.612 17.872 286.636 17.704C286.66 17.536 286.672 17.404 286.672 17.308C286.672 17.188 286.66 16.912 286.636 16.48C286.612 16.024 286.552 15.592 286.456 15.184C286.384 14.776 286.276 14.572 286.132 14.572C285.988 14.572 285.808 14.716 285.592 15.004C285.4 15.268 285.196 15.592 284.98 15.976C284.788 16.336 284.608 16.696 284.44 17.056C284.296 17.392 284.2 17.632 284.152 17.776C283.792 18.664 283.408 19.672 283 20.8C282.616 21.928 282.28 23.068 281.992 24.22C281.728 25.348 281.596 26.404 281.596 27.388C281.428 27.724 281.164 27.892 280.804 27.892ZM290.92 28C290.272 28 289.768 27.712 289.408 27.136C289.072 26.56 288.844 25.864 288.724 25.048C288.604 24.208 288.544 23.428 288.544 22.708C288.544 22.372 288.544 22.072 288.544 21.808C288.568 21.52 288.592 21.28 288.616 21.088H288.508C288.22 21.088 288.076 20.98 288.076 20.764C288.124 20.644 288.208 20.548 288.328 20.476C288.472 20.38 288.604 20.32 288.724 20.296C288.844 19.24 289.072 18.16 289.408 17.056C289.744 15.952 290.2 14.956 290.776 14.068V13.852C290.776 13.612 290.92 13.468 291.208 13.42C291.328 13.3 291.448 13.168 291.568 13.024C291.712 12.856 291.868 12.772 292.036 12.772C292.228 12.772 292.372 12.856 292.468 13.024C292.588 13.168 292.6 13.324 292.504 13.492C292.96 13.588 293.368 13.78 293.728 14.068C294.112 14.332 294.304 14.728 294.304 15.256C294.304 15.952 294.04 16.672 293.512 17.416C293.008 18.136 292.396 18.796 291.676 19.396C290.98 19.972 290.344 20.404 289.768 20.692C289.696 21.268 289.648 21.856 289.624 22.456C289.624 23.032 289.624 23.608 289.624 24.184C289.624 24.472 289.636 24.832 289.66 25.264C289.708 25.696 289.816 26.08 289.984 26.416C290.176 26.752 290.488 26.92 290.92 26.92C291.376 26.92 291.82 26.716 292.252 26.308C292.708 25.9 293.14 25.384 293.548 24.76C293.98 24.112 294.376 23.44 294.736 22.744C295.096 22.048 295.408 21.388 295.672 20.764C295.936 20.14 296.128 19.66 296.248 19.324C296.296 19.204 296.356 19.096 296.428 19C296.5 18.88 296.608 18.82 296.752 18.82C296.944 18.82 297.04 18.94 297.04 19.18C297.04 19.564 296.908 20.116 296.644 20.836C296.38 21.532 296.02 22.288 295.564 23.104C295.132 23.92 294.64 24.7 294.088 25.444C293.56 26.188 293.02 26.8 292.468 27.28C291.916 27.76 291.4 28 290.92 28ZM289.948 19.576C290.404 19.288 290.86 18.928 291.316 18.496C291.772 18.064 292.156 17.572 292.468 17.02C292.78 16.468 292.936 15.916 292.936 15.364C292.936 15.076 292.792 14.872 292.504 14.752C292.216 14.608 291.964 14.524 291.748 14.5C291.292 15.244 290.908 16.06 290.596 16.948C290.308 17.836 290.092 18.712 289.948 19.576ZM308.446 27.388C307.918 27.388 307.498 27.208 307.186 26.848C306.874 26.464 306.634 25.996 306.466 25.444C306.322 24.868 306.226 24.304 306.178 23.752C306.13 23.176 306.106 22.708 306.106 22.348C306.106 21.052 306.154 19.744 306.25 18.424C306.37 17.104 306.49 15.796 306.61 14.5C306.202 14.668 305.806 14.86 305.422 15.076C305.062 15.292 304.726 15.568 304.414 15.904C304.366 15.952 304.306 16 304.234 16.048C304.186 16.096 304.114 16.12 304.018 16.12C303.85 16.12 303.682 16.036 303.514 15.868C303.37 15.7 303.298 15.532 303.298 15.364C303.298 15.148 303.442 14.932 303.73 14.716C304.018 14.476 304.366 14.26 304.774 14.068C305.206 13.852 305.602 13.672 305.962 13.528C306.346 13.384 306.61 13.288 306.754 13.24C306.778 13.048 306.826 12.688 306.898 12.16C306.994 11.608 307.102 10.996 307.222 10.324C307.342 9.628 307.474 8.968 307.618 8.344C307.786 7.696 307.954 7.168 308.122 6.76C308.29 6.328 308.458 6.112 308.626 6.112C308.794 6.112 308.962 6.172 309.13 6.292C309.298 6.412 309.382 6.556 309.382 6.724C309.382 6.796 309.322 7.096 309.202 7.624C309.082 8.152 308.926 8.776 308.734 9.496C308.566 10.192 308.41 10.852 308.266 11.476C308.146 12.1 308.062 12.532 308.014 12.772C309.07 12.46 310.078 12.208 311.038 12.016C312.022 11.824 313.054 11.728 314.134 11.728C314.23 11.728 314.41 11.728 314.674 11.728C314.938 11.728 315.19 11.74 315.43 11.764C315.694 11.788 315.826 11.836 315.826 11.908C315.586 12.004 315.322 12.076 315.034 12.124C314.77 12.172 314.506 12.208 314.242 12.232C313.09 12.328 311.998 12.544 310.966 12.88C309.958 13.216 308.926 13.588 307.87 13.996C307.702 15.364 307.558 16.756 307.438 18.172C307.318 19.564 307.258 20.944 307.258 22.312C307.258 22.576 307.27 22.936 307.294 23.392C307.318 23.824 307.366 24.268 307.438 24.724C307.51 25.156 307.63 25.528 307.798 25.84C307.966 26.152 308.206 26.308 308.518 26.308C308.926 26.308 309.346 26.08 309.778 25.624C310.21 25.144 310.642 24.568 311.074 23.896C311.506 23.2 311.902 22.504 312.262 21.808C312.622 21.112 312.934 20.524 313.198 20.044C313.486 19.564 313.678 19.312 313.774 19.288V19.396C313.774 19.756 313.654 20.26 313.414 20.908C313.174 21.556 312.85 22.252 312.442 22.996C312.058 23.716 311.626 24.412 311.146 25.084C310.69 25.756 310.222 26.308 309.742 26.74C309.286 27.172 308.854 27.388 308.446 27.388ZM314.973 27.748C314.685 27.748 314.469 27.544 314.325 27.136C314.181 26.704 314.073 26.2 314.001 25.624C313.929 25.024 313.881 24.472 313.857 23.968C313.857 23.44 313.857 23.092 313.857 22.924C313.857 21.46 313.917 19.9 314.037 18.244C314.181 16.564 314.397 14.872 314.685 13.168C314.997 11.44 315.405 9.796 315.909 8.236C316.413 6.652 317.037 5.224 317.781 3.952C317.949 3.664 318.201 3.52 318.537 3.52C318.681 3.52 318.813 3.568 318.933 3.664C319.053 3.736 319.113 3.856 319.113 4.024C319.113 4.168 319.065 4.336 318.969 4.528C318.273 6.136 317.613 7.708 316.989 9.244C316.365 10.756 315.861 12.376 315.477 14.104C314.973 16.408 314.721 18.748 314.721 21.124C314.721 22.276 314.793 23.416 314.937 24.544C315.057 24.16 315.297 23.572 315.657 22.78C316.017 21.988 316.437 21.112 316.917 20.152C317.421 19.192 317.949 18.268 318.501 17.38C319.077 16.492 319.629 15.772 320.157 15.22C320.685 14.644 321.153 14.356 321.561 14.356C321.993 14.356 322.269 14.572 322.389 15.004C322.533 15.412 322.605 15.784 322.605 16.12C322.605 17.08 322.533 18.04 322.389 19C322.245 19.96 322.173 20.932 322.173 21.916C322.173 22.012 322.185 22.276 322.209 22.708C322.233 23.116 322.281 23.512 322.353 23.896C322.449 24.28 322.569 24.472 322.713 24.472C322.929 24.472 323.145 24.34 323.361 24.076C323.577 23.788 323.769 23.476 323.937 23.14C324.129 22.78 324.297 22.468 324.441 22.204C324.585 21.916 324.693 21.772 324.765 21.772C324.837 21.772 324.885 21.832 324.909 21.952C324.933 22.048 324.945 22.12 324.945 22.168C324.945 22.48 324.825 22.912 324.585 23.464C324.369 23.992 324.081 24.484 323.721 24.94C323.361 25.372 323.001 25.588 322.641 25.588C322.305 25.588 322.029 25.444 321.813 25.156C321.621 24.868 321.477 24.52 321.381 24.112C321.285 23.704 321.213 23.308 321.165 22.924C321.141 22.54 321.129 22.24 321.129 22.024C321.129 21.16 321.165 20.296 321.237 19.432C321.333 18.568 321.381 17.704 321.381 16.84V16.552C321.381 16.408 321.369 16.276 321.345 16.156C321.321 16.012 321.261 15.94 321.165 15.94C321.021 15.94 320.817 16.108 320.553 16.444C320.289 16.756 320.109 16.972 320.013 17.092C319.365 17.908 318.741 18.88 318.141 20.008C317.565 21.136 317.061 22.3 316.629 23.5C316.197 24.676 315.885 25.78 315.693 26.812C315.669 27.004 315.597 27.208 315.477 27.424C315.381 27.64 315.213 27.748 314.973 27.748ZM328.362 28C327.714 28 327.21 27.712 326.85 27.136C326.514 26.56 326.286 25.864 326.166 25.048C326.046 24.208 325.986 23.428 325.986 22.708C325.986 22.372 325.986 22.072 325.986 21.808C326.01 21.52 326.034 21.28 326.058 21.088H325.95C325.662 21.088 325.518 20.98 325.518 20.764C325.566 20.644 325.65 20.548 325.77 20.476C325.914 20.38 326.046 20.32 326.166 20.296C326.286 19.24 326.514 18.16 326.85 17.056C327.186 15.952 327.642 14.956 328.218 14.068V13.852C328.218 13.612 328.362 13.468 328.65 13.42C328.77 13.3 328.89 13.168 329.01 13.024C329.154 12.856 329.31 12.772 329.478 12.772C329.67 12.772 329.814 12.856 329.91 13.024C330.03 13.168 330.042 13.324 329.946 13.492C330.402 13.588 330.81 13.78 331.17 14.068C331.554 14.332 331.746 14.728 331.746 15.256C331.746 15.952 331.482 16.672 330.954 17.416C330.45 18.136 329.838 18.796 329.118 19.396C328.422 19.972 327.786 20.404 327.21 20.692C327.138 21.268 327.09 21.856 327.066 22.456C327.066 23.032 327.066 23.608 327.066 24.184C327.066 24.472 327.078 24.832 327.102 25.264C327.15 25.696 327.258 26.08 327.426 26.416C327.618 26.752 327.93 26.92 328.362 26.92C328.818 26.92 329.262 26.716 329.694 26.308C330.15 25.9 330.582 25.384 330.99 24.76C331.422 24.112 331.818 23.44 332.178 22.744C332.538 22.048 332.85 21.388 333.114 20.764C333.378 20.14 333.57 19.66 333.69 19.324C333.738 19.204 333.798 19.096 333.87 19C333.942 18.88 334.05 18.82 334.194 18.82C334.386 18.82 334.482 18.94 334.482 19.18C334.482 19.564 334.35 20.116 334.086 20.836C333.822 21.532 333.462 22.288 333.006 23.104C332.574 23.92 332.082 24.7 331.53 25.444C331.002 26.188 330.462 26.8 329.91 27.28C329.358 27.76 328.842 28 328.362 28ZM327.39 19.576C327.846 19.288 328.302 18.928 328.758 18.496C329.214 18.064 329.598 17.572 329.91 17.02C330.222 16.468 330.378 15.916 330.378 15.364C330.378 15.076 330.234 14.872 329.946 14.752C329.658 14.608 329.406 14.524 329.19 14.5C328.734 15.244 328.35 16.06 328.038 16.948C327.75 17.836 327.534 18.712 327.39 19.576ZM356.615 31.528C356.303 31.528 356.111 31.396 356.039 31.132C355.967 30.892 355.931 30.664 355.931 30.448C355.931 29.728 356.111 28.876 356.471 27.892C356.831 26.884 357.251 25.9 357.731 24.94C358.235 23.98 358.655 23.164 358.991 22.492C359.111 21.412 359.195 20.344 359.243 19.288C359.315 18.208 359.351 17.116 359.351 16.012C359.351 15.292 359.327 14.368 359.279 13.24C359.255 12.112 359.171 10.912 359.027 9.64C358.883 8.368 358.643 7.18 358.307 6.076C357.995 4.948 357.539 4.036 356.939 3.34C356.363 2.62 355.619 2.26 354.707 2.26C353.843 2.26 353.027 2.524 352.259 3.052C351.491 3.58 350.795 4.12 350.171 4.672C349.139 5.632 348.191 6.748 347.327 8.02C346.487 9.292 345.815 10.648 345.311 12.088C344.831 13.504 344.591 14.932 344.591 16.372C344.591 17.044 344.735 17.632 345.023 18.136C345.311 18.64 345.827 18.892 346.571 18.892C347.459 18.892 348.323 18.676 349.163 18.244C350.003 17.788 350.783 17.236 351.503 16.588C352.247 15.916 352.907 15.256 353.483 14.608C354.083 13.936 354.575 13.372 354.959 12.916C355.343 12.46 355.595 12.22 355.715 12.196L355.931 12.484C355.811 13.012 355.475 13.612 354.923 14.284C354.395 14.956 353.735 15.64 352.943 16.336C352.151 17.032 351.311 17.68 350.423 18.28C349.559 18.88 348.731 19.36 347.939 19.72C347.147 20.08 346.475 20.26 345.923 20.26C345.299 20.26 344.795 20.092 344.411 19.756C344.051 19.42 343.799 19 343.655 18.496C343.511 17.992 343.451 17.476 343.475 16.948L343.511 15.904C343.607 13.504 344.219 11.32 345.347 9.352C346.475 7.384 347.903 5.62 349.631 4.06C350.135 3.604 350.687 3.148 351.287 2.692C351.911 2.212 352.571 1.816 353.267 1.504C353.963 1.192 354.659 1.036 355.355 1.036C356.363 1.036 357.191 1.396 357.839 2.116C358.487 2.812 358.979 3.724 359.315 4.852C359.675 5.98 359.927 7.168 360.071 8.416C360.239 9.664 360.335 10.852 360.359 11.98C360.407 13.108 360.431 14.02 360.431 14.716C360.431 15.628 360.419 16.54 360.395 17.452C360.371 18.364 360.323 19.276 360.251 20.188C360.443 19.804 360.767 19.276 361.223 18.604C361.703 17.932 362.255 17.212 362.879 16.444C363.503 15.652 364.151 14.908 364.823 14.212C365.495 13.516 366.131 12.952 366.731 12.52C367.331 12.064 367.847 11.836 368.279 11.836C368.471 11.836 368.687 11.884 368.927 11.98C369.191 12.076 369.323 12.256 369.323 12.52C369.323 12.592 369.251 12.844 369.107 13.276C368.963 13.708 368.783 14.212 368.567 14.788C368.375 15.34 368.195 15.856 368.027 16.336C367.859 16.792 367.739 17.104 367.667 17.272C367.283 18.448 366.959 19.636 366.695 20.836C366.431 22.036 366.299 23.26 366.299 24.508C366.299 24.772 366.323 25.156 366.371 25.66C366.419 26.164 366.527 26.632 366.695 27.064C366.863 27.472 367.139 27.676 367.523 27.676C368.003 27.676 368.519 27.448 369.071 26.992C369.623 26.512 370.175 25.912 370.727 25.192C371.303 24.448 371.831 23.68 372.311 22.888C372.815 22.072 373.259 21.316 373.643 20.62C374.027 19.9 374.315 19.336 374.507 18.928C374.891 18.112 375.263 17.176 375.623 16.12C376.007 15.04 376.319 13.96 376.559 12.88C376.823 11.776 376.955 10.792 376.955 9.928C376.955 9.064 376.787 8.368 376.451 7.84C376.139 7.288 375.491 7.012 374.507 7.012C374.267 7.012 374.015 7.06 373.751 7.156C373.511 7.252 373.259 7.324 372.995 7.372L372.779 7.228C372.923 7.036 373.199 6.796 373.607 6.508C374.039 6.22 374.375 6.076 374.615 6.076C375.887 6.076 376.763 6.484 377.243 7.3C377.723 8.116 377.963 9.088 377.963 10.216C377.963 11.152 377.843 12.16 377.603 13.24C377.387 14.296 377.099 15.352 376.739 16.408C376.403 17.44 376.031 18.388 375.623 19.252C375.407 19.732 375.083 20.368 374.651 21.16C374.243 21.928 373.763 22.744 373.211 23.608C372.659 24.448 372.071 25.252 371.447 26.02C370.823 26.764 370.187 27.376 369.539 27.856C368.915 28.336 368.303 28.576 367.703 28.576C367.079 28.576 366.587 28.348 366.227 27.892C365.891 27.412 365.651 26.86 365.507 26.236C365.363 25.612 365.291 25.06 365.291 24.58C365.291 23.212 365.423 21.892 365.687 20.62C365.951 19.348 366.275 18.088 366.659 16.84C367.043 15.592 367.391 14.332 367.703 13.06L367.595 12.916C367.211 13.084 366.719 13.456 366.119 14.032C365.519 14.584 364.895 15.256 364.247 16.048C363.599 16.84 362.975 17.656 362.375 18.496C361.775 19.336 361.259 20.116 360.827 20.836C360.419 21.556 360.155 22.132 360.035 22.564C359.939 22.948 359.843 23.5 359.747 24.22C359.651 24.94 359.531 25.72 359.387 26.56C359.267 27.4 359.099 28.192 358.883 28.936C358.667 29.704 358.367 30.328 357.983 30.808C357.623 31.288 357.167 31.528 356.615 31.528ZM381.065 28.576C380.609 28.576 380.225 28.408 379.913 28.072C379.625 27.736 379.397 27.328 379.229 26.848C379.061 26.344 378.941 25.84 378.869 25.336C378.821 24.832 378.797 24.412 378.797 24.076C378.797 23.716 378.833 23.14 378.905 22.348C379.001 21.532 379.145 20.632 379.337 19.648C379.529 18.664 379.769 17.716 380.057 16.804C380.345 15.868 380.681 15.088 381.065 14.464C381.473 13.84 381.941 13.504 382.469 13.456C382.541 13.24 382.649 13.06 382.793 12.916C382.937 12.748 383.129 12.664 383.369 12.664C383.849 12.664 384.269 12.868 384.629 13.276C384.989 13.684 385.289 14.188 385.529 14.788C385.769 15.388 385.949 15.976 386.069 16.552C386.213 17.128 386.285 17.596 386.285 17.956C386.285 19.06 386.177 20.152 385.961 21.232L386.249 21.268C386.945 21.268 387.485 21.16 387.869 20.944C388.253 20.728 388.553 20.524 388.769 20.332C388.985 20.116 389.165 20.008 389.309 20.008C389.453 20.008 389.525 20.092 389.525 20.26C389.525 20.548 389.369 20.812 389.057 21.052C388.769 21.268 388.409 21.472 387.977 21.664C387.545 21.832 387.125 21.952 386.717 22.024C386.309 22.096 385.997 22.108 385.781 22.06C385.661 22.564 385.457 23.188 385.169 23.932C384.905 24.652 384.569 25.372 384.161 26.092C383.777 26.788 383.321 27.376 382.793 27.856C382.265 28.336 381.689 28.576 381.065 28.576ZM384.989 20.512C385.133 19.672 385.205 18.82 385.205 17.956C385.205 17.764 385.157 17.44 385.061 16.984C384.989 16.504 384.869 16 384.701 15.472C384.557 14.944 384.377 14.488 384.161 14.104C383.945 13.72 383.717 13.528 383.477 13.528C383.357 13.528 383.261 13.624 383.189 13.816C383.141 13.984 383.105 14.176 383.081 14.392C383.081 14.608 383.081 14.752 383.081 14.824C383.081 15.784 383.225 16.792 383.513 17.848C383.825 18.88 384.317 19.768 384.989 20.512ZM381.173 27.64C381.533 27.64 381.905 27.4 382.289 26.92C382.673 26.416 383.033 25.816 383.369 25.12C383.729 24.4 384.029 23.716 384.269 23.068C384.509 22.42 384.665 21.94 384.737 21.628C383.825 21.004 383.141 20.164 382.685 19.108C382.253 18.052 382.037 16.972 382.037 15.868C382.037 15.388 382.073 14.932 382.145 14.5C381.641 15.364 381.221 16.384 380.885 17.56C380.549 18.736 380.297 19.936 380.129 21.16C379.985 22.384 379.913 23.5 379.913 24.508C379.913 24.748 379.937 25.12 379.985 25.624C380.057 26.128 380.189 26.596 380.381 27.028C380.573 27.436 380.837 27.64 381.173 27.64ZM390.456 27.892C390.288 27.892 390.156 27.832 390.06 27.712C389.964 27.592 389.916 27.448 389.916 27.28C389.916 26.368 389.952 25.456 390.024 24.544C390.12 23.608 390.168 22.684 390.168 21.772C390.168 21.172 390.144 20.416 390.096 19.504C390.072 18.568 389.988 17.656 389.844 16.768C389.724 15.856 389.508 15.16 389.196 14.68C389.172 14.632 389.148 14.596 389.124 14.572C389.1 14.524 389.088 14.476 389.088 14.428C389.088 14.284 389.16 14.188 389.304 14.14C389.448 14.068 389.568 14.032 389.664 14.032C390 14.032 390.264 14.224 390.456 14.608C390.648 14.992 390.792 15.484 390.888 16.084C390.984 16.684 391.044 17.308 391.068 17.956C391.116 18.58 391.14 19.156 391.14 19.684C391.14 20.188 391.14 20.536 391.14 20.728C391.14 20.968 391.14 21.196 391.14 21.412C391.164 21.628 391.176 21.856 391.176 22.096C391.272 21.76 391.44 21.244 391.68 20.548C391.92 19.852 392.208 19.084 392.544 18.244C392.88 17.38 393.24 16.564 393.624 15.796C394.032 15.004 394.428 14.356 394.812 13.852C395.22 13.348 395.604 13.096 395.964 13.096C396.324 13.096 396.588 13.324 396.756 13.78C396.924 14.236 397.032 14.728 397.08 15.256C397.152 15.784 397.188 16.18 397.188 16.444C397.188 16.612 397.176 16.9 397.152 17.308C397.128 17.692 397.068 18.052 396.972 18.388C396.9 18.724 396.756 18.892 396.54 18.892C396.348 18.892 396.252 18.676 396.252 18.244C396.252 18.052 396.264 17.872 396.288 17.704C396.312 17.536 396.324 17.404 396.324 17.308C396.324 17.188 396.312 16.912 396.288 16.48C396.264 16.024 396.204 15.592 396.108 15.184C396.036 14.776 395.928 14.572 395.784 14.572C395.64 14.572 395.46 14.716 395.244 15.004C395.052 15.268 394.848 15.592 394.632 15.976C394.44 16.336 394.26 16.696 394.092 17.056C393.948 17.392 393.852 17.632 393.804 17.776C393.444 18.664 393.06 19.672 392.652 20.8C392.268 21.928 391.932 23.068 391.644 24.22C391.38 25.348 391.248 26.404 391.248 27.388C391.08 27.724 390.816 27.892 390.456 27.892ZM401.076 28.468C400.428 28.468 399.912 28.216 399.528 27.712C399.144 27.184 398.868 26.548 398.7 25.804C398.532 25.036 398.424 24.28 398.376 23.536C398.328 22.792 398.304 22.204 398.304 21.772C398.304 19.348 398.58 16.9 399.132 14.428C399.396 13.276 399.648 12.268 399.888 11.404C400.152 10.54 400.428 9.736 400.716 8.992C401.004 8.248 401.328 7.48 401.688 6.688C402.072 5.896 402.504 4.996 402.984 3.988H402.876C402.732 3.988 402.612 3.928 402.516 3.808C402.444 3.664 402.408 3.532 402.408 3.412C402.408 3.124 402.588 2.884 402.948 2.692C403.308 2.5 403.608 2.404 403.848 2.404C404.352 2.404 404.736 2.632 405 3.088C405.264 3.52 405.444 4.024 405.54 4.6C405.636 5.152 405.684 5.62 405.684 6.004C405.684 6.484 405.648 6.976 405.576 7.48C405.408 8.68 405.108 9.964 404.676 11.332C404.268 12.7 403.74 14.008 403.092 15.256C402.468 16.48 401.7 17.536 400.788 18.424C400.62 18.568 400.404 18.748 400.14 18.964C399.9 19.156 399.648 19.252 399.384 19.252C399.312 20.068 399.276 20.908 399.276 21.772C399.276 22.084 399.288 22.552 399.312 23.176C399.36 23.776 399.444 24.412 399.564 25.084C399.708 25.732 399.912 26.296 400.176 26.776C400.464 27.232 400.836 27.46 401.292 27.46C401.796 27.46 402.276 27.196 402.732 26.668C403.212 26.116 403.656 25.444 404.064 24.652C404.472 23.836 404.844 23.032 405.18 22.24C405.516 21.424 405.792 20.752 406.008 20.224C406.248 19.672 406.416 19.384 406.512 19.36C406.584 19.456 406.62 19.6 406.62 19.792C406.62 20.2 406.512 20.752 406.296 21.448C406.08 22.144 405.78 22.9 405.396 23.716C405.036 24.508 404.616 25.276 404.136 26.02C403.656 26.74 403.152 27.328 402.624 27.784C402.12 28.24 401.604 28.468 401.076 28.468ZM399.456 18.532C400.008 18.388 400.536 17.932 401.04 17.164C401.568 16.396 402.048 15.46 402.48 14.356C402.912 13.252 403.284 12.124 403.596 10.972C403.932 9.796 404.184 8.728 404.352 7.768C404.544 6.784 404.64 6.052 404.64 5.572C404.64 5.332 404.616 5.032 404.568 4.672C404.52 4.288 404.34 4.048 404.028 3.952C404.004 4.048 403.944 4.12 403.848 4.168C403.776 4.216 403.716 4.264 403.668 4.312C403.38 4.624 403.056 5.224 402.696 6.112C402.336 7 401.976 8.044 401.616 9.244C401.28 10.444 400.956 11.656 400.644 12.88C400.332 14.104 400.068 15.232 399.852 16.264C399.636 17.272 399.504 18.028 399.456 18.532ZM414.681 27.892C414.225 27.892 413.841 27.676 413.529 27.244C413.241 26.788 413.013 26.224 412.845 25.552C412.701 24.88 412.593 24.184 412.521 23.464C412.473 22.72 412.449 22.06 412.449 21.484C412.449 21.22 412.449 20.992 412.449 20.8C412.449 20.584 412.461 20.404 412.485 20.26C412.269 20.716 411.969 21.352 411.585 22.168C411.225 22.984 410.805 23.8 410.325 24.616C409.845 25.432 409.329 26.128 408.777 26.704C408.225 27.28 407.661 27.568 407.085 27.568C406.341 27.568 405.837 27.28 405.573 26.704C405.333 26.104 405.213 25.504 405.213 24.904C405.213 24.088 405.333 23.152 405.573 22.096C405.837 21.04 406.161 20.152 406.545 19.432C406.689 19.144 406.905 18.76 407.193 18.28C407.481 17.8 407.805 17.32 408.165 16.84C408.549 16.336 408.933 15.916 409.317 15.58C409.725 15.244 410.109 15.076 410.469 15.076C410.997 15.076 411.357 15.268 411.549 15.652C411.765 16.012 411.873 16.42 411.873 16.876C411.873 17.188 411.693 17.344 411.333 17.344C411.165 17.344 411.069 17.248 411.045 17.056C411.045 16.84 411.021 16.636 410.973 16.444C410.925 16.252 410.757 16.156 410.469 16.156C410.037 16.156 409.617 16.396 409.209 16.876C408.801 17.356 408.417 17.98 408.057 18.748C407.721 19.492 407.421 20.272 407.157 21.088C406.893 21.904 406.689 22.66 406.545 23.356C406.401 24.052 406.329 24.58 406.329 24.94C406.329 25.204 406.365 25.552 406.437 25.984C406.533 26.392 406.773 26.596 407.157 26.596C407.373 26.596 407.625 26.464 407.913 26.2C408.225 25.936 408.525 25.612 408.813 25.228C409.125 24.82 409.401 24.436 409.641 24.076C409.881 23.716 410.049 23.452 410.145 23.284C410.817 21.964 411.345 20.752 411.729 19.648C412.113 18.52 412.425 17.428 412.665 16.372C412.905 15.316 413.133 14.212 413.349 13.06C413.565 11.908 413.829 10.648 414.141 9.28C414.189 9.064 414.285 8.704 414.429 8.2C414.597 7.696 414.801 7.24 415.041 6.832C415.305 6.4 415.593 6.184 415.905 6.184C416.145 6.184 416.289 6.304 416.337 6.544C416.409 6.784 416.445 6.988 416.445 7.156C416.445 7.54 416.361 8.104 416.193 8.848C416.049 9.568 415.869 10.348 415.653 11.188C415.437 12.028 415.209 12.82 414.969 13.564C414.753 14.284 414.573 14.836 414.429 15.22C414.333 15.46 414.225 15.724 414.105 16.012C413.985 16.3 413.901 16.576 413.853 16.84C413.685 17.584 413.577 18.412 413.529 19.324C413.505 20.236 413.493 21.088 413.493 21.88C413.493 22.072 413.493 22.444 413.493 22.996C413.517 23.524 413.565 24.1 413.637 24.724C413.733 25.324 413.853 25.84 413.997 26.272C414.165 26.704 414.393 26.92 414.681 26.92C415.017 26.92 415.341 26.692 415.653 26.236C415.989 25.756 416.301 25.216 416.589 24.616C416.901 23.992 417.177 23.452 417.417 22.996C417.657 22.516 417.849 22.276 417.993 22.276C418.233 22.276 418.353 22.42 418.353 22.708C418.353 22.924 418.209 23.32 417.921 23.896C417.657 24.448 417.309 25.036 416.877 25.66C416.469 26.26 416.061 26.788 415.653 27.244C415.269 27.676 414.945 27.892 414.681 27.892ZM419.281 29.296C419.137 29.296 418.969 29.236 418.777 29.116C418.585 28.996 418.489 28.852 418.489 28.684C418.489 28.492 418.561 28.228 418.705 27.892C418.873 27.532 419.077 27.16 419.317 26.776C419.581 26.368 419.833 26.032 420.073 25.768C420.337 25.504 420.577 25.372 420.793 25.372C420.913 25.372 420.985 25.42 421.009 25.516C421.057 25.588 421.081 25.672 421.081 25.768C421.081 25.888 421.033 26.044 420.937 26.236C420.697 26.668 420.493 27.088 420.325 27.496C420.157 27.904 420.001 28.348 419.857 28.828C419.785 29.14 419.593 29.296 419.281 29.296ZM428.426 12.232C428.282 12.232 428.21 12.172 428.21 12.052C428.21 11.884 428.318 11.656 428.534 11.368C428.75 11.056 428.966 10.732 429.182 10.396C429.422 10.06 429.578 9.796 429.65 9.604C429.842 9.1 429.95 8.608 429.974 8.128C430.022 7.648 430.046 7.18 430.046 6.724V5.464C430.046 5.272 430.106 5.128 430.226 5.032C430.346 4.912 430.49 4.852 430.658 4.852C430.826 4.852 430.982 4.912 431.126 5.032C431.27 5.128 431.342 5.272 431.342 5.464C431.342 6.616 431.138 7.804 430.73 9.028C430.346 10.252 429.698 11.26 428.786 12.052C428.738 12.076 428.678 12.112 428.606 12.16C428.558 12.208 428.498 12.232 428.426 12.232ZM424.862 12.232C424.718 12.232 424.646 12.172 424.646 12.052C424.646 11.908 424.742 11.692 424.934 11.404C425.15 11.092 425.366 10.768 425.582 10.432C425.822 10.096 425.978 9.82 426.05 9.604C426.314 8.884 426.446 8.2 426.446 7.552C426.47 6.904 426.482 6.208 426.482 5.464C426.482 5.272 426.542 5.128 426.662 5.032C426.782 4.912 426.926 4.852 427.094 4.852C427.262 4.852 427.418 4.912 427.562 5.032C427.706 5.128 427.778 5.272 427.778 5.464C427.778 6.592 427.574 7.78 427.166 9.028C426.782 10.276 426.134 11.284 425.222 12.052C425.174 12.076 425.114 12.112 425.042 12.16C424.994 12.208 424.934 12.232 424.862 12.232Z" fill="black"/>
</svg>
