<svg width="331" height="256" viewBox="0 0 331 256" fill="none" xmlns="http://www.w3.org/2000/svg">
<path d="M272.674 255.332L58.6364 255.332C42.7953 255.332 29.9526 240.86 29.9526 223.006L29.9526 33.0916C29.9526 15.239 42.7947 0.765503 58.6364 0.765503L272.674 0.765503C288.515 0.765503 301.358 15.2383 301.358 33.0916V223.006C301.358 240.86 288.515 255.332 272.674 255.332Z" fill="#B2D1D8"/>
<path d="M327.381 137.692L301.358 125.09V43.4009L186.166 122.41C175.279 129.877 161.609 129.932 150.674 122.553L29.9529 41.076L29.9529 151.805L28.4563 152.3C8.52482 158.355 -3.33858 181.516 2.0062 203.971C5.90268 220.338 17.8859 231.88 31.8225 234.624C35.922 246.729 46.3261 255.333 58.5213 255.333L272.788 255.333C288.566 255.333 301.357 240.936 301.357 223.177V175.69L301.881 177.891C302.075 178.704 302.624 179.374 303.408 179.753C305.04 180.543 307.224 179.884 308.286 178.281L329.443 146.358C331.568 143.153 330.644 139.273 327.381 137.692ZM12.3556 200.849C8.65496 185.303 16.502 169.282 29.9529 164.375L29.9529 221.703C21.6258 218.641 14.7864 211.062 12.3556 200.849Z" fill="#84A7B7"/>
<path d="M268.073 186.857C268.839 190.074 267.142 193.38 264.285 194.241L195.297 215.048C194.833 215.188 194.366 215.255 193.907 215.255C191.542 215.255 189.378 213.479 188.737 210.784C187.971 207.568 189.667 204.262 192.525 203.4L261.513 182.594C264.369 181.733 267.307 183.641 268.073 186.857ZM171.827 209.642L171.137 209.85C168.279 210.712 166.583 214.017 167.348 217.234C167.989 219.928 170.154 221.704 172.519 221.704C172.978 221.704 173.445 221.638 173.909 221.497L174.599 221.29C177.456 220.427 179.153 217.122 178.387 213.906C177.622 210.69 174.684 208.782 171.827 209.642ZM214.604 155.076C215.062 155.076 215.529 155.009 215.993 154.869L264.286 140.305C267.143 139.442 268.839 136.137 268.074 132.92C267.308 129.704 264.369 127.797 261.513 128.657L213.221 143.221C210.364 144.084 208.667 147.389 209.433 150.605C210.074 153.299 212.238 155.076 214.604 155.076ZM166.311 169.641C166.77 169.641 167.237 169.574 167.701 169.434L168.391 169.226C171.248 168.364 172.944 165.058 172.179 161.842C171.413 158.625 168.475 156.718 165.619 157.579L164.929 157.786C162.071 158.649 160.375 161.954 161.14 165.17C161.782 167.864 163.946 169.641 166.311 169.641ZM193.216 161.526C193.675 161.526 194.141 161.459 194.606 161.319L195.296 161.112C198.153 160.25 199.849 156.945 199.084 153.727C198.319 150.511 195.381 148.602 192.524 149.464L191.834 149.672C188.977 150.533 187.28 153.839 188.046 157.056C188.686 159.749 190.851 161.526 193.216 161.526ZM327.381 137.692L294.877 121.952C293.245 121.162 291.061 121.821 289.999 123.423C289.489 124.193 289.311 125.082 289.504 125.895L294.344 146.226L48.6081 221.125L45.1587 222.165C30.8903 226.47 16.1773 216.904 12.3556 200.848C8.65496 185.301 16.502 169.281 29.9529 164.374V151.805L28.4563 152.299C8.52482 158.354 -3.33858 181.516 2.0062 203.97C6.49025 222.804 21.6793 235.256 38.2342 235.256C41.4368 235.256 44.6923 234.79 47.9297 233.813L51.3932 232.769L297.115 157.873L301.881 177.891C302.075 178.704 302.623 179.374 303.407 179.753C305.039 180.543 307.224 179.884 308.285 178.281L329.442 146.359C331.568 143.153 330.644 139.273 327.381 137.692Z" fill="#256277"/>
</svg>
