<svg width="331" height="323" viewBox="0 0 331 323" fill="none" xmlns="http://www.w3.org/2000/svg">
<path d="M110.833 212.113C110.833 215.014 108.425 217.367 105.455 217.367H31.9533V276.921H39.6226C43.3187 276.921 46.8086 278.501 49.1976 281.257C51.5871 284.013 52.6089 287.636 52.0014 291.198L47.4168 318.072C46.9781 320.642 44.6993 322.464 42.1184 322.464C41.8247 322.464 41.527 322.44 41.2281 322.391C38.298 321.914 36.3188 319.207 36.8072 316.344L41.3917 289.47C41.5109 288.774 41.1913 288.281 40.991 288.05C40.79 287.819 40.3461 287.431 39.6226 287.431H13.5281C12.8053 287.431 12.3607 287.819 12.1597 288.05C11.9587 288.281 11.6405 288.774 11.759 289.47L16.3435 316.344C16.8319 319.206 14.8527 321.914 11.9226 322.391C8.99448 322.868 6.22159 320.935 5.73324 318.072L1.14869 291.198C0.54115 287.636 1.56295 284.013 3.9525 281.257C6.34206 278.501 9.83137 276.921 13.5275 276.921H21.1968V212.113C21.1968 209.211 23.605 206.858 26.575 206.858H105.455C108.426 206.858 110.833 209.21 110.833 212.113Z" fill="#144856"/>
<path d="M221.482 317.208C221.482 320.109 219.074 322.462 216.104 322.462H115.711C112.741 322.462 110.333 320.109 110.333 317.208C110.333 314.306 112.741 311.953 115.711 311.953H216.104C219.074 311.953 221.482 314.306 221.482 317.208Z" fill="#84A7B7"/>
<path d="M247.503 192.741L228.706 266.203C225.514 278.679 214.041 287.431 200.879 287.431H130.936C117.774 287.431 106.301 278.679 103.108 266.203L84.3114 192.741C82.0488 183.897 88.8953 175.33 98.2255 175.33H233.59C242.92 175.33 249.766 183.897 247.503 192.741ZM165.908 0.171875C110.463 0.171875 65.5151 44.0878 65.5151 98.2603V112.273C65.5151 127.75 78.3572 140.298 94.1989 140.298H237.617C253.458 140.298 266.301 127.751 266.301 112.273V98.2603C266.3 44.0878 221.353 0.171875 165.908 0.171875Z" fill="#256277"/>
<path d="M223.275 175.33L210.459 225.42C205.348 245.394 186.98 259.406 165.908 259.406C144.836 259.406 126.469 245.393 121.358 225.42L117.451 210.153C112.926 192.465 126.617 175.33 145.278 175.33H223.275Z" fill="#84A7B7"/>
<path d="M321.171 219.965C320.215 221.608 318.43 222.623 316.496 222.623H180.249C177.279 222.623 174.871 220.27 174.871 217.368C174.871 214.466 177.279 212.113 180.249 212.113H307.036L224.373 76.4258C222.853 73.9324 223.691 70.707 226.244 69.2227C228.796 67.7371 232.097 68.5573 233.616 71.0507L321.118 214.68C322.107 216.304 322.128 218.322 321.171 219.965Z" fill="#144856"/>
<path d="M128.26 244.692V245.393C128.26 248.295 125.852 250.648 122.882 250.648C119.912 250.648 117.504 248.295 117.504 245.393V244.692C117.504 241.79 119.912 239.437 122.882 239.437C125.853 239.437 128.26 241.79 128.26 244.692Z" fill="#FC8059"/>
<path d="M149.773 244.692V245.393C149.773 248.295 147.365 250.648 144.395 250.648C141.425 250.648 139.017 248.295 139.017 245.393V244.692C139.017 241.79 141.425 239.437 144.395 239.437C147.365 239.437 149.773 241.79 149.773 244.692Z" fill="#FFD880"/>
<path d="M207.14 244.692V245.393C207.14 248.295 204.732 250.648 201.762 250.648C198.792 250.648 196.384 248.295 196.384 245.393V244.692C196.384 241.79 198.792 239.437 201.762 239.437C204.733 239.437 207.14 241.79 207.14 244.692Z" fill="#B5E5BC"/>
<path d="M137.224 224.374H115.712C111.751 224.374 108.541 221.237 108.541 217.368V203.355C108.541 199.486 111.751 196.349 115.712 196.349H137.224C141.184 196.349 144.395 199.486 144.395 203.355V217.368C144.395 221.237 141.184 224.374 137.224 224.374Z" fill="#CFDFE2"/>
<path d="M330.838 210.361C330.838 221.97 321.207 231.38 309.326 231.38C297.444 231.38 287.813 221.97 287.813 210.361C287.813 198.753 297.444 189.343 309.326 189.343C321.207 189.343 330.838 198.753 330.838 210.361ZM29.6609 189.343C17.7795 189.343 8.14844 198.753 8.14844 210.361C8.14844 221.97 17.7795 231.38 29.6609 231.38C41.5423 231.38 51.1734 221.97 51.1734 210.361C51.1734 198.753 41.5423 189.343 29.6609 189.343Z" fill="#256277"/>
<path d="M44.0026 210.361C44.0026 218.1 37.5819 224.374 29.6607 224.374C21.7395 224.374 15.3188 218.1 15.3188 210.361C15.3188 202.622 21.7395 196.349 29.6607 196.349C37.5819 196.349 44.0026 202.622 44.0026 210.361ZM309.325 196.349C301.404 196.349 294.984 202.622 294.984 210.361C294.984 218.1 301.404 224.374 309.325 224.374C317.247 224.374 323.667 218.1 323.667 210.361C323.667 202.622 317.247 196.349 309.325 196.349Z" fill="#84A7B7"/>
<path d="M101.37 73.7385C101.37 54.391 117.423 38.707 137.224 38.707C157.025 38.707 173.078 54.3916 173.078 73.7385C173.078 93.0854 157.025 108.77 137.224 108.77C117.423 108.77 101.37 93.0854 101.37 73.7385Z" fill="#144856"/>
<path d="M115.711 73.7385C115.711 62.1297 125.342 52.7197 137.223 52.7197C149.105 52.7197 158.736 62.1297 158.736 73.7385C158.736 85.3472 149.105 94.7572 137.223 94.7572C125.342 94.7572 115.711 85.3472 115.711 73.7385Z" fill="#CFDFE2"/>
<path d="M137.225 73.7385C137.225 67.9347 142.04 63.2288 147.981 63.2288C153.922 63.2288 158.738 67.9341 158.738 73.7385C158.738 79.5428 153.922 84.2481 147.981 84.2481C142.04 84.2481 137.225 79.5422 137.225 73.7385Z" fill="white"/>
<path d="M280.101 21.7192C309.505 50.4484 309.505 97.0282 280.101 125.757C250.697 154.487 203.023 154.487 173.619 125.757C144.215 97.0282 144.215 50.4484 173.619 21.7192C203.023 -7.00994 250.697 -7.01057 280.101 21.7192Z" fill="#84A7B7"/>
<path d="M277.056 73.7385C277.056 100.825 254.583 122.783 226.86 122.783C199.138 122.783 176.664 100.825 176.664 73.7385C176.664 46.6523 199.138 24.6943 226.86 24.6943C254.583 24.6943 277.056 46.6516 277.056 73.7385Z" fill="#C3E4ED"/>
<path d="M274.145 57.264L209.999 119.938C200.617 116.669 192.52 110.757 186.659 103.11L256.922 34.4594C264.749 40.1857 270.8 48.0976 274.145 57.264ZM243.722 27.5389L179.576 90.2131C180.415 92.5145 181.424 94.7378 182.591 96.8654L250.531 30.4855C248.352 29.3449 246.077 28.3591 243.722 27.5389Z" fill="#DCF3F9"/>
<path d="M227.084 37.0647C235.005 37.0647 241.426 43.338 241.426 51.0774C241.426 58.8168 235.005 65.0901 227.084 65.0901C219.163 65.0901 212.742 58.8168 212.742 51.0774C212.742 43.338 219.164 37.0647 227.084 37.0647Z" fill="white"/>
</svg>
