<svg width="310" height="455" viewBox="0 0 310 455" fill="none" xmlns="http://www.w3.org/2000/svg">
<path d="M256.231 38.0591C256.201 38.0524 256.175 38.0353 256.156 38.0107C256.136 37.9861 256.126 37.9554 256.126 37.9238C256.126 37.8921 256.136 37.8614 256.156 37.8368C256.175 37.8122 256.201 37.7951 256.231 37.7884C257.539 37.4274 258.805 36.9196 260.008 36.274C261.889 35.2791 263.399 33.6622 264.301 31.6775C264.918 30.3074 265.339 28.8507 265.551 27.3537C265.555 27.3206 265.571 27.2905 265.596 27.2687C265.62 27.247 265.651 27.235 265.683 27.235C265.715 27.235 265.746 27.247 265.771 27.2687C265.795 27.2905 265.811 27.3206 265.816 27.3537C266.027 28.8507 266.448 30.3074 267.065 31.6775C267.967 33.6625 269.478 35.2794 271.359 36.274C272.562 36.9197 273.828 37.4275 275.135 37.7884C275.165 37.7951 275.192 37.8122 275.211 37.8368C275.23 37.8614 275.24 37.8921 275.24 37.9238C275.24 37.9554 275.23 37.9861 275.211 38.0107C275.192 38.0353 275.165 38.0524 275.135 38.0591C273.828 38.42 272.562 38.9278 271.359 39.5735C269.478 40.5683 267.968 42.1852 267.065 44.1701C266.448 45.5401 266.027 46.9968 265.816 48.4939C265.811 48.5269 265.795 48.557 265.771 48.5788C265.746 48.6006 265.715 48.6125 265.683 48.6125C265.651 48.6125 265.62 48.6006 265.596 48.5788C265.571 48.557 265.555 48.5269 265.551 48.4939C265.339 46.9968 264.918 45.5401 264.301 44.1701C263.399 42.1855 261.889 40.5687 260.008 39.5735C258.805 38.9279 257.539 38.4201 256.231 38.0591Z" fill="white"/>
<path d="M2.61571 132.519C2.58598 132.512 2.55935 132.495 2.54026 132.47C2.52116 132.446 2.51074 132.415 2.51074 132.383C2.51074 132.352 2.52116 132.321 2.54026 132.296C2.55935 132.272 2.58598 132.255 2.61571 132.248C3.92339 131.887 5.18946 131.379 6.39158 130.734C8.27255 129.738 9.78285 128.121 10.6857 126.137C11.3025 124.767 11.7235 123.31 11.9353 121.813C11.9393 121.78 11.9549 121.749 11.9793 121.726C12.0036 121.704 12.0349 121.692 12.0674 121.692C12.0999 121.692 12.1312 121.704 12.1556 121.726C12.1799 121.749 12.1955 121.78 12.1995 121.813C12.4116 123.31 12.833 124.767 13.4501 126.137C14.3523 128.122 15.8623 129.738 17.7432 130.734C18.9457 131.379 20.2121 131.887 21.5201 132.248C21.5498 132.255 21.5765 132.272 21.5956 132.296C21.6147 132.321 21.6251 132.352 21.6251 132.383C21.6251 132.415 21.6147 132.446 21.5956 132.47C21.5765 132.495 21.5498 132.512 21.5201 132.519C20.2121 132.88 18.9457 133.387 17.7432 134.033C15.8621 135.028 14.352 136.645 13.4501 138.63C12.833 140 12.4116 141.457 12.1995 142.953C12.1955 142.987 12.1799 143.018 12.1556 143.04C12.1312 143.063 12.0999 143.075 12.0674 143.075C12.0349 143.075 12.0036 143.063 11.9793 143.04C11.9549 143.018 11.9393 142.987 11.9353 142.953C11.7235 141.457 11.3025 140 10.6857 138.63C9.78316 136.645 8.27278 135.028 6.39158 134.033C5.18946 133.387 3.92339 132.88 2.61571 132.519Z" fill="white"/>
<path d="M173.939 268.366C171.691 266.547 169.557 264.432 168.817 262.527C168.085 260.198 167.766 257.75 167.876 255.302C175.561 250.442 181.448 240.058 182.556 236.908C183.14 235.214 183.591 233.474 183.903 231.704C184.704 232.24 185.656 232.478 186.604 232.38C187.552 232.282 188.441 231.854 189.125 231.165C190.595 229.846 191.775 228.213 192.583 226.377C194.298 222.741 195.02 218.684 194.669 214.65C194.617 213.619 194.358 212.61 193.907 211.69C193.519 211.023 192.992 210.456 192.366 210.029C191.739 209.603 191.028 209.327 190.286 209.224C189.53 209.114 188.76 209.175 188.028 209.404C187.297 209.632 186.621 210.022 186.048 210.547C186.048 210.547 188.583 179.737 147.97 179.737C111.508 179.737 114.143 211.067 114.143 211.067C113.563 210.551 112.882 210.171 112.147 209.953C111.413 209.736 110.642 209.685 109.887 209.806C109.146 209.92 108.44 210.206 107.819 210.642C107.198 211.078 106.679 211.653 106.3 212.325C105.863 213.252 105.617 214.264 105.579 215.295C105.282 219.334 106.059 223.38 107.823 226.991C108.656 228.816 109.858 230.432 111.346 231.73C112.635 232.785 114.281 233.952 116.468 233.02C117.77 238.592 120.286 243.778 123.822 248.178C126.408 251.432 129.597 254.111 133.199 256.056C133.315 258.511 132.997 260.967 132.261 263.302C131.212 265.42 129.713 267.262 127.878 268.689C127.878 268.689 130.184 287.367 148.563 287.367C166.942 287.367 173.939 268.366 173.939 268.366Z" fill="white"/>
<path d="M46.8637 156.87C46.9881 156.73 47.1428 156.623 47.3149 156.558C52.0313 154.719 65.642 150.077 69.4619 149.187C69.7208 149.113 69.9972 149.146 70.2332 149.279C70.4693 149.412 70.6468 149.635 70.7286 149.901C71.0687 151.098 71.9061 154.644 72.1182 155.483L72.4184 156.54C63.549 159.578 56.1163 162.272 48.6776 165.466L48.4034 164.581C47.9582 162.576 47.0098 159.168 46.6376 157.858C46.5892 157.687 46.5846 157.506 46.6242 157.333C46.6639 157.159 46.7464 157 46.8637 156.87Z" fill="white"/>
<path d="M225.131 148.078C224.865 149.453 224.459 151.974 224.191 153.088L223.96 154.051C232.243 155.733 239.603 157.82 247.892 160.304C248.107 160.369 248.31 160.471 248.492 160.607C248.8 158.574 249.502 155.17 249.781 153.841C249.831 153.571 249.78 153.291 249.638 153.058C249.496 152.826 249.274 152.659 249.017 152.592C244.188 151.103 230.296 147.474 226.425 146.867C226.162 146.812 225.888 146.866 225.662 147.016C225.436 147.166 225.274 147.401 225.21 147.673C225.186 147.798 225.159 147.931 225.131 148.078Z" fill="white"/>
<path d="M149.648 333.546C146.246 325.103 143.667 320.101 140.549 310.496C135.86 296.048 129.944 280.017 126.614 265.166C124.892 266.286 123.266 267.56 121.755 268.974L121.615 268.818C120.358 267.424 119.348 266.097 118.313 264.84C118.14 264.575 117.882 264.382 117.586 264.294C117.29 264.206 116.973 264.229 116.691 264.358C115.578 264.849 114.848 265.248 113.765 265.808L109.913 263.498C105.244 252.551 96.8366 226.837 91.534 207.754C85.0667 184.481 79.588 170.346 76.1183 157.48C76.0471 157.218 75.9257 156.974 75.7613 156.762C75.597 156.55 75.3931 156.375 75.1621 156.247C74.931 156.12 74.6775 156.042 74.4168 156.019C74.156 155.996 73.8935 156.028 73.6451 156.113C63.8462 159.457 55.8262 162.345 47.7252 165.866C47.299 166.05 46.9502 166.386 46.7418 166.814C46.5335 167.242 46.4795 167.733 46.5896 168.199C49.5661 180.386 53.437 193.687 63.2229 228.57C68.1753 249.47 80.5485 292.09 83.533 302.278C85.9902 313.109 91.4949 334.874 94.0382 346.15C95.2118 351.343 96.4974 356.58 96.4104 361.919C96.3183 367.533 94.8096 373.005 93.2268 378.364C88.0843 395.758 80.7866 415.698 75.0318 434.205C74.6956 435.288 74.1453 436.391 74.4134 437.495C74.6996 438.316 75.1436 439.068 75.7183 439.704C76.293 440.341 76.9864 440.849 77.7561 441.198C85.6921 444.68 113.613 447.915 121.418 447.177C126.854 446.664 131.744 443.169 135.059 438.594C138.373 434.018 150.587 399.889 152.361 394.44L152.743 393.267L153.952 398.323C158.235 416.242 161.19 434.043 164.145 438.984C165.185 440.793 166.686 442.266 168.482 443.24C169.675 443.865 171.319 444.319 174.92 444.455C187.99 444.95 215.914 443.433 224.126 438.634C224.517 438.371 224.812 437.978 224.963 437.519C225.115 437.06 225.113 436.562 224.959 436.104C221.376 421.941 217.522 411.918 214.532 402.445C211.531 392.941 208.311 383.114 205.259 372.266C204.662 370.446 204.275 368.56 204.105 366.645C204.091 364.717 204.304 362.794 204.741 360.92C208.826 339.744 212.56 322.337 217.748 301.431C221.172 288.08 231.015 242.443 235.312 223.635C241.715 195.614 242.688 192.35 249.263 162.705C249.374 162.199 249.294 161.667 249.04 161.22C248.785 160.773 248.376 160.444 247.896 160.302C239.352 157.741 231.794 155.602 223.195 153.889C222.736 153.798 222.26 153.882 221.854 154.124C221.449 154.367 221.14 154.753 220.984 155.212C216.945 167.113 213.9 179.386 208.561 200.51C204.17 217.883 198.749 239.86 193.366 255.092L190.264 261.359C189.511 261.761 188.681 261.985 187.835 262.015C186.989 262.044 186.147 261.879 185.37 261.53C184.994 261.293 184.561 261.172 184.121 261.18C183.791 261.269 183.49 261.449 183.251 261.701C181.255 263.465 179.454 265.455 177.881 267.634L177.846 267.683C176.772 266.769 175.64 265.93 174.459 265.172C171.13 280.023 165.214 296.054 160.524 310.502C157.307 320.418 154.431 328.072 151.262 337.662C150.7 336.188 150.165 334.828 149.648 333.546Z" fill="#BDBDBD"/>
<path d="M96.7646 446.392C96.4084 451.692 96.0122 456.989 95.61 462.286C95.6144 462.837 95.8267 463.364 96.201 463.753C96.5753 464.143 97.0817 464.363 97.611 464.368C98.1385 464.357 98.6415 464.135 99.0146 463.746C99.3876 463.358 99.6017 462.835 99.612 462.286C100.012 456.989 100.412 451.692 100.767 446.392C100.762 445.841 100.55 445.315 100.175 444.925C99.801 444.536 99.2948 444.315 98.7656 444.31C98.2379 444.32 97.7346 444.543 97.3614 444.931C96.9883 445.32 96.7743 445.843 96.7646 446.392Z" fill="#211715"/>
<path d="M205.585 461.63C205.003 455.727 204.423 449.825 203.884 443.918C203.87 443.37 203.655 442.849 203.283 442.461C202.91 442.074 202.409 441.85 201.883 441.836C201.353 441.84 200.846 442.06 200.472 442.45C200.097 442.839 199.886 443.367 199.882 443.918C200.417 449.825 200.997 455.727 201.583 461.63C201.597 462.178 201.813 462.698 202.185 463.085C202.557 463.473 203.058 463.697 203.584 463.712C204.113 463.708 204.62 463.488 204.995 463.098C205.369 462.709 205.581 462.181 205.585 461.63Z" fill="#211715"/>
<path d="M165.881 256.041C165.926 258.763 166.088 261.725 167.36 264.17C168.696 266.402 170.452 268.33 172.523 269.837C172.905 270.215 173.412 270.425 173.938 270.425C174.465 270.425 174.972 270.215 175.354 269.837C175.724 269.444 175.931 268.916 175.931 268.366C175.931 267.815 175.724 267.287 175.354 266.894C174.411 266.139 173.511 265.328 172.658 264.464C172.279 264.073 171.912 263.668 171.57 263.241C171.548 263.213 171.313 262.908 171.432 263.07C171.551 263.231 171.332 262.928 171.316 262.899C171.167 262.678 171.025 262.452 170.895 262.218C170.818 262.078 170.575 261.548 170.746 261.974C170.646 261.722 170.561 261.461 170.484 261.2C170.326 260.654 170.201 260.098 170.112 259.535C170.089 259.391 170.066 259.245 170.047 259.101C170.077 259.329 170.047 259.081 170.039 258.997C170.006 258.659 169.976 258.322 169.954 257.984C169.913 257.338 169.893 256.69 169.883 256.043C169.883 255.491 169.672 254.961 169.297 254.571C168.922 254.18 168.413 253.961 167.882 253.961C167.351 253.961 166.842 254.18 166.467 254.571C166.092 254.961 165.881 255.491 165.881 256.043V256.041Z" fill="#211715"/>
<path d="M129.293 270.163C131.329 268.566 132.972 266.49 134.089 264.105C134.963 261.525 135.341 258.791 135.204 256.058C135.204 255.506 134.993 254.977 134.618 254.586C134.242 254.196 133.733 253.977 133.203 253.977C132.672 253.977 132.163 254.196 131.788 254.586C131.413 254.977 131.202 255.506 131.202 256.058C131.202 257.286 131.149 258.504 131.046 259.727C131.015 259.988 131.013 260.026 131.038 259.844C131.019 259.991 130.997 260.136 130.973 260.283C130.927 260.571 130.872 260.856 130.809 261.141C130.747 261.425 130.676 261.701 130.598 261.966C130.558 262.1 130.516 262.232 130.472 262.363C130.39 262.579 130.378 262.621 130.434 262.489C130.357 262.631 130.288 262.777 130.226 262.927C130.106 263.159 129.974 263.384 129.835 263.604C129.6 263.995 129.326 264.36 129.019 264.692C128.227 265.598 127.373 266.443 126.463 267.219C126.09 267.61 125.88 268.139 125.88 268.691C125.88 269.242 126.09 269.772 126.463 270.163C126.845 270.54 127.352 270.75 127.878 270.75C128.404 270.75 128.911 270.54 129.293 270.163Z" fill="#211715"/>
<path d="M114.079 210.846C115.238 212.068 115.861 209.54 116.289 208.556C116.972 206.982 117.97 204.684 118.701 203.135C119.102 202.282 119.685 201.032 120.04 200.162C120.417 199.241 120.817 198.333 121.241 197.437C122.092 195.635 123.037 193.882 124.072 192.187C124.526 191.337 125.146 190.595 125.892 190.009C128.132 188.456 131.229 189.674 133.972 189.439C137.02 189.178 139.532 187.112 142.336 185.925C146.238 184.276 152.228 183.805 156.029 185.648C157.946 185.737 159.731 185.636 161.47 185.609C163.414 185.513 165.363 185.589 167.296 185.836C169.87 186.388 172.303 187.504 174.431 189.11C176.559 190.716 178.334 192.775 179.638 195.15C181.531 198.332 183.041 201.744 184.134 205.309C184.487 206.579 184.773 207.868 184.988 209.171C185.057 209.609 185.109 210.057 185.151 210.497C185.179 210.796 185.467 210.9 186.141 210.417L186.049 210.549C186.619 210.027 187.289 209.639 188.016 209.41C188.742 209.181 189.508 209.117 190.26 209.222C192.851 200.136 192.061 188.646 189.432 181.81C187.631 177.109 184.871 171.687 179.346 168.584L174.261 163.969C171.96 159.192 167.192 155.121 160.943 152.853C154.396 150.474 135.355 150.201 128.993 156.006L122.453 160.73C115.15 164.269 110.032 172.631 107.888 181.235C105.678 190.097 105.745 202.919 108.989 210.067C109.858 209.751 110.792 209.677 111.697 209.855C112.601 210.033 113.446 210.455 114.144 211.079L114.079 210.846Z" fill="#7A7473"/>
<path d="M176.413 162.614C173.349 155.81 166.291 151.573 159.529 149.811C152.394 148.038 144.957 148.04 137.823 149.818C134.461 150.536 131.264 151.924 128.407 153.904C127.96 154.193 127.637 154.649 127.503 155.179C127.37 155.709 127.437 156.271 127.69 156.751C127.961 157.225 128.4 157.568 128.912 157.708C129.424 157.848 129.968 157.773 130.427 157.499C135.065 154.048 141.281 152.966 146.855 152.724C153.471 152.436 160.388 153.443 166.108 157.115C169.053 158.9 171.434 161.541 172.957 164.713C173.228 165.186 173.667 165.53 174.18 165.67C174.692 165.809 175.236 165.734 175.696 165.46C176.145 165.173 176.47 164.716 176.604 164.186C176.738 163.655 176.669 163.091 176.413 162.612V162.614Z" fill="#211715"/>
<path d="M182.075 229.753C181.956 231.643 181.583 233.506 180.966 235.288C180.817 235.768 180.666 236.249 180.489 236.721C180.615 236.387 180.555 236.568 180.452 236.791C180.349 237.013 180.252 237.226 180.152 237.442C179.09 239.614 177.863 241.695 176.481 243.662C173.147 248.498 168.672 253.565 163.021 255.311C160.558 256.073 161.608 260.092 164.086 259.326C170.707 257.279 175.814 251.673 179.76 246.019C183.101 241.231 185.884 235.809 186.077 229.753C186.162 227.073 182.16 227.076 182.075 229.753Z" fill="#211715"/>
<path d="M113.855 230.41C115.008 237.172 117.747 243.534 121.827 248.932C126.089 254.389 131.97 259.004 138.794 260.056C139.305 260.185 139.845 260.106 140.302 259.835C140.76 259.564 141.101 259.122 141.256 258.599C141.393 258.066 141.322 257.499 141.06 257.019C140.798 256.54 140.365 256.187 139.855 256.037C133.633 255.079 128.526 250.97 124.654 245.986C121.069 241.095 118.685 235.367 117.711 229.3C117.219 226.673 113.361 227.785 113.852 230.407L113.855 230.41Z" fill="#211715"/>
<path d="M187.463 212.018C187.808 211.718 188.211 211.498 188.644 211.372C189.077 211.245 189.53 211.215 189.975 211.283C190.42 211.351 190.847 211.515 191.226 211.766C191.606 212.017 191.931 212.348 192.179 212.738C192.616 213.779 192.811 214.913 192.748 216.048C192.793 217.333 192.713 218.619 192.508 219.887C192.109 222.391 191.255 224.793 189.991 226.965C189.08 228.494 187.543 230.712 185.584 230.184C183.089 229.512 182.025 233.526 184.52 234.199C188.204 235.193 191.064 232.689 193.051 229.696C195.028 226.565 196.249 222.982 196.608 219.254C196.994 215.848 197.002 211.447 194.329 208.983C192.976 207.774 191.247 207.118 189.464 207.135C187.681 207.152 185.964 207.843 184.633 209.077C184.262 209.47 184.054 209.999 184.054 210.55C184.054 211.1 184.262 211.629 184.633 212.022C185.014 212.402 185.521 212.614 186.048 212.614C186.575 212.614 187.082 212.402 187.463 212.022V212.018Z" fill="#211715"/>
<path d="M115.558 209.6C114.215 208.38 112.492 207.709 110.709 207.71C108.926 207.711 107.204 208.384 105.862 209.605C103.144 212.16 103.287 216.662 103.73 220.129C104.162 223.899 105.492 227.498 107.6 230.597C109.677 233.524 112.803 236.092 116.486 235.22C118.997 234.626 117.934 230.61 115.423 231.205C113.511 231.659 111.581 229.341 110.635 227.883C109.264 225.714 108.319 223.284 107.854 220.733C107.62 219.49 107.507 218.225 107.515 216.958C107.414 215.74 107.59 214.514 108.028 213.38C108.268 212.984 108.585 212.645 108.96 212.385C109.334 212.125 109.757 211.949 110.201 211.871C110.644 211.792 111.099 211.812 111.535 211.929C111.971 212.045 112.378 212.256 112.731 212.548C113.112 212.924 113.619 213.134 114.145 213.134C114.672 213.134 115.178 212.924 115.56 212.548C115.932 212.155 116.14 211.627 116.14 211.076C116.14 210.525 115.932 209.996 115.56 209.604L115.558 209.6Z" fill="#211715"/>
<path d="M121.645 157.504C115.362 161.261 110.77 168.007 107.938 174.816C105.151 181.926 103.949 189.601 104.424 197.264C104.517 201.379 105.229 205.453 106.534 209.338C106.687 209.863 107.028 210.307 107.486 210.578C107.944 210.849 108.484 210.927 108.996 210.796C109.506 210.646 109.939 210.294 110.201 209.814C110.463 209.335 110.533 208.768 110.396 208.235C108.105 201.931 108.012 194.757 108.707 188.132C109.419 181.112 111.893 174.411 115.88 168.701C117.935 165.627 120.588 163.037 123.666 161.097C125.898 159.763 123.885 156.163 121.646 157.503L121.645 157.504Z" fill="#211715"/>
<path d="M178.616 169.781C190.222 177.328 192.056 194.817 188.779 207.461C188.108 210.05 191.968 211.156 192.638 208.567C196.406 194.031 193.818 174.765 180.632 166.189C178.442 164.765 176.43 168.365 178.612 169.784L178.616 169.781Z" fill="#211715"/>
<path d="M155.696 184.434C152.041 182.688 147.934 182.249 144.014 183.185C142.163 183.701 140.381 184.457 138.711 185.436C137.208 186.418 135.529 187.074 133.775 187.365C131.974 187.51 130.173 187.02 128.372 187.137C127.406 187.163 126.456 187.404 125.587 187.844C124.718 188.284 123.949 188.912 123.332 189.686C120.863 192.856 119.402 196.774 117.735 200.42C116.978 202.076 116.345 203.782 115.604 205.444C115.197 206.354 114.669 207.202 114.278 208.118C114.155 208.406 114.05 208.703 113.92 208.987C113.83 209.134 113.754 209.29 113.691 209.452C113.634 209.688 113.646 209.417 113.791 209.348L114.802 209.064L115.496 209.371C113.554 207.63 110.712 210.563 112.666 212.315C112.956 212.626 113.309 212.864 113.7 213.012C114.091 213.16 114.509 213.213 114.922 213.169C115.336 213.124 115.734 212.982 116.087 212.753C116.44 212.524 116.738 212.215 116.96 211.849C117.652 210.659 118.262 209.418 118.786 208.137C120.361 204.842 121.578 201.36 123.169 198.065C124.021 196.204 125.01 194.415 126.128 192.713C127.24 191.098 128.801 191.218 130.548 191.367C132.404 191.636 134.29 191.558 136.119 191.135C137.98 190.491 139.773 189.652 141.471 188.63C143.331 187.582 145.394 186.983 147.508 186.878C149.621 186.774 151.73 187.166 153.677 188.027C154.139 188.289 154.679 188.358 155.188 188.219C155.697 188.08 156.136 187.744 156.414 187.28C156.678 186.803 156.751 186.236 156.617 185.703C156.482 185.171 156.152 184.714 155.697 184.432L155.696 184.434Z" fill="#211715"/>
<path d="M148.225 175.207C148.425 175.221 148.616 175.235 148.812 175.255C148.834 175.255 149.454 175.347 149.061 175.282C149.451 175.346 149.839 175.423 150.224 175.518C150.58 175.608 150.935 175.713 151.283 175.831C151.476 175.896 151.668 175.965 151.857 176.039C151.941 176.072 152.285 176.225 152.046 176.116C153.583 176.82 154.975 177.824 156.148 179.074C156.419 179.355 156.682 179.644 156.932 179.945C157.059 180.099 157.187 180.257 157.306 180.418C157.081 180.113 157.43 180.612 157.439 180.626C157.824 181.211 158.159 181.831 158.439 182.478C158.539 182.698 158.346 182.196 158.471 182.567C158.528 182.74 158.593 182.91 158.649 183.088C158.764 183.44 158.866 183.799 158.959 184.16C159.159 184.937 159.308 185.727 159.447 186.519C159.591 187.05 159.931 187.5 160.391 187.772C160.852 188.045 161.397 188.118 161.909 187.977C162.415 187.821 162.844 187.467 163.105 186.99C163.366 186.512 163.439 185.948 163.31 185.416C163.033 183.656 162.547 181.938 161.864 180.302C161.12 178.677 160.091 177.211 158.829 175.978C155.987 173.057 152.225 171.305 148.237 171.045C147.707 171.048 147.2 171.268 146.826 171.658C146.451 172.048 146.239 172.575 146.236 173.126C146.248 173.675 146.463 174.197 146.835 174.585C147.208 174.973 147.71 175.196 148.237 175.208L148.225 175.207Z" fill="#211715"/>
<path d="M167.202 187.258C172.664 188.583 176.087 192.769 178.738 197.667C180.266 200.375 181.468 203.267 182.316 206.28C182.539 207.131 182.742 207.986 182.906 208.851C183.048 209.602 183.044 210.449 183.257 211.177C183.805 213.056 185.792 213.073 187.15 212.209C189.344 210.815 187.336 207.213 185.13 208.615C185.108 208.665 185.07 208.705 185.022 208.728C184.975 208.75 184.921 208.754 184.87 208.738H185.933L185.799 208.704L186.682 209.24L186.599 209.151L187.113 210.07C186.696 208.57 186.621 206.915 186.228 205.386C185.841 203.918 185.359 202.478 184.783 201.078C183.663 198.265 182.297 195.564 180.702 193.009C177.71 188.27 173.674 184.554 168.264 183.242C165.763 182.635 164.688 186.647 167.2 187.257L167.202 187.258Z" fill="#211715"/>
<path d="M152.299 271.591C152.246 271.63 152.2 271.679 152.164 271.735H149.063C148.661 271.374 148.194 271.1 147.69 270.928C140.629 267.973 134.738 263.466 132.158 259.859C129.613 262.292 128.805 264.175 127.149 267.474C130.55 281.666 136.099 296.793 140.546 310.496C144.108 321.47 146.884 328.755 151.08 339.58C154.227 329.886 157.374 320.191 160.52 310.496C164.991 296.725 170.574 281.517 173.969 267.262C172.384 264.094 171.556 262.24 169.067 259.859C166.486 263.466 160.595 267.977 153.535 270.928C153.1 271.1 152.686 271.322 152.299 271.591Z" fill="white"/>
<path d="M162.849 284.016C167.217 278.716 170.819 272.783 173.543 266.403C172.49 263.93 170.968 261.705 169.069 259.859C166.488 263.466 160.597 267.977 153.537 270.928C153.033 271.1 152.566 271.374 152.164 271.735C151.995 272.063 152.324 272.35 152.478 272.608C152.721 273.012 153.914 274.05 155.944 276.368C158.247 278.997 160.944 281.647 162.849 284.016Z" fill="white"/>
<path d="M138.38 284.016C134.013 278.716 130.411 272.783 127.687 266.403C128.74 263.93 130.262 261.705 132.161 259.859C134.741 263.466 140.632 267.977 147.693 270.928C148.197 271.1 148.664 271.374 149.066 271.735C149.235 272.063 148.905 272.35 148.751 272.608C148.508 273.012 147.316 274.05 145.286 276.368C142.983 278.997 140.286 281.647 138.38 284.016Z" fill="white"/>
<path d="M152.586 273.818C150.842 273.824 149.393 273.827 147.632 273.829C147.055 274.425 146.268 275.246 145.286 276.368C144.759 276.968 144.213 277.57 143.66 278.17C144.049 280.268 144.322 281.595 144.75 283.504C144.819 283.84 144.9 284.164 144.982 284.5C145.182 285.219 145.298 285.96 145.327 286.708C145.327 287.136 143.309 302.459 141.896 314.583C144.852 323.412 147.43 330.155 151.084 339.581C153.969 330.689 156.855 321.796 159.742 312.904C157.966 300.545 156.085 287.631 156.097 286.947C156.185 285.608 156.464 284.29 156.927 283.037C157.428 281.448 157.728 280.059 158.055 278.693C157.338 277.921 156.623 277.143 155.944 276.368C154.953 275.237 154.163 274.411 153.584 273.815L152.586 273.818Z" fill="#5394CF"/>
<path d="M145.813 288.691C149.135 288.691 152.455 288.615 155.776 288.613C156.307 288.613 156.816 288.393 157.191 288.003C157.566 287.613 157.777 287.083 157.777 286.531C157.777 285.979 157.566 285.449 157.191 285.059C156.816 284.669 156.307 284.449 155.776 284.449C152.455 284.449 149.135 284.526 145.813 284.527C145.282 284.527 144.773 284.747 144.398 285.137C144.023 285.527 143.812 286.057 143.812 286.609C143.812 287.161 144.023 287.691 144.398 288.081C144.773 288.471 145.282 288.691 145.813 288.691Z" fill="#211715"/>
<path d="M141.887 279.559C142.267 281.547 142.724 283.515 143.155 285.492C143.296 286.101 143.33 286.731 143.255 287.352C143.03 289.297 142.771 291.238 142.526 293.181C141.656 300.066 140.788 306.95 139.979 313.842C139.982 314.393 140.194 314.92 140.568 315.31C140.943 315.7 141.45 315.92 141.98 315.923C142.507 315.91 143.009 315.687 143.381 315.299C143.754 314.912 143.969 314.39 143.981 313.842C144.802 306.844 145.682 299.853 146.568 292.863C146.807 290.976 147.107 289.084 147.276 287.189C147.33 286.246 147.24 285.301 147.009 284.388C146.583 282.41 146.122 280.447 145.742 278.455C145.242 275.829 141.383 276.94 141.883 279.561L141.887 279.559Z" fill="#211715"/>
<path d="M153.395 271.737C151.425 271.737 149.455 271.741 147.486 271.75C146.955 271.75 146.446 271.969 146.071 272.359C145.696 272.75 145.485 273.279 145.485 273.831C145.485 274.383 145.696 274.913 146.071 275.303C146.446 275.694 146.955 275.913 147.486 275.913C149.455 275.913 151.425 275.909 153.395 275.901C153.925 275.901 154.434 275.681 154.81 275.291C155.185 274.9 155.396 274.371 155.396 273.819C155.396 273.267 155.185 272.737 154.81 272.347C154.434 271.956 153.925 271.737 153.395 271.737Z" fill="#211715"/>
<path d="M161.671 312.342C160.718 305.716 159.753 299.093 158.821 292.461C158.67 291.387 158.521 290.311 158.374 289.234C158.319 288.832 158.265 288.43 158.213 288.027C158.185 287.812 158.252 288.359 158.196 287.892C158.183 287.778 158.168 287.663 158.155 287.549C157.9 285.267 159.112 282.874 159.641 280.693C160.272 278.091 156.413 276.986 155.782 279.586C155.173 282.096 153.916 284.743 154.134 287.378C154.286 289.225 154.613 291.074 154.87 292.907C155.828 299.755 156.827 306.598 157.811 313.443C157.955 313.974 158.294 314.424 158.755 314.697C159.215 314.97 159.761 315.043 160.273 314.9C160.778 314.742 161.205 314.388 161.466 313.911C161.727 313.434 161.801 312.871 161.674 312.338L161.671 312.342Z" fill="#211715"/>
<path d="M148.595 339.353C147.265 343.537 145.807 347.818 145.663 352.268C145.693 354.388 145.87 356.504 146.191 358.598C147.098 367.029 148.125 375.444 149.374 383.824C150.125 388.865 150.949 393.9 152.022 398.878C152.585 401.492 156.444 400.386 155.881 397.772C153.995 389.015 152.779 380.094 151.66 371.202C150.941 365.477 150.207 359.738 149.715 353.987C149.32 349.38 151.087 344.76 152.454 340.456C153.266 337.907 149.403 336.813 148.595 339.349V339.353Z" fill="#211715"/>
<path d="M172.526 264.612C170.128 274.606 167.234 284.465 163.856 294.148C160.629 303.816 157.472 313.508 154.119 323.134C152.24 328.527 150.36 333.919 148.592 339.353C147.765 341.897 151.629 342.988 152.451 340.46C158.779 321.004 165.907 301.829 171.91 282.256C173.584 276.799 175.126 271.297 176.385 265.72C176.973 263.118 173.116 262.001 172.526 264.612Z" fill="#211715"/>
<path d="M173.449 266.964C175.837 268.539 178.042 270.397 180.019 272.501C181.1 273.607 182.117 274.779 183.062 276.012C183.422 276.488 183.763 276.98 184.084 277.484C184.262 277.763 184.435 278.046 184.599 278.333C184.672 278.46 184.99 279.247 184.974 278.874L185.248 277.823L185.047 278.126L185.765 277.38C183.846 278.687 181.711 279.739 179.701 280.893C179.439 281.055 179.216 281.278 179.049 281.543C178.882 281.809 178.775 282.11 178.736 282.425C178.697 282.74 178.727 283.06 178.824 283.36C178.921 283.661 179.082 283.935 179.296 284.162C181.138 285.897 182.969 287.645 184.716 289.482C184.924 289.7 185.633 290.419 185.647 290.456C185.625 290.077 185.54 290.136 185.393 290.633C185.253 290.911 185.114 291.185 184.973 291.455C184.415 292.548 183.855 293.64 183.294 294.731C181.052 299.084 178.772 303.416 176.454 307.728C171.58 316.765 166.46 325.65 161.096 334.384C159.702 336.646 163.165 338.737 164.551 336.486C169.118 329.074 173.5 321.545 177.697 313.899C179.656 310.333 181.581 306.747 183.472 303.14C185.379 299.509 187.424 295.896 189.135 292.16C190.254 289.715 189.012 288.073 187.383 286.37C185.682 284.6 183.91 282.902 182.126 281.221L181.721 284.491L185.623 282.25C186.807 281.57 188.499 280.939 188.897 279.43C189.462 277.291 187.057 274.599 185.885 273.07C182.967 269.243 179.442 265.963 175.462 263.371C173.261 261.965 171.249 265.565 173.442 266.967L173.449 266.964Z" fill="#211715"/>
<path d="M124.684 265.72C127.125 275.87 130.071 285.883 133.509 295.716C136.594 304.95 139.444 314.303 143.171 323.285C145.078 327.881 147.089 332.426 148.892 337.068C149.046 337.591 149.387 338.034 149.845 338.305C150.302 338.576 150.842 338.654 151.354 338.525C151.864 338.376 152.297 338.023 152.559 337.544C152.822 337.064 152.892 336.497 152.754 335.964C149.493 327.573 145.629 319.455 142.79 310.888C139.537 301.064 136.137 291.283 133.094 281.385C131.393 275.852 129.824 270.272 128.546 264.615C127.958 262.013 124.098 263.112 124.687 265.723L124.684 265.72Z" fill="#211715"/>
<path d="M125.603 263.368C121.623 265.96 118.097 269.24 115.18 273.067C114.01 274.592 111.83 277.044 112.132 279.15C112.365 280.78 114.013 281.427 115.234 282.129L119.344 284.488L118.944 281.218C117.39 282.682 115.842 284.155 114.348 285.684C113.058 287.002 111.412 288.356 111.462 290.408C111.581 291.381 111.901 292.316 112.4 293.148C112.861 294.119 113.328 295.085 113.801 296.046C114.735 297.936 115.687 299.814 116.658 301.681C120.66 309.357 124.979 316.851 129.433 324.25C132.09 328.664 134.79 333.051 137.532 337.411C138.932 339.648 142.398 337.563 140.987 335.31C135.369 326.335 129.844 317.291 124.678 308.026C122.246 303.666 119.894 299.255 117.67 294.776C117.123 293.675 116.584 292.569 116.054 291.46C115.921 291.182 115.79 290.907 115.662 290.634C115.529 290.137 115.449 290.078 115.423 290.456C115.439 290.414 116.145 289.702 116.353 289.482C118.101 287.645 119.933 285.897 121.774 284.162C121.987 283.935 122.149 283.661 122.246 283.36C122.343 283.06 122.373 282.74 122.334 282.425C122.295 282.11 122.188 281.809 122.02 281.543C121.853 281.278 121.63 281.056 121.369 280.893C119.36 279.739 117.225 278.687 115.305 277.38L116.023 278.126L115.823 277.823L116.096 278.874C116.078 279.284 116.33 278.581 116.39 278.474C116.55 278.186 116.719 277.905 116.891 277.627C117.24 277.073 117.61 276.531 118.005 276.012C118.951 274.78 119.968 273.607 121.049 272.501C123.024 270.396 125.229 268.538 127.618 266.964C129.809 265.564 127.801 261.961 125.598 263.368H125.603Z" fill="#211715"/>
<path d="M164.379 285.601C167.805 281.421 170.795 276.874 173.299 272.037C173.911 270.829 174.496 269.608 175.054 268.373C175.49 267.695 175.722 266.898 175.723 266.083C175.554 265.393 175.275 264.738 174.898 264.144C173.806 261.959 172.373 259.979 170.656 258.283C170.437 258.064 170.173 257.9 169.885 257.801C169.597 257.702 169.291 257.672 168.99 257.712C168.689 257.751 168.4 257.861 168.144 258.032C167.889 258.202 167.674 258.43 167.514 258.699C165.714 260.96 163.57 262.899 161.168 264.438C159.626 265.496 158.027 266.459 156.378 267.324C154.683 268.031 153.025 268.832 151.411 269.723C148.2 271.898 151.872 274.921 153.452 276.632C156.173 279.581 159.01 282.486 161.55 285.607C163.217 287.654 166.035 284.696 164.379 282.662C162.325 280.139 160.01 277.863 157.85 275.44C156.938 274.417 156.027 273.398 155.076 272.416C154.807 272.139 154.541 271.86 154.275 271.583C154.184 271.488 154.102 271.386 154.015 271.288C154.453 271.782 154.031 271.288 153.88 271.004L154.154 272.055L154.182 271.738L153.596 273.21C154.393 272.708 155.248 272.312 156.14 272.033C157.028 271.623 157.903 271.187 158.766 270.723C160.508 269.793 162.192 268.75 163.808 267.601C166.532 265.75 168.951 263.454 170.972 260.802L167.829 261.223C169.567 263.012 170.989 265.105 172.031 267.407V265.305C169.295 271.548 165.77 277.382 161.55 282.654C161.188 283.051 160.986 283.578 160.986 284.126C160.986 284.674 161.188 285.201 161.55 285.598C161.927 285.985 162.435 286.202 162.964 286.202C163.493 286.203 164.001 285.987 164.379 285.601Z" fill="#211715"/>
<path d="M139.68 282.654C135.461 277.38 131.939 271.543 129.205 265.299V267.401C130.246 265.099 131.669 263.006 133.407 261.217L130.264 260.795C132.285 263.447 134.704 265.743 137.428 267.594C139.044 268.743 140.728 269.786 142.469 270.717C143.332 271.18 144.208 271.616 145.096 272.026C145.988 272.306 146.843 272.701 147.64 273.204L147.054 271.732L147.083 272.049L147.356 270.998C147.246 271.206 146.692 271.831 147.221 271.282C147.131 271.377 147.053 271.483 146.96 271.577C146.72 271.818 146.487 272.069 146.25 272.314C145.268 273.327 144.325 274.378 143.384 275.436C141.224 277.858 138.908 280.135 136.854 282.658C135.199 284.691 138.016 287.654 139.684 285.603C142.224 282.48 145.06 279.578 147.782 276.628C149.361 274.917 153.042 271.899 149.823 269.719C148.209 268.828 146.551 268.027 144.855 267.32C143.206 266.455 141.607 265.492 140.066 264.434C137.664 262.894 135.52 260.956 133.72 258.695C133.56 258.426 133.345 258.198 133.089 258.028C132.834 257.857 132.545 257.747 132.244 257.707C131.943 257.668 131.637 257.698 131.349 257.797C131.06 257.896 130.797 258.06 130.577 258.278C128.9 259.93 127.494 261.857 126.416 263.981C126.063 264.554 125.772 265.164 125.546 265.802C125.442 266.638 125.637 267.485 126.094 268.181C126.68 269.48 127.293 270.764 127.935 272.033C130.439 276.871 133.429 281.42 136.854 285.603C137.232 285.989 137.74 286.205 138.269 286.205C138.798 286.205 139.307 285.989 139.684 285.603C140.05 285.206 140.253 284.677 140.253 284.127C140.252 283.578 140.047 283.049 139.68 282.654Z" fill="#211715"/>
<path d="M162.168 348.76C162.37 348.948 162.556 349.154 162.724 349.376L162.411 348.96C162.59 349.205 162.741 349.471 162.861 349.753L162.661 349.256C162.785 349.563 162.87 349.884 162.916 350.213L162.844 349.66C162.888 350.015 162.888 350.373 162.844 350.728L162.916 350.174C162.862 350.561 162.761 350.94 162.616 351.3L162.816 350.804C162.703 351.086 162.558 351.354 162.383 351.6L162.695 351.184C162.529 351.404 162.337 351.601 162.124 351.771L162.529 351.446C162.278 351.64 162.006 351.801 161.718 351.927L162.196 351.719C161.857 351.861 161.503 351.959 161.142 352.013L161.673 351.939C161.264 351.994 160.85 351.994 160.441 351.939L160.972 352.013C160.626 351.964 160.286 351.87 159.962 351.733L160.44 351.942C160.196 351.834 159.964 351.696 159.751 351.532L160.156 351.856C159.908 351.652 159.683 351.419 159.486 351.161L159.799 351.577C159.617 351.333 159.467 351.065 159.351 350.78L159.551 351.278C159.459 351.034 159.394 350.781 159.357 350.523L159.429 351.077C159.392 350.773 159.392 350.466 159.429 350.162L159.358 350.715C159.412 350.332 159.513 349.958 159.658 349.601L159.458 350.097C159.643 349.664 159.878 349.257 160.158 348.884L159.845 349.3C160.004 349.088 160.184 348.895 160.384 348.724L159.984 349.05C160.213 348.869 160.462 348.717 160.725 348.598L160.247 348.807C160.595 348.656 160.96 348.553 161.333 348.502L160.801 348.575C161.157 348.53 161.516 348.53 161.871 348.575L161.34 348.5C161.641 348.546 161.937 348.628 162.22 348.746L161.742 348.538C161.999 348.651 162.241 348.798 162.462 348.975L162.057 348.649C162.097 348.683 162.136 348.717 162.175 348.753C162.557 349.132 163.062 349.35 163.59 349.363C163.985 349.363 164.372 349.241 164.701 349.012C165.03 348.784 165.287 348.459 165.438 348.078C165.589 347.698 165.629 347.279 165.552 346.876C165.475 346.472 165.284 346.101 165.004 345.81C164.008 344.905 162.735 344.398 161.413 344.379C160.266 344.351 159.137 344.672 158.164 345.304C157.162 346.012 156.381 347.009 155.916 348.172C155.451 349.336 155.322 350.615 155.545 351.853C155.876 353.205 156.676 354.381 157.791 355.157C158.466 355.601 159.218 355.901 160.005 356.041C160.792 356.181 161.598 356.157 162.376 355.972C163.154 355.786 163.889 355.442 164.539 354.96C165.189 354.478 165.74 353.867 166.162 353.162C166.694 352.13 166.938 350.964 166.868 349.795C166.806 348.996 166.6 348.215 166.26 347.495C165.947 346.856 165.521 346.284 165.004 345.81C164.623 345.429 164.118 345.211 163.59 345.2C163.194 345.2 162.807 345.322 162.478 345.551C162.149 345.78 161.893 346.105 161.741 346.485C161.59 346.865 161.55 347.284 161.628 347.688C161.705 348.091 161.895 348.462 162.175 348.753L162.168 348.76Z" fill="#211715"/>
<path d="M195.291 255.648C198.803 245.676 201.612 235.439 204.316 225.203C207.186 214.338 209.886 203.425 212.644 192.529C214.919 183.54 217.177 174.539 219.793 165.65C220.344 163.776 220.914 161.909 221.504 160.048C221.778 159.187 222.056 158.328 222.339 157.471C222.436 157.082 222.563 156.702 222.718 156.334C222.992 155.805 222.703 155.908 223.374 156.043C229.035 157.179 234.637 158.629 240.198 160.206C241.571 160.597 242.943 160.995 244.314 161.4L246.415 162.024C246.47 162.041 247.553 162.492 247.33 162.149C247.244 162.99 247.061 163.818 246.784 164.613C246.644 165.242 246.504 165.87 246.365 166.497L245.383 170.893C244.398 175.291 243.404 179.688 242.4 184.082C240.782 191.149 239.125 198.207 237.484 205.269C233.788 221.166 230.232 237.096 226.705 253.036C223.404 267.968 220.193 282.935 216.582 297.793C216.332 298.823 216.076 299.851 215.815 300.876C215.151 303.468 219.011 304.574 219.674 301.983C223.35 287.626 226.372 273.072 229.579 258.597C233.218 242.158 236.857 225.721 240.658 209.322C242.384 201.881 244.134 194.446 245.844 187C246.835 182.685 247.815 178.366 248.784 174.042C249.406 171.267 250.026 168.493 250.643 165.722C250.956 164.311 251.529 162.745 251.193 161.293C251.04 160.643 250.736 160.041 250.309 159.541C249.881 159.04 249.343 158.656 248.741 158.42C245.842 157.392 242.894 156.521 239.909 155.81C237 154.995 234.081 154.223 231.146 153.52C229.774 153.189 228.398 152.874 227.02 152.573C225.551 152.106 224.028 151.847 222.492 151.804C219.75 152.022 219.039 154.659 218.29 156.935C215.604 165.137 213.38 173.493 211.222 181.858C205.57 203.775 200.604 225.959 193.771 247.523C193.025 249.875 192.245 252.215 191.43 254.542C190.542 257.062 194.408 258.148 195.289 255.649L195.291 255.648Z" fill="#211715"/>
<path d="M215.814 300.879C211.179 319.591 207.08 338.43 203.394 357.369C202.872 359.72 202.464 362.098 202.171 364.492C202.009 366.917 202.293 369.353 203.006 371.668C204.313 376.44 205.746 381.177 207.209 385.9C209.735 394.075 212.299 402.242 215.022 410.353C217.724 418.399 220.372 426.458 222.526 434.687C222.661 435.355 222.831 436.016 223.033 436.665C223.058 436.751 223.061 436.842 223.041 436.929C222.984 437.188 223.25 436.706 223.041 436.887C222.666 437.148 222.258 437.354 221.829 437.5C222.139 437.361 221.558 437.604 221.476 437.64C221.245 437.73 221.011 437.818 220.775 437.903C220.199 438.111 219.616 438.299 219.029 438.474C216.358 439.239 213.645 439.833 210.904 440.254C204.34 441.275 197.727 441.92 191.095 442.187C185.052 442.633 178.987 442.657 172.94 442.258C171.464 442.226 170.021 441.79 168.758 440.995C167.494 440.199 166.454 439.071 165.743 437.725C164.673 435.504 163.867 433.156 163.342 430.732C161.107 422.334 159.499 413.755 157.605 405.27C157.047 402.772 156.471 400.274 155.878 397.776C155.259 395.174 151.398 396.278 152.019 398.882C154.28 408.367 156.144 417.946 158.385 427.433C159.846 433.62 161.177 441.251 166.939 444.743C169.726 446.432 173.095 446.502 176.232 446.584C179.17 446.662 182.11 446.642 185.049 446.571C191.947 446.406 198.855 445.974 205.708 445.15C211.411 444.465 217.444 443.754 222.822 441.538C224.111 441.159 225.28 440.434 226.215 439.437C227.743 437.39 226.715 434.824 226.123 432.618C224.934 428.148 223.622 423.717 222.209 419.318C219.719 411.534 217.071 403.809 214.594 396.019C213.138 391.439 211.682 386.853 210.28 382.252C209.51 379.725 208.757 377.192 208.022 374.654C207.232 372.333 206.615 369.952 206.176 367.532C205.854 365.073 206.447 362.619 206.91 360.225C207.403 357.687 207.9 355.151 208.402 352.615C209.368 347.758 210.361 342.905 211.381 338.057C213.393 328.527 215.539 319.029 217.82 309.561C218.428 307.036 219.045 304.513 219.67 301.991C220.313 299.395 216.454 298.288 215.811 300.885L215.814 300.879Z" fill="#211715"/>
<path d="M81.5989 302.834C83.5699 311.503 85.731 320.125 87.834 328.759C88.8916 333.101 89.9471 337.442 90.9716 341.792C92.3006 346.776 93.3569 351.835 94.1352 356.943C94.9116 363.293 93.711 369.373 91.9871 375.442C90.4143 380.983 88.6614 386.475 86.8776 391.942C83.1207 403.461 79.1327 414.898 75.3988 426.426C74.4884 429.236 73.5399 432.047 72.6885 434.879C72.323 436.141 72.3485 437.49 72.7615 438.736C73.1746 439.982 73.9541 441.061 74.9896 441.82C77.2758 443.759 80.5414 444.414 83.3568 445.075C90.9502 446.763 98.6388 447.948 106.376 448.623C109.79 448.961 113.215 449.237 116.644 449.337C119.832 449.59 123.037 449.206 126.086 448.204C130.507 446.492 134.312 443.402 136.982 439.357C138.012 437.626 138.902 435.809 139.642 433.924C144.862 421.914 149.315 409.472 153.588 397.068C153.825 396.38 154.061 395.691 154.288 394.999C155.118 392.457 151.254 391.365 150.428 393.892C146.726 405.238 142.476 416.479 137.991 427.521C137.022 429.906 135.99 432.395 134.858 434.756C133.753 437.099 132.198 439.181 130.289 440.875C127.395 443.545 123.692 445.073 119.826 445.192C116.918 445.274 113.998 445.088 111.098 444.88C103.628 444.342 96.1914 443.379 88.8225 441.995C85.8679 441.48 82.9479 440.77 80.0802 439.868C78.6795 439.404 77.2788 438.894 76.5334 437.424C76.0792 436.524 76.7505 435.42 77.0337 434.536C77.4859 433.111 77.9291 431.682 78.3843 430.257C81.9791 419.004 85.8551 407.851 89.5599 396.637C91.3178 391.316 93.0406 385.981 94.6544 380.608C96.3873 374.843 98.1091 368.98 98.3843 362.905C98.6564 356.855 97.1837 350.906 95.851 345.067C94.9626 341.16 94.0261 337.26 93.0847 333.373C90.9436 324.512 88.7425 315.665 86.6404 306.794C86.2402 305.105 85.8467 303.415 85.4599 301.724C84.8676 299.121 81.0076 300.221 81.6009 302.83L81.5989 302.834Z" fill="#211715"/>
<path d="M123.03 267.347C122.355 266.595 121.709 265.818 121.073 265.031C120.569 264.306 119.999 263.633 119.372 263.022C118.796 262.492 118.063 262.186 117.295 262.154C116.589 262.193 115.901 262.393 115.278 262.741C114.421 263.133 113.589 263.573 112.753 264.011C112.297 264.292 111.966 264.749 111.832 265.282C111.697 265.815 111.77 266.382 112.035 266.859C112.312 267.326 112.75 267.664 113.26 267.803C113.77 267.942 114.312 267.871 114.773 267.606C115.487 267.235 116.197 266.855 116.924 266.51C117.113 266.42 117.303 266.331 117.495 266.246C117.754 266.133 117.169 266.387 117.414 266.296C117.659 266.206 116.962 266.278 117.295 266.317C117.239 266.311 116.821 266.213 117.072 266.306L116.779 266.181C116.908 266.264 116.896 266.248 116.743 266.131C116.467 265.88 116.834 266.235 116.896 266.312C118.015 267.623 119.047 269.008 120.197 270.291C120.575 270.677 121.083 270.894 121.612 270.894C122.141 270.894 122.649 270.677 123.027 270.291C123.392 269.895 123.596 269.368 123.596 268.819C123.596 268.27 123.392 267.742 123.027 267.347H123.03Z" fill="#211715"/>
<path d="M179.608 268.679C179.814 268.395 180.228 267.857 180.587 267.416C181.009 266.898 181.446 266.391 181.896 265.897C182.749 264.914 183.674 264.002 184.664 263.171C184.464 263.328 184.727 263.103 184.753 263.12L184.015 263.208L184.224 263.269C183.975 263.111 184.653 263.459 184.598 263.435C184.771 263.511 184.943 263.589 185.118 263.658C185.767 263.891 186.442 264.031 187.126 264.074C188.564 264.169 189.998 263.851 191.274 263.155C191.729 262.874 192.06 262.417 192.194 261.884C192.328 261.35 192.255 260.784 191.991 260.306C191.714 259.839 191.276 259.501 190.766 259.362C190.256 259.223 189.715 259.294 189.254 259.56C188.953 259.714 189.268 259.575 189.083 259.646C188.956 259.695 188.828 259.738 188.698 259.776C188.536 259.825 188.372 259.864 188.207 259.899C188.081 259.926 187.921 259.928 188.138 259.912C187.801 259.939 187.463 259.939 187.126 259.912C187.344 259.929 187.182 259.925 187.057 259.898C186.892 259.862 186.728 259.822 186.566 259.772C186.404 259.722 186.245 259.668 186.088 259.604C186.288 259.686 186.032 259.57 185.973 259.544C185.538 259.336 185.076 259.195 184.601 259.128C184.091 259.093 183.58 259.173 183.103 259.363C182.625 259.552 182.193 259.847 181.835 260.227C179.714 262.11 177.807 264.241 176.153 266.576C175.885 267.053 175.81 267.621 175.945 268.155C176.079 268.689 176.412 269.145 176.87 269.424C177.332 269.687 177.873 269.755 178.382 269.617C178.89 269.478 179.329 269.143 179.608 268.679Z" fill="#211715"/>
<path d="M85.458 301.728C81.1091 286.86 76.8704 271.957 72.7416 257.019C70.3815 248.444 68.0523 239.857 65.9252 231.216C63.336 220.703 60.1724 210.319 57.2429 199.899C55.2719 192.889 53.297 185.879 51.406 178.845C50.7037 176.234 50.019 173.619 49.352 170.999C49.2069 170.425 48.3375 168.003 48.5436 167.697C48.5826 167.638 49.6321 167.281 49.7992 167.214C50.4402 166.94 51.0832 166.67 51.7282 166.403C53.0849 165.843 54.4455 165.294 55.8102 164.757C61.418 162.553 67.0958 160.549 72.7877 158.599C73.2343 158.394 73.699 158.235 74.1753 158.124C74.3004 158.111 74.2944 158.116 74.1523 158.049C74.3294 158.133 74.1363 157.924 74.2254 158.175C74.3044 158.397 74.3514 158.638 74.4135 158.865C74.6803 159.846 74.9581 160.824 75.2469 161.801C75.8272 163.79 76.4355 165.771 77.0568 167.746C80.0913 177.397 83.3289 186.975 86.2393 196.669C89.641 207.996 92.7186 219.414 96.2794 230.69C99.3319 240.359 102.494 250.017 106.135 259.466C106.793 261.172 107.47 262.869 108.184 264.55C108.455 265.024 108.894 265.368 109.406 265.507C109.919 265.647 110.464 265.571 110.923 265.296C111.371 265.008 111.696 264.552 111.829 264.022C111.963 263.491 111.895 262.928 111.64 262.448C107.97 253.809 104.985 244.591 102.057 235.575C98.4344 224.42 95.2058 213.156 91.9522 201.881C88.8657 191.167 85.3839 180.594 81.9772 169.989C80.6766 165.93 79.3999 161.87 78.2694 157.759C78.0587 156.509 77.4001 155.388 76.4265 154.624C75.8275 154.247 75.1501 154.024 74.4514 153.976C73.7527 153.928 73.0531 154.055 72.4115 154.347C69.41 155.375 66.4085 156.416 63.414 157.491C60.5759 158.512 57.7508 159.57 54.9388 160.665C52.1413 161.652 49.395 162.789 46.7107 164.072C43.0559 165.982 45.1559 170.829 45.9523 173.923C47.5371 180.074 49.2349 186.195 50.9428 192.31C53.7442 202.356 56.5663 212.396 59.409 222.431C61.9583 231.501 64.1484 240.675 66.6026 249.776C71.1148 266.509 75.8682 283.172 80.7096 299.804C81.0037 300.815 81.2986 301.825 81.594 302.834C82.3424 305.391 86.2063 304.301 85.453 301.728H85.458Z" fill="#211715"/>
<path d="M59.67 22.5636C59.8161 33.8946 60.5965 124.713 60.6645 130.314C76.3724 130.099 220.892 128.386 232.014 128.386C231.814 113.177 230.251 27.1684 230.173 21.1376C219.543 21.2895 74.4894 22.5636 59.67 22.5636Z" fill="#FCE8D1"/>
<path d="M77.3078 97.9636C77.0159 100.733 77.0458 103.529 77.3969 106.291C77.5154 107.136 77.8971 107.918 78.4834 108.517C79.0697 109.116 79.8285 109.498 80.6435 109.606C83.6283 110.025 86.6555 109.994 89.632 109.515C90.4654 109.436 91.2442 109.05 91.8283 108.426C92.4123 107.803 92.7631 106.983 92.8176 106.114C93.0723 103.248 93.0267 100.363 92.6815 97.5077C92.5635 96.666 92.1834 95.8878 91.5995 95.2923C91.0156 94.6969 90.2601 94.3171 89.4489 94.2113C86.4875 93.6938 83.4626 93.71 80.5064 94.2591C79.6503 94.412 78.8688 94.8609 78.2884 95.5331C77.7079 96.2054 77.3624 97.0617 77.3078 97.9636Z" fill="#F2635F"/>
<path d="M84.4944 80.6413C84.4944 82.873 84.6245 85.1015 84.5764 87.3342C84.5764 87.8863 84.7872 88.4158 85.1625 88.8062C85.5378 89.1966 86.0467 89.4159 86.5774 89.4159C87.1081 89.4159 87.6171 89.1966 87.9923 88.8062C88.3676 88.4158 88.5784 87.8863 88.5784 87.3342C88.6264 85.1015 88.4994 82.873 88.4964 80.6413C88.4964 80.0892 88.2856 79.5597 87.9103 79.1693C87.535 78.7789 87.0261 78.5596 86.4954 78.5596C85.9647 78.5596 85.4557 78.7789 85.0805 79.1693C84.7052 79.5597 84.4944 80.0892 84.4944 80.6413Z" fill="#211715"/>
<path d="M57.6691 22.5635C57.7312 27.3765 57.7692 32.1896 57.8162 37.0015C57.8976 45.4548 57.9756 53.9074 58.0503 62.3594C58.1364 71.9299 58.2221 81.5007 58.3075 91.072C58.3815 99.399 58.4559 107.726 58.5306 116.053C58.5719 120.616 58.6143 125.179 58.6576 129.742L58.6636 130.313C58.6709 130.863 58.884 131.388 59.2577 131.777C59.6314 132.165 60.1362 132.387 60.6646 132.395C68.005 132.293 75.3456 132.202 82.6866 132.121C95.9552 131.961 109.224 131.803 122.493 131.647C137.728 131.468 152.963 131.292 168.197 131.12C181.546 130.968 194.894 130.822 208.242 130.68C215.819 130.601 223.397 130.505 230.974 130.472C231.321 130.472 231.667 130.472 232.014 130.472C232.542 130.465 233.047 130.243 233.421 129.854C233.795 129.466 234.008 128.94 234.015 128.391C233.835 114.618 233.567 100.845 233.327 87.0729C233.024 69.7506 232.719 52.428 232.411 35.1051C232.329 30.4503 232.235 25.7965 232.174 21.1417C232.167 20.5919 231.954 20.0668 231.58 19.678C231.206 19.2892 230.701 19.0675 230.173 19.0599C223.622 19.1515 217.066 19.1973 210.517 19.2587C197.649 19.3795 184.781 19.4961 171.914 19.6085C156.679 19.7424 141.445 19.8732 126.21 20.0009C112.627 20.114 99.0431 20.2226 85.459 20.3267C77.2949 20.3881 69.1308 20.461 60.9668 20.4839C60.5346 20.4839 60.101 20.4839 59.6661 20.4839C57.0909 20.4839 57.0858 24.6474 59.6661 24.6474C66.8757 24.6474 74.0853 24.5724 81.2949 24.5193C94.5015 24.4229 107.708 24.3188 120.915 24.2071C136.168 24.0815 151.421 23.9514 166.674 23.8167C179.96 23.7002 193.246 23.5808 206.532 23.4587C214.078 23.3893 221.624 23.3147 229.169 23.2349C229.504 23.2349 229.838 23.2276 230.17 23.2224L228.169 21.1406C228.321 32.7277 228.569 44.3147 228.769 55.9007C229.087 73.8364 229.4 91.7714 229.709 109.706C229.814 115.933 229.926 122.161 230.009 128.389L232.01 126.308C225.39 126.308 218.769 126.412 212.15 126.48C199.252 126.613 186.353 126.752 173.454 126.897C158.24 127.068 143.026 127.242 127.812 127.417C114.139 127.578 100.463 127.74 86.7846 127.903C78.5319 128.003 70.2784 128.105 62.0243 128.208L60.6606 128.227L62.6616 130.309C62.6146 126.395 62.5866 122.48 62.5506 118.566C62.4785 110.579 62.4072 102.591 62.3365 94.6037C62.2511 85.0609 62.1657 75.5178 62.0803 65.9743C62.0023 57.2372 61.9223 48.5004 61.8402 39.764C61.7902 34.3577 61.7365 28.9517 61.6791 23.5461L61.6671 22.5583C61.6391 19.8874 57.6371 19.8791 57.6691 22.5635Z" fill="#211715"/>
<path d="M195.717 39.481C191.124 44.1858 186.912 49.2486 182.488 54.123C182.302 54.3163 182.155 54.5458 182.054 54.7983C181.954 55.0509 181.902 55.3216 181.902 55.595C181.902 56.1471 182.113 56.6767 182.488 57.0671C182.863 57.4576 183.372 57.6771 183.903 57.6772C184.433 57.6772 184.942 57.458 185.318 57.0677C189.739 52.1932 193.954 47.1304 198.546 42.4246C200.384 40.5417 197.554 37.5981 195.717 39.481Z" fill="#211715"/>
<path d="M197.314 43.3561C197.414 43.4341 197.514 43.5143 197.614 43.5934C197.914 43.8297 197.388 43.4102 197.471 43.4779C197.554 43.5455 197.655 43.6257 197.746 43.7006C198.178 44.0476 198.609 44.397 199.04 44.7488C200.24 45.7203 201.437 46.6962 202.629 47.6768C205.261 49.8279 207.889 51.9829 210.515 54.1416C211.378 54.8508 212.239 55.561 213.099 56.2723C213.481 56.6476 213.988 56.8565 214.514 56.8565C215.04 56.8565 215.546 56.6476 215.929 56.2723C216.3 55.8798 216.509 55.3509 216.509 54.8C216.509 54.2491 216.3 53.7202 215.929 53.3277C211.358 49.5233 206.744 45.7719 202.134 42.0196C201.204 41.2629 200.276 40.502 199.333 39.7609C198.874 39.4855 198.329 39.4094 197.816 39.5491C197.304 39.6888 196.865 40.033 196.594 40.5072C196.339 40.9871 196.272 41.5508 196.405 42.0813C196.539 42.6117 196.864 43.0682 197.313 43.3561H197.314Z" fill="#211715"/>
<path d="M193.95 54.9276C196.885 54.5216 199.847 54.353 202.79 54.0262C203.317 54.008 203.82 53.7912 204.205 53.4162C204.485 53.1251 204.675 52.7542 204.752 52.3504C204.83 51.9467 204.79 51.5282 204.639 51.1478C204.487 50.7675 204.231 50.4424 203.902 50.2137C203.573 49.9849 203.186 49.8628 202.79 49.8627C199.847 50.1895 196.887 50.3581 193.95 50.7641C193.424 50.7846 192.923 50.9998 192.536 51.3709C192.164 51.7633 191.954 52.2914 191.95 52.8427C191.993 53.8482 192.839 55.0785 193.951 54.9245L193.95 54.9276Z" fill="#211715"/>
<path d="M190.116 59.2888C190.343 62.3261 190.637 65.3561 191.016 68.3767C191.036 68.9248 191.244 69.4475 191.603 69.8495C191.98 70.2365 192.488 70.455 193.017 70.4584C193.986 70.4137 195.163 69.5341 195.018 68.3767C194.64 65.3581 194.346 62.3261 194.118 59.2888C194.118 58.7367 193.907 58.2072 193.532 57.8168C193.157 57.4264 192.648 57.207 192.117 57.207C191.586 57.207 191.077 57.4264 190.702 57.8168C190.327 58.2072 190.116 58.7367 190.116 59.2888Z" fill="#211715"/>
<path d="M192.728 61.8171C196.418 61.3227 200.145 61.0708 203.856 60.8293C204.271 60.8022 204.067 60.8158 203.776 60.6909C203.969 60.8109 203.944 60.7873 203.699 60.6201C203.583 60.5113 203.492 60.3775 203.431 60.2281C203.37 60.0787 203.341 59.9173 203.347 59.7551C203.369 60.1101 203.378 59.651 203.355 59.6719C203.332 59.6927 203.318 59.8394 203.306 59.88C203.168 60.4296 203.082 60.999 202.969 61.5548C202.681 63.1414 202.316 64.7116 201.874 66.2596C201.738 66.7922 201.808 67.3592 202.07 67.8382C202.332 68.3172 202.765 68.6698 203.275 68.8201C203.786 68.9546 204.328 68.878 204.787 68.6064C205.246 68.3348 205.586 67.8893 205.736 67.3629C206.143 66.0295 206.424 64.6566 206.704 63.2879C206.967 62.216 207.177 61.1306 207.332 60.0362C207.375 59.4808 207.271 58.9237 207.033 58.4249C206.794 57.926 206.43 57.5043 205.978 57.205C205.092 56.7048 204.07 56.5305 203.077 56.7106C201.318 56.8299 199.56 56.9656 197.804 57.1175C196.112 57.2643 194.419 57.4204 192.735 57.6463C192.209 57.6605 191.708 57.8844 191.336 58.2718C190.963 58.6591 190.748 59.1804 190.734 59.7281C190.777 60.7367 191.624 61.9597 192.735 61.8098L192.728 61.8171Z" fill="#211715"/>
<path d="M193.171 70.039C196.872 69.7434 200.574 69.4894 204.284 69.2386C204.815 69.2386 205.324 69.0193 205.699 68.6289C206.074 68.2384 206.285 67.7089 206.285 67.1568C206.285 66.6047 206.074 66.0752 205.699 65.6848C205.324 65.2944 204.815 65.0751 204.284 65.0751C200.582 65.3259 196.872 65.5799 193.171 65.8755C192.64 65.8755 192.131 66.0948 191.756 66.4852C191.38 66.8756 191.17 67.4051 191.17 67.9573C191.17 68.5094 191.38 69.0389 191.756 69.4293C192.131 69.8197 192.64 70.039 193.171 70.039Z" fill="#211715"/>
<path d="M183.45 85.7437C187.696 84.8475 191.854 84.3105 196.131 83.8004C196.658 83.7875 197.16 83.564 197.532 83.1764C197.905 82.7887 198.12 82.2667 198.132 81.7187C198.088 80.6976 197.246 79.5047 196.131 79.6369C191.529 80.1844 186.926 80.7704 182.385 81.7291C182.132 81.8018 181.895 81.9257 181.687 82.0938C181.48 82.2619 181.306 82.4708 181.177 82.7086C181.047 82.9464 180.964 83.2085 180.931 83.4798C180.899 83.7512 180.918 84.0266 180.988 84.2902C181.058 84.5538 181.177 84.8005 181.339 85.0162C181.5 85.2319 181.701 85.4124 181.929 85.5474C182.158 85.6823 182.41 85.7692 182.671 85.8029C182.932 85.8365 183.196 85.8165 183.45 85.7437Z" fill="#211715"/>
<path d="M202.741 82.0767C205.965 81.676 209.184 81.2659 212.42 80.9838C212.951 80.9838 213.46 80.7645 213.835 80.3741C214.21 79.9837 214.421 79.4542 214.421 78.9021C214.421 78.35 214.21 77.8205 213.835 77.4301C213.46 77.0396 212.951 76.8203 212.42 76.8203C209.184 77.1024 205.965 77.5125 202.741 77.9132C202.215 77.9267 201.713 78.1503 201.341 78.5379C200.968 78.9254 200.753 79.4471 200.74 79.995C200.784 81.0119 201.629 82.2152 202.741 82.0767Z" fill="#211715"/>
<path d="M188.134 76.5601C187.803 85.8385 187.644 95.1231 187.442 104.405C187.383 107.085 191.385 107.084 191.444 104.405C191.644 95.1231 191.805 85.8385 192.136 76.5601C192.231 73.8809 188.229 73.885 188.134 76.5601Z" fill="#211715"/>
<path d="M188.179 83.4298C185.613 87.33 183.122 90.6369 180.332 94.2497C179.969 94.6467 179.766 95.1739 179.766 95.7221C179.766 96.2702 179.969 96.7974 180.332 97.1944C180.71 97.5792 181.218 97.7947 181.747 97.7947C182.276 97.7947 182.784 97.5792 183.163 97.1944C186.095 93.3952 188.987 89.5533 191.635 85.5314C191.9 85.054 191.973 84.4872 191.839 83.9541C191.704 83.4209 191.373 82.9643 190.917 82.6835C190.456 82.418 189.914 82.3474 189.405 82.4864C188.895 82.6254 188.456 82.9632 188.179 83.4298Z" fill="#211715"/>
<path d="M190.024 88.1794C190.692 88.857 191.304 89.5981 191.91 90.3351C192.578 91.149 193.235 91.9744 193.864 92.8217L193.552 92.4054L193.583 92.447C193.863 92.9001 194.285 93.2382 194.778 93.4036C195.299 93.5477 195.852 93.4729 196.32 93.1954C196.77 92.9184 197.1 92.4707 197.24 91.9463C197.315 91.6792 197.336 91.3986 197.302 91.1225C197.267 90.8463 197.178 90.5807 197.039 90.3423C196.31 89.3577 195.558 88.3924 194.784 87.4466C194.165 86.6909 193.54 85.9311 192.855 85.2379C192.476 84.8543 191.97 84.6361 191.441 84.6279C190.91 84.6319 190.403 84.8507 190.025 85.2379C189.651 85.6292 189.441 86.1581 189.44 86.7097C189.446 87.2603 189.655 87.7873 190.025 88.1815L190.024 88.1794Z" fill="#211715"/>
<path d="M201.941 75.8316C201.13 77.2336 200.255 78.5951 199.333 79.9201C199.101 80.2539 198.867 80.5849 198.632 80.9131C198.521 81.0661 198.4 81.2139 198.296 81.3721C198.363 81.268 198.513 81.0828 198.357 81.2899C198.287 81.3826 198.217 81.4762 198.146 81.5689C197.672 82.1934 197.184 82.8079 196.681 83.4123C196.496 83.6056 196.348 83.8351 196.248 84.0877C196.147 84.3403 196.095 84.611 196.095 84.8844C196.096 85.1578 196.147 85.4285 196.248 85.6811C196.349 85.9336 196.496 86.1631 196.682 86.3564C196.868 86.5497 197.088 86.703 197.331 86.8075C197.574 86.9121 197.834 86.9659 198.097 86.9659C198.36 86.9658 198.62 86.9119 198.863 86.8073C199.105 86.7026 199.326 86.5492 199.512 86.3559C201.703 83.7289 203.673 80.911 205.401 77.9331C205.669 77.4558 205.743 76.8873 205.608 76.3528C205.473 75.8182 205.14 75.3613 204.681 75.0826C204.222 74.804 203.676 74.7263 203.162 74.8668C202.648 75.0072 202.209 75.3542 201.941 75.8316Z" fill="#211715"/>
<path d="M210.696 77.856C209.48 79.5943 208.311 81.3731 207.017 83.051C205.632 84.8486 204.081 86.4859 202.539 88.1388C199.741 91.1844 196.751 94.033 193.59 96.6657C193.218 97.0577 193.009 97.5865 193.009 98.1375C193.009 98.6885 193.218 99.2173 193.59 99.6093C193.971 99.9876 194.478 100.199 195.005 100.199C195.532 100.199 196.039 99.9876 196.42 99.6093C199.66 96.9062 202.722 93.9804 205.586 90.8514C207.157 89.2197 208.649 87.5071 210.055 85.7198C211.482 83.8463 212.799 81.8852 214.152 79.9523C214.416 79.4747 214.489 78.9081 214.354 78.3751C214.22 77.8422 213.889 77.3857 213.434 77.1045C212.973 76.8381 212.431 76.7672 211.921 76.9064C211.411 77.0456 210.972 77.3843 210.696 77.8519V77.856Z" fill="#211715"/>
<path d="M200.154 85.7199C204.909 88.8063 209.461 92.2179 213.781 95.9319C214.162 96.3101 214.669 96.5211 215.195 96.5211C215.722 96.5211 216.229 96.3101 216.61 95.9319C216.981 95.5391 217.189 95.0104 217.189 94.4596C217.189 93.9088 216.981 93.3801 216.61 92.9873C212.036 89.0356 207.214 85.4066 202.174 82.1247C201.716 81.846 201.17 81.7681 200.656 81.9082C200.143 82.0482 199.704 82.3947 199.436 82.8715C199.168 83.3482 199.093 83.9162 199.228 84.4504C199.363 84.9845 199.696 85.4412 200.154 85.7199Z" fill="#211715"/>
<path d="M198.33 96.827C198.523 99.4063 198.773 101.981 199.094 104.547C199.114 105.095 199.322 105.617 199.681 106.019C199.867 106.212 200.087 106.366 200.33 106.47C200.573 106.575 200.833 106.629 201.096 106.629C201.359 106.629 201.619 106.575 201.862 106.47C202.105 106.366 202.325 106.212 202.511 106.019C202.701 105.829 202.85 105.6 202.951 105.347C203.052 105.093 203.101 104.821 203.096 104.547C202.775 101.981 202.525 99.4063 202.332 96.827C202.332 96.2749 202.121 95.7454 201.746 95.355C201.371 94.9646 200.862 94.7452 200.331 94.7452C199.8 94.7452 199.291 94.9646 198.916 95.355C198.541 95.7454 198.33 96.2749 198.33 96.827Z" fill="#211715"/>
<path d="M200.85 99.2887C203.985 98.8723 207.153 98.6537 210.303 98.4487C210.772 98.4185 210.303 98.4091 210.084 98.2884C210.27 98.4039 210.227 98.3675 209.957 98.1791C209.83 98.058 209.73 97.91 209.663 97.7451C209.597 97.5803 209.565 97.4024 209.57 97.2236C209.583 97.5723 209.618 97.0154 209.587 97.0685C209.566 97.127 209.553 97.1878 209.546 97.2496C209.429 97.717 209.355 98.1999 209.26 98.6725C209.015 100.02 208.705 101.354 208.329 102.668C208.193 103.201 208.263 103.768 208.525 104.247C208.787 104.726 209.22 105.079 209.73 105.229C210.241 105.364 210.783 105.287 211.242 105.016C211.701 104.744 212.041 104.298 212.191 103.772C212.537 102.639 212.776 101.471 213.013 100.31C213.244 99.3726 213.426 98.4229 213.558 97.4651C213.594 96.9383 213.493 96.411 213.264 95.9396C213.034 95.4683 212.687 95.0706 212.257 94.789C211.458 94.334 210.536 94.1712 209.638 94.3268C208.144 94.4274 206.651 94.5426 205.158 94.6724C203.722 94.7973 202.283 94.9295 200.856 95.1221C200.33 95.1363 199.829 95.3602 199.457 95.7475C199.084 96.1349 198.869 96.6562 198.855 97.2038C198.899 98.2124 199.745 99.4344 200.856 99.2856L200.85 99.2887Z" fill="#211715"/>
<path d="M201.323 106.104C204.433 105.883 207.551 105.695 210.667 105.592C211.198 105.592 211.707 105.373 212.082 104.982C212.457 104.592 212.668 104.063 212.668 103.51C212.668 102.958 212.457 102.429 212.082 102.038C211.707 101.648 211.198 101.429 210.667 101.429C207.551 101.533 204.433 101.719 201.323 101.941C200.792 101.941 200.283 102.16 199.908 102.551C199.532 102.941 199.322 103.47 199.322 104.023C199.322 104.575 199.532 105.104 199.908 105.495C200.283 105.885 200.792 106.104 201.323 106.104Z" fill="#211715"/>
<path d="M168.64 88.448C168.764 73.6176 168.48 58.7955 168.44 43.9651C168.433 41.2869 164.431 41.2817 164.438 43.9651C164.481 58.7955 164.765 73.6176 164.638 88.448C164.616 91.1272 168.618 91.1303 168.64 88.448Z" fill="#211715"/>
<path d="M132.768 81.8165C132.768 87.8858 132.568 93.9458 132.797 100.013C132.897 102.684 136.899 102.696 136.799 100.013C136.574 93.9458 136.767 87.8858 136.77 81.8165C136.77 79.1383 132.768 79.1331 132.768 81.8165Z" fill="#211715"/>
<path d="M150.694 84.9007C153.269 84.9007 153.274 80.7372 150.694 80.7372C148.115 80.7372 148.114 84.9007 150.694 84.9007Z" fill="#211715"/>
<path d="M148.814 48.3159C148.893 53.2912 148.793 58.2604 148.693 63.2347C148.612 67.2504 148.839 71.2495 148.836 75.2631C148.836 77.9423 152.838 77.9465 152.838 75.2631C152.838 71.2495 152.614 67.2484 152.695 63.2347C152.795 58.2604 152.895 53.2912 152.816 48.3159C152.774 45.6398 148.772 45.6314 148.814 48.3159Z" fill="#211715"/>
<path d="M132.778 42.8034C132.544 53.0862 132.812 63.3628 132.978 73.6446C133.021 76.3207 137.023 76.329 136.98 73.6446C136.814 63.3628 136.546 53.0862 136.78 42.8034C136.841 40.1231 132.839 40.1242 132.778 42.8034Z" fill="#211715"/>
<path d="M117.474 46.1956C117.618 56.3692 117.217 66.5531 117.262 76.7287C117.282 81.0723 117.306 85.4159 117.295 89.7584C117.288 92.4376 121.29 92.4418 121.297 89.7584C121.328 77.476 121.309 65.2104 121.444 52.9332C121.469 50.688 121.508 48.4408 121.476 46.1956C121.438 43.5195 117.436 43.5112 117.474 46.1956Z" fill="#211715"/>
<path d="M101.984 49.0872C101.812 51.6998 101.931 54.3197 101.984 56.9344C102.037 59.4481 101.95 61.9566 101.946 64.4693C101.946 67.1485 105.948 67.1527 105.948 64.4693C105.948 61.9566 106.039 59.4481 105.986 56.9344C105.932 54.3197 105.813 51.6998 105.986 49.0872C105.986 48.5351 105.775 48.0056 105.4 47.6152C105.025 47.2248 104.516 47.0055 103.985 47.0055C103.454 47.0055 102.945 47.2248 102.57 47.6152C102.195 48.0056 101.984 48.5351 101.984 49.0872Z" fill="#211715"/>
<path d="M221.951 108.282C222.061 108.031 222.209 107.8 222.387 107.596C224.174 105.498 229.765 103.557 233.398 104.064C236.97 104.563 240.737 107.291 244.253 110.481C246.587 112.933 246.844 118.053 247.177 123.729C247.439 128.204 245.351 144.928 244.35 148.468L243.805 151.109C239.534 149.943 234.145 148.558 230.309 147.674L230.456 146.977C228.055 146.125 226.925 145.216 226.254 142.479C225.835 140.757 226.142 140.403 225.025 139.059C224.009 138.174 222.847 137.486 221.597 137.029C218.38 135.524 218.369 131.034 220.858 129.57C218.915 127.147 219.186 123.482 220.558 122.324C220.867 122.062 221.208 121.843 221.573 121.675L221.373 121.349C220.337 120.123 219.49 117.278 220.121 115.704C220.676 114.323 223.06 113.074 224.575 112.943L223.786 112.196C222.467 110.949 221.365 109.649 221.951 108.282Z" fill="white"/>
<path d="M221.685 131.839C221.793 131.852 221.901 131.866 222.009 131.88C222.277 131.912 221.763 131.845 221.747 131.842C221.811 131.854 221.875 131.862 221.939 131.871C222.227 131.915 222.513 131.963 222.799 132.014C223.526 132.143 224.248 132.291 224.968 132.45C226.734 132.841 228.483 133.303 230.216 133.836C230.728 133.983 231.275 133.913 231.736 133.64C232.198 133.368 232.537 132.915 232.678 132.383C232.819 131.851 232.751 131.282 232.489 130.801C232.227 130.321 231.792 129.969 231.28 129.822C228.149 128.815 224.938 128.096 221.685 127.676C221.154 127.677 220.646 127.897 220.271 128.287C219.896 128.677 219.685 129.206 219.684 129.757C219.698 130.305 219.914 130.826 220.286 131.213C220.658 131.6 221.159 131.824 221.685 131.839Z" fill="#211715"/>
<path d="M225.203 110.726C224.822 110.359 224.059 109.781 223.883 109.234C223.813 109.019 223.722 109.13 224.044 108.806C224.714 108.202 225.482 107.725 226.311 107.397C228.335 106.436 230.549 105.986 232.772 106.084C235.156 106.273 237.375 107.665 239.294 109.043C241.113 110.349 243.179 111.714 243.94 113.969C244.638 116.46 245.01 119.037 245.047 121.631C245.171 123.269 245.202 124.913 245.14 126.554C244.958 130.286 244.54 134.011 244.08 137.716C243.771 141.154 243.216 144.564 242.418 147.916C241.707 150.497 245.568 151.599 246.277 149.024C247.125 145.41 247.715 141.736 248.043 138.032C248.646 133.798 249.029 129.532 249.19 125.254C249.202 122.795 249.053 120.337 248.743 117.899C248.433 115.132 247.996 112.154 246.348 109.865C245.421 108.726 244.351 107.721 243.168 106.876C241.787 105.725 240.311 104.704 238.756 103.824C236.323 102.393 233.533 101.752 230.746 101.984C227.746 102.227 224.851 103.244 222.323 104.942C221.626 105.357 221.033 105.938 220.593 106.637C220.153 107.336 219.877 108.133 219.789 108.964C219.715 110.89 221.114 112.458 222.372 113.673C224.258 115.493 227.094 112.556 225.203 110.728V110.726Z" fill="#211715"/>
<path d="M237.566 113.223C235.204 112.324 232.77 111.647 230.292 111.198C227.981 110.842 225.235 110.44 222.961 111.171C220.866 111.846 218.501 113.341 218.031 115.744C217.845 116.999 217.92 118.28 218.253 119.502C218.586 120.723 219.168 121.856 219.959 122.822C220.336 123.209 220.844 123.426 221.374 123.426C221.903 123.426 222.411 123.209 222.788 122.822C223.153 122.426 223.357 121.899 223.357 121.35C223.357 120.802 223.153 120.274 222.788 119.878C223.021 120.171 222.654 119.651 222.641 119.63C222.546 119.465 222.459 119.295 222.381 119.121C222.249 118.79 222.139 118.451 222.052 118.105C221.961 117.771 221.913 117.426 221.908 117.079C221.908 116.975 221.93 116.559 221.89 116.85C221.89 116.821 222.062 116.184 221.926 116.59C222.026 116.292 221.884 116.59 222.003 116.449C222.118 116.311 222.243 116.183 222.378 116.067C222.233 116.194 222.706 115.835 222.704 115.836C222.87 115.726 223.042 115.627 223.217 115.532C223.507 115.368 223.814 115.241 224.132 115.151C224.302 115.099 224.473 115.055 224.646 115.02C224.797 114.99 224.779 114.991 224.594 115.02C224.705 115.011 224.817 115.007 224.928 115.006C226.789 114.961 228.649 115.105 230.482 115.436C232.524 115.9 234.535 116.501 236.502 117.234C236.756 117.307 237.02 117.327 237.281 117.293C237.542 117.26 237.794 117.173 238.022 117.038C238.251 116.903 238.452 116.722 238.613 116.506C238.774 116.291 238.894 116.044 238.963 115.78C239.033 115.517 239.052 115.241 239.02 114.97C238.988 114.699 238.904 114.437 238.774 114.199C238.644 113.961 238.471 113.752 238.264 113.584C238.056 113.416 237.819 113.292 237.566 113.22V113.223Z" fill="#211715"/>
<path d="M234.564 121.046C232.341 120.442 230.081 120.121 227.817 119.747C225.64 119.389 223.341 118.757 221.191 119.602C220.028 120.006 219.027 120.8 218.344 121.86C217.87 122.718 217.587 123.675 217.514 124.662C217.414 125.797 217.531 126.941 217.857 128.03C218.184 129.118 218.713 130.128 219.415 131.003C219.791 131.391 220.3 131.608 220.829 131.608C221.359 131.608 221.867 131.391 222.244 131.003C222.608 130.606 222.81 130.079 222.81 129.531C222.81 128.983 222.608 128.455 222.244 128.059C222.444 128.328 222.133 127.866 222.099 127.808C221.999 127.635 221.91 127.456 221.821 127.276C221.621 126.869 221.838 127.439 221.735 127.037C221.679 126.818 221.608 126.604 221.559 126.383C221.545 126.316 221.459 125.753 221.486 126.003C221.513 126.253 221.474 125.696 221.472 125.633C221.472 125.453 221.479 125.274 221.48 125.095C221.48 125.008 221.49 124.92 221.499 124.833C221.463 125.074 221.457 125.118 221.483 124.965C221.533 124.814 221.545 124.641 221.583 124.486C221.62 124.348 221.844 123.849 221.605 124.335C221.667 124.209 221.738 124.088 221.799 123.962C221.961 123.627 221.507 124.2 221.799 123.967C222.091 123.734 221.379 124.191 221.95 123.834C222.136 123.704 222.333 123.591 222.537 123.495C222.26 123.608 222.861 123.417 222.861 123.417C222.937 123.399 223.497 123.332 223.143 123.358C223.549 123.329 223.957 123.332 224.362 123.368C224.379 123.368 225.011 123.452 224.625 123.393C224.818 123.422 225.011 123.456 225.203 123.49C226.092 123.648 226.98 123.802 227.871 123.94C229.766 124.209 231.646 124.584 233.503 125.062C233.756 125.135 234.021 125.155 234.282 125.121C234.543 125.087 234.795 125 235.023 124.865C235.252 124.73 235.453 124.55 235.614 124.334C235.776 124.118 235.895 123.871 235.965 123.608C236.035 123.344 236.054 123.069 236.022 122.797C235.989 122.526 235.906 122.264 235.776 122.026C235.646 121.788 235.473 121.579 235.265 121.411C235.058 121.243 234.821 121.119 234.567 121.046H234.564Z" fill="#211715"/>
<path d="M230.985 144.971C230.622 144.856 230.269 144.708 229.931 144.526C229.769 144.439 229.61 144.346 229.457 144.245C229.357 144.18 229.263 144.112 229.168 144.037C229.349 144.18 229.353 144.175 229.18 144.022C229.068 143.89 228.941 143.774 228.831 143.637C229.105 143.977 228.742 143.464 228.694 143.378C228.659 143.315 228.401 142.741 228.522 143.049C228.44 142.841 228.374 142.619 228.311 142.403C228.052 141.511 228.011 140.557 227.711 139.684C227.265 138.471 226.469 137.431 225.432 136.708C224.592 136.159 223.707 135.692 222.785 135.311C222.534 135.198 222.29 135.068 222.055 134.921C221.73 134.713 222.119 135.032 221.829 134.743C221.688 134.609 221.557 134.464 221.438 134.309C221.667 134.621 221.287 133.99 221.253 133.922C221.409 134.234 221.226 133.839 221.191 133.714C221.14 133.535 221.099 133.354 221.07 133.17C221.146 133.658 221.091 132.902 221.086 132.808C221.06 132.319 220.979 133.111 221.097 132.641C221.148 132.433 221.198 132.238 221.262 132.039C221.312 131.897 221.301 131.926 221.227 132.127C221.278 132.023 221.327 131.919 221.392 131.815C221.575 131.425 221.182 131.972 221.487 131.676C221.563 131.589 221.644 131.507 221.73 131.429C221.546 131.568 221.548 131.568 221.738 131.429C222.187 131.141 222.512 130.685 222.645 130.154C222.779 129.623 222.711 129.06 222.455 128.58C222.184 128.107 221.745 127.764 221.233 127.625C220.721 127.485 220.177 127.56 219.718 127.834C218.709 128.546 217.932 129.56 217.49 130.742C217.049 131.925 216.963 133.219 217.245 134.453C217.495 135.618 218.055 136.686 218.861 137.536C219.78 138.371 220.837 139.023 221.982 139.461C222.269 139.603 222.555 139.75 222.831 139.914C222.918 139.965 223.498 140.377 223.34 140.236C223.44 140.325 223.781 140.743 223.751 140.698C223.824 140.807 223.891 140.921 223.951 141.038C223.869 140.806 223.864 140.797 223.937 141.012C224.095 142.076 224.34 143.124 224.669 144.144C225.618 146.746 227.471 148.082 229.928 148.972C230.181 149.044 230.446 149.064 230.707 149.031C230.968 148.997 231.22 148.91 231.448 148.775C231.677 148.64 231.878 148.459 232.039 148.243C232.201 148.028 232.32 147.781 232.39 147.517C232.459 147.253 232.479 146.978 232.446 146.707C232.414 146.435 232.33 146.173 232.2 145.935C232.07 145.698 231.897 145.489 231.689 145.321C231.482 145.153 231.245 145.029 230.991 144.956L230.985 144.971Z" fill="#211715"/>
<path d="M52.2263 108.752C53.8986 107.401 55.8257 106.431 57.8822 105.907C61.4749 105.145 67.1788 106.687 69.0987 108.656C70.5805 110.174 69.4379 111.783 67.9982 113.346C67.9982 113.346 67.69 113.68 67.2568 114.143C68.7806 114.17 71.2398 115.249 71.8831 116.588C72.6155 118.114 71.9552 121.012 71.0017 122.308L70.8126 122.642C71.1926 122.784 71.552 122.98 71.8811 123.224C73.3218 124.282 73.8301 127.919 72.0492 130.473C74.6285 131.76 74.9086 136.239 71.7971 137.968C70.5792 138.511 69.4656 139.279 68.5094 140.234C67.4829 141.653 67.8091 141.985 67.5089 143.733C67.0217 146.511 65.9512 147.497 63.613 148.515L64.1793 150.727C60.2974 151.957 55.3509 153.641 51.552 154.994L50.8577 152.625C49.7161 148.878 45.448 130.985 45.4189 126.499C45.3819 120.813 45.3059 115.687 47.475 113.072C48.9486 111.506 50.5372 110.062 52.2263 108.752Z" fill="white"/>
<path d="M70.7046 128.708C67.666 129.337 64.6864 130.243 61.8001 131.414C61.2942 131.571 60.8659 131.924 60.6048 132.402C60.3438 132.879 60.2702 133.442 60.3994 133.975C60.545 134.504 60.8842 134.953 61.3443 135.226C61.8044 135.498 62.3487 135.572 62.8607 135.432C65.7469 134.26 68.7265 133.355 71.7651 132.726C72.2759 132.577 72.7098 132.225 72.9721 131.746C73.2345 131.266 73.3041 130.698 73.1658 130.165C73.013 129.64 72.6724 129.197 72.2142 128.925C71.756 128.654 71.2163 128.576 70.7046 128.708Z" fill="#211715"/>
<path d="M69.4119 114.818C70.5725 113.533 71.8661 111.966 71.7901 110.079C71.7117 109.283 71.45 108.518 71.0272 107.849C70.6043 107.18 70.0328 106.627 69.3609 106.237C67.0744 104.811 64.5007 103.959 61.8431 103.747C59.0329 103.395 56.1867 103.951 53.6901 105.338C50.7202 106.974 48.0711 109.173 45.8802 111.824C44.0303 114.139 43.6511 117.332 43.486 120.23C43.2895 122.782 43.2962 125.346 43.506 127.896C44.0389 132.156 44.8119 136.38 45.8212 140.546C46.7546 144.769 47.6731 149.038 48.9227 153.176C49.6921 155.723 53.557 154.633 52.7816 152.069C50.7834 145.218 49.1897 138.246 48.0092 131.193C47.8732 130.421 47.7441 129.649 47.6321 128.874C47.561 128.385 47.498 127.981 47.445 127.208C47.3025 124.746 47.3252 122.277 47.513 119.818C47.6611 117.612 47.9732 115.446 49.548 113.862C51.5211 111.692 53.8456 109.9 56.4154 108.567C58.7642 107.622 61.3508 107.53 63.7561 108.306C64.8466 108.565 65.8978 108.978 66.8806 109.534C67.0807 109.654 67.7741 109.993 67.8031 110.27C67.8391 110.614 66.8306 111.594 66.5815 111.87C64.8196 113.822 67.644 116.772 69.4109 114.814L69.4119 114.818Z" fill="#211715"/>
<path d="M55.51 119.31C59.2378 117.703 63.0818 116.23 67.1478 116.226C67.7067 116.259 68.2561 116.39 68.7726 116.615C69.1493 116.779 69.5062 116.989 69.8361 117.24C69.605 117.057 70.0062 117.418 70.0492 117.458C70.3043 117.709 70.0622 117.321 70.1493 117.636C70.0492 117.279 70.1713 117.821 70.1853 117.898C70.1343 117.606 70.1853 118.003 70.1853 118.107C70.196 118.437 70.1729 118.767 70.1163 119.092C70.012 119.874 69.7198 120.617 69.2668 121.25C69.0031 121.728 68.9305 122.294 69.065 122.827C69.1994 123.36 69.5299 123.817 69.9852 124.098C70.4459 124.365 70.9879 124.436 71.498 124.297C72.008 124.158 72.4468 123.819 72.7226 123.352C73.3677 122.374 73.8139 121.27 74.0336 120.106C74.2533 118.943 74.2419 117.745 74.0002 116.586C73.4089 114.21 70.9837 112.79 68.8276 112.279C66.5085 111.729 63.8301 112.245 61.542 112.765C59.1067 113.386 56.7294 114.231 54.4385 115.291C53.9356 115.452 53.5107 115.807 53.2504 116.283C52.9901 116.758 52.9141 117.32 53.0378 117.852C53.1811 118.383 53.5199 118.833 53.9806 119.106C54.4414 119.379 54.987 119.452 55.499 119.309L55.51 119.31Z" fill="#211715"/>
<path d="M59.0137 126.905C60.8142 126.303 62.6444 125.802 64.4965 125.404C65.3696 125.204 66.2407 124.994 67.1098 124.775C67.51 124.67 67.9042 124.577 68.3104 124.503C68.4104 124.483 68.5105 124.466 68.6195 124.451C68.4694 124.475 68.4664 124.479 68.6095 124.463C68.8216 124.448 69.0317 124.436 69.2438 124.439C69.3349 124.439 69.7251 124.461 69.4569 124.429C69.6731 124.462 69.8862 124.514 70.0942 124.583C70.2283 124.601 70.3546 124.658 70.4584 124.749C70.6014 124.832 70.74 124.923 70.8736 125.021L70.6625 124.859C70.7296 124.784 71.0317 125.483 70.6975 124.854C70.7636 124.98 70.8476 125.116 70.9217 125.237C71.1548 125.622 70.8396 124.869 70.9627 125.331C71.0077 125.497 71.0627 125.657 71.1007 125.825C71.1158 125.889 71.2008 126.462 71.1488 125.984C71.1698 126.172 71.1808 126.361 71.1848 126.55C71.1888 126.74 71.1738 126.939 71.1748 127.133C71.1748 127.569 71.2478 126.901 71.1528 127.374C71.0833 127.744 70.987 128.109 70.8646 128.464C70.8156 128.6 70.8186 128.596 70.8726 128.452C70.8296 128.549 70.7836 128.643 70.7346 128.737C70.6187 128.958 70.4914 129.173 70.3534 129.379C70.2191 129.615 70.131 129.877 70.0942 130.148C70.0573 130.42 70.0724 130.696 70.1386 130.962C70.2047 131.227 70.3207 131.477 70.4798 131.695C70.6388 131.914 70.8379 132.098 71.0655 132.237C71.2931 132.375 71.5447 132.465 71.806 132.502C72.0672 132.539 72.3329 132.522 72.5878 132.452C72.8426 132.382 73.0816 132.26 73.2911 132.093C73.5005 131.926 73.6762 131.718 73.8081 131.481C75.0067 129.592 75.4449 127.289 75.0287 125.068C74.8584 123.994 74.3921 122.994 73.6863 122.189C72.9806 121.385 72.0658 120.811 71.0527 120.537C68.8376 119.884 66.6115 120.641 64.4494 121.154C62.2549 121.618 60.0844 122.198 57.9462 122.891C57.4405 123.047 57.0126 123.401 56.7516 123.878C56.4906 124.355 56.4168 124.919 56.5455 125.451C56.6906 125.981 57.0297 126.43 57.49 126.703C57.9502 126.975 58.4948 127.049 59.0067 126.908L59.0137 126.905Z" fill="#211715"/>
<path d="M64.6175 150.312C65.7083 149.904 66.6921 149.236 67.4904 148.362C68.2886 147.488 68.8792 146.431 69.2148 145.277C69.3915 144.594 69.5159 143.898 69.587 143.195C69.62 142.917 69.65 142.639 69.6741 142.362C69.7001 142.112 69.6974 142.129 69.6661 142.412C69.6842 142.307 69.7082 142.202 69.7381 142.1C69.8952 141.731 69.572 142.271 69.8261 141.918C69.9381 141.733 70.0614 141.557 70.1953 141.389C70.5883 141.038 71.0214 140.738 71.485 140.497C72.5595 139.998 73.546 139.316 74.4034 138.478C75.2164 137.558 75.7548 136.413 75.9532 135.181C76.1748 133.944 76.0301 132.666 75.538 131.516C75.046 130.366 74.2299 129.399 73.1978 128.742C70.9647 127.397 68.9477 130.993 71.1778 132.338C71.2858 132.398 71.3903 132.465 71.491 132.538C71.3509 132.424 71.3336 132.415 71.4389 132.51C71.509 132.581 71.8672 133.064 71.653 132.731C71.7541 132.888 71.8443 133.052 71.9232 133.222C71.7521 132.853 71.9622 133.386 71.9762 133.44C72.0082 133.562 72.0703 134.018 72.0372 133.648C72.0551 133.876 72.0584 134.105 72.0472 134.333C72.0352 134.485 72.0422 134.464 72.0662 134.27C72.0452 134.402 72.0182 134.531 71.9852 134.66C71.9662 134.736 71.7771 135.26 71.9232 134.919C71.7807 135.255 71.5743 135.557 71.3163 135.808C71.0584 136.058 70.7543 136.251 70.4224 136.376C69.4229 136.873 68.4827 137.491 67.621 138.215C66.8042 138.955 66.2025 139.918 65.8842 140.995C65.612 141.988 65.6751 142.82 65.478 143.701C65.4259 143.935 65.3669 144.168 65.2959 144.397C65.2829 144.437 65.0458 145.01 65.1958 144.699C65.0992 144.905 64.9885 145.103 64.8647 145.292C64.7836 145.413 64.7966 145.396 64.9027 145.247C64.8246 145.341 64.7426 145.433 64.6566 145.52C64.5995 145.579 64.1973 145.917 64.4965 145.686C64.3382 145.805 64.1739 145.916 64.0042 146.017C63.5525 146.284 63.0846 146.52 62.6035 146.724C62.1481 147.005 61.8174 147.461 61.6831 147.994C61.5488 148.527 61.6218 149.094 61.8862 149.571C62.1633 150.037 62.602 150.375 63.1115 150.514C63.621 150.652 64.1624 150.582 64.6235 150.318L64.6175 150.312Z" fill="#211715"/>
<path d="M50.3295 164.023C49.9133 162.184 49.417 160.363 48.9138 158.548C48.8728 158.401 48.7457 157.569 48.6216 157.507C47.8272 158.361 47.6825 158.669 48.1874 158.433L48.5576 158.292C49.1329 158.073 49.7092 157.861 50.2875 157.65C53.313 156.546 56.3575 155.496 59.41 154.473C62.2864 153.507 65.1709 152.549 68.0833 151.707C68.5823 151.603 69.0743 151.466 69.5561 151.295L69.8562 151.221C69.0211 150.403 68.7033 150.273 68.9027 150.83C68.9429 151.181 69.0312 151.525 69.1649 151.85C69.515 153.24 69.8402 154.638 70.1884 156.03C70.8367 158.621 74.6976 157.523 74.0473 154.924C73.7231 153.629 73.42 152.33 73.0968 151.035C72.6856 149.385 72.2964 147.659 70.4765 147.176C69.3021 147.042 68.1142 147.217 67.0218 147.685C65.7742 148.046 64.5345 148.434 63.2959 148.83C57.8492 150.565 52.3615 152.33 47.0378 154.451C44.7877 155.346 44.3465 157.107 44.9758 159.366C45.5081 161.278 46.0343 163.195 46.4766 165.135C47.0659 167.737 50.9258 166.638 50.3355 164.027L50.3295 164.023Z" fill="#211715"/>
<path d="M250.407 161.235C250.672 159.532 251.007 157.839 251.349 156.15C251.692 154.46 252.216 152.741 250.849 151.37C249.959 150.478 248.456 150.258 247.295 149.926C246.037 149.568 244.776 149.218 243.513 148.878C238.218 147.445 232.879 145.926 227.484 144.956C225.455 144.592 223.749 145.226 223.215 147.469C222.815 149.134 222.65 150.862 222.265 152.535C221.665 155.137 225.523 156.251 226.124 153.642C226.55 151.791 226.588 149.687 227.262 147.917L226.748 148.837C225.989 148.845 225.8 148.875 226.183 148.926L226.5 148.982C226.675 149.025 226.855 149.05 227.031 149.086C227.485 149.176 227.937 149.272 228.388 149.371C229.567 149.628 230.742 149.903 231.916 150.187C234.619 150.838 237.315 151.522 240.005 152.238C242.389 152.863 244.771 153.511 247.14 154.202C247.374 154.271 247.616 154.368 247.855 154.41L248.138 154.495C248.648 154.703 248.539 154.369 247.812 153.494C247.595 153.627 247.512 154.944 247.461 155.205C247.129 156.839 246.807 158.476 246.551 160.125C246.426 160.657 246.502 161.219 246.762 161.695C247.023 162.171 247.448 162.525 247.952 162.685C248.464 162.828 249.009 162.755 249.47 162.482C249.93 162.209 250.269 161.759 250.413 161.228L250.407 161.235Z" fill="#211715"/>
<path d="M14.3205 17.4914C14.279 17.4823 14.2417 17.4586 14.215 17.4243C14.1883 17.39 14.1737 17.3471 14.1737 17.303C14.1737 17.2588 14.1883 17.216 14.215 17.1817C14.2417 17.1474 14.279 17.1237 14.3205 17.1146C16.1399 16.6124 17.9015 15.906 19.5741 15.0079C22.1934 13.6245 24.2966 11.375 25.5531 8.61271C26.4117 6.70628 26.9976 4.67938 27.292 2.59644C27.2985 2.5505 27.3207 2.50853 27.3545 2.47819C27.3883 2.44785 27.4314 2.43115 27.4761 2.43115C27.5207 2.43115 27.5639 2.44785 27.5976 2.47819C27.6314 2.50853 27.6536 2.5505 27.6602 2.59644C27.955 4.67927 28.5408 6.7061 29.399 8.61271C30.6543 11.3741 32.7556 13.6236 35.373 15.0079C37.0457 15.9058 38.8073 16.6122 40.6266 17.1146C40.6681 17.1237 40.7054 17.1474 40.7321 17.1817C40.7588 17.216 40.7734 17.2588 40.7734 17.303C40.7734 17.3471 40.7588 17.39 40.7321 17.4243C40.7054 17.4586 40.6681 17.4823 40.6266 17.4914C38.8073 17.9937 37.0457 18.7001 35.373 19.5981C32.7556 20.9824 30.6543 23.2318 29.399 25.9933C28.5387 27.8999 27.9508 29.9271 27.6542 32.0106C27.6476 32.0565 27.6254 32.0985 27.5916 32.1288C27.5579 32.1592 27.5147 32.1759 27.4701 32.1759C27.4254 32.1759 27.3823 32.1592 27.3485 32.1288C27.3147 32.0985 27.2925 32.0565 27.286 32.0106C26.9936 29.9276 26.4098 27.9004 25.5531 25.9933C24.2978 23.2318 22.1965 20.9824 19.5791 19.5981C17.9049 18.6996 16.1416 17.9932 14.3205 17.4914Z" fill="#FFDA71"/>
<path d="M271.007 98.0886C270.95 98.0765 270.898 98.044 270.86 97.9965C270.823 97.9491 270.802 97.8897 270.802 97.8284C270.802 97.767 270.823 97.7076 270.86 97.6602C270.898 97.6127 270.95 97.5802 271.007 97.5681C273.514 96.8758 275.941 95.9025 278.245 94.6651C281.85 92.7588 284.744 89.6606 286.473 85.8572C287.656 83.2311 288.463 80.439 288.868 77.5698C288.877 77.5062 288.907 77.4479 288.954 77.4058C289 77.3637 289.06 77.3405 289.122 77.3405C289.184 77.3405 289.243 77.3637 289.29 77.4058C289.336 77.4479 289.367 77.5062 289.375 77.5698C289.781 80.4389 290.588 83.2309 291.771 85.8572C293.5 89.6604 296.394 92.7585 299.999 94.6651C302.303 95.9023 304.73 96.8756 307.236 97.5681C307.294 97.5802 307.346 97.6127 307.383 97.6602C307.421 97.7076 307.441 97.767 307.441 97.8284C307.441 97.8897 307.421 97.9491 307.383 97.9965C307.346 98.044 307.294 98.0765 307.236 98.0886C304.73 98.7807 302.303 99.7537 299.999 100.991C296.394 102.898 293.5 105.996 291.771 109.799C290.588 112.425 289.782 115.217 289.375 118.086C289.367 118.15 289.336 118.208 289.29 118.25C289.243 118.292 289.184 118.315 289.122 118.315C289.06 118.315 289 118.292 288.954 118.25C288.907 118.208 288.877 118.15 288.868 118.086C288.463 115.217 287.656 112.425 286.473 109.799C284.744 105.996 281.85 102.898 278.245 100.991C275.94 99.7535 273.514 98.7805 271.007 98.0886Z" fill="#FFDA71"/>
<path d="M15.7352 16.0185L15.5891 15.8312V18.7748L15.7352 18.5874L14.8528 19.1224C18.3605 18.1596 21.9933 16.5202 24.5316 13.7494C25.7402 12.4305 26.7296 10.9116 27.459 9.25493C27.8948 8.27743 28.2626 7.26865 28.5596 6.23638C28.6817 5.80546 28.7897 5.37037 28.8878 4.93217C28.9222 4.44882 29.0006 3.96996 29.1219 3.502L27.39 4.53143H27.5541L25.8262 3.49992C25.9479 3.96778 26.0263 4.44668 26.0604 4.93008C26.1604 5.36829 26.2665 5.80338 26.3885 6.2343C26.6866 7.2662 27.0543 8.27489 27.4891 9.25284C28.2173 10.9103 29.2068 12.4294 30.4165 13.7474C33.1165 16.4164 36.4619 18.2734 40.0963 19.1204L39.2129 18.5853L39.359 18.7727V15.8312L39.2129 16.0185L40.0963 15.4835C36.5886 16.4463 32.9558 18.0857 30.4165 20.8565C29.2062 22.1746 28.2149 23.6928 27.4831 25.349C27.0477 26.3267 26.6799 27.3354 26.3825 28.3675C26.2618 28.7984 26.1524 29.2332 26.0543 29.6717C26.0198 30.1551 25.9414 30.6339 25.8202 31.1019L27.5541 30.0745H27.392L29.1199 31.1061C28.9987 30.6381 28.9203 30.1592 28.8858 29.6759C28.7877 29.238 28.6773 28.8019 28.5546 28.3675C28.2566 27.3356 27.8888 26.3269 27.454 25.349C26.7264 23.6912 25.7369 22.172 24.5266 20.8545C21.8269 18.1856 18.4818 16.3287 14.8478 15.4815C12.3545 14.7976 11.291 18.8123 13.7832 19.4961C17.1109 20.409 20.5156 21.9484 22.6056 24.9087C23.6671 26.4824 24.4333 28.2507 24.8638 30.1203C25.301 31.8576 25.5171 34.8907 28.0794 34.1569C29.9683 33.6156 29.8803 30.6293 30.3665 29.042C30.8886 27.2146 31.7788 25.5239 32.9778 24.0822C34.0532 22.8655 35.3485 21.8811 36.7897 21.1855C37.6819 20.7291 38.6008 20.3318 39.5411 19.9957C40.4415 19.6835 41.5541 19.5794 42.1834 18.7748C42.5398 18.3744 42.7378 17.8487 42.7378 17.303C42.7378 16.7572 42.5398 16.2316 42.1834 15.8312C41.5541 15.0224 40.4425 14.9267 39.5411 14.6102C38.6008 14.2744 37.6818 13.877 36.7897 13.4205C35.232 12.6673 33.8479 11.5751 32.7307 10.2177C31.5766 8.71561 30.7308 6.98333 30.2454 5.12785C29.7602 3.41665 29.8552 0.36792 27.4711 0.36792C25.0869 0.36792 25.1829 3.4052 24.6967 5.12785C24.2125 6.98383 23.3666 8.71637 22.2114 10.2177C21.0944 11.5766 19.7089 12.669 18.1494 13.4205C17.2569 13.8761 16.338 14.2735 15.398 14.6102C14.4976 14.9225 13.387 15.0193 12.7567 15.8312C12.4003 16.2316 12.2023 16.7572 12.2023 17.303C12.2023 17.8487 12.4003 18.3744 12.7567 18.7748L12.9028 18.9632C13.2797 19.3502 13.788 19.5672 14.3175 19.5672C14.8471 19.5672 15.3553 19.3502 15.7322 18.9632C16.0969 18.5671 16.3008 18.04 16.3013 17.4915C16.3019 16.943 16.0991 16.4154 15.7352 16.0185Z" fill="#211715"/>
<path d="M257.646 36.5904L257.546 36.4551V39.3987L257.646 39.2645L256.763 39.7995C259.476 39.1626 261.972 37.7698 263.982 35.7702C265.875 33.5716 267.095 30.8348 267.484 27.9106L266.968 28.8286L267.101 28.71H264.272L264.405 28.8286L263.89 27.9106C264.279 30.8347 265.498 33.5715 267.391 35.7702C269.402 37.7696 271.897 39.1624 274.61 39.7995L273.728 39.2645L273.833 39.3987V36.452L273.728 36.5873L274.61 36.0513C271.897 36.6888 269.402 38.0816 267.391 40.0805C265.498 42.2796 264.279 45.0167 263.89 47.9412L264.405 47.0221L264.272 47.1408H267.102L266.969 47.0221L267.485 47.9412C267.096 45.0167 265.876 42.2795 263.983 40.0805C261.972 38.0813 259.477 36.6886 256.764 36.0513C254.272 35.3632 253.209 39.3821 255.7 40.067C257.904 40.5359 259.917 41.6944 261.471 43.3874C262.109 44.1984 262.602 45.1226 262.926 46.1155C263.326 47.3104 263.318 49.2329 264.269 50.0854C264.652 50.4604 265.158 50.6692 265.684 50.6692C266.21 50.6692 266.716 50.4604 267.099 50.0854C268.048 49.235 268.038 47.3146 268.442 46.1155C268.818 44.9667 269.422 43.9132 270.216 43.0241C270.983 42.2144 271.892 41.564 272.893 41.1078C273.461 40.8277 274.044 40.5844 274.64 40.3792C275.391 40.2656 276.092 39.9237 276.656 39.3966C277.013 38.9963 277.211 38.4707 277.211 37.9248C277.211 37.379 277.013 36.8533 276.656 36.453C276.091 35.9276 275.39 35.586 274.64 35.4705C274.105 35.2869 273.58 35.0721 273.067 34.8272C272 34.3596 271.032 33.6793 270.216 32.8245C269.463 31.9822 268.881 30.9911 268.504 29.9101C268.276 29.2618 268.091 28.5979 267.951 27.9231C267.917 27.1224 267.616 26.3591 267.099 25.7643C266.716 25.389 266.21 25.1801 265.684 25.1801C265.158 25.1801 264.652 25.389 264.269 25.7643C263.32 26.6147 263.33 28.5341 262.926 29.7331C262.551 30.8821 261.946 31.9355 261.152 32.8245C260.385 33.6346 259.476 34.2853 258.475 34.7418C257.908 35.0215 257.324 35.2649 256.728 35.4705C255.978 35.5846 255.277 35.9264 254.712 36.453C254.356 36.8535 254.158 37.3791 254.158 37.9248C254.158 38.4706 254.356 38.9962 254.712 39.3966L254.812 39.532C255.189 39.9192 255.697 40.1363 256.227 40.1363C256.757 40.1363 257.265 39.9192 257.642 39.532C258.006 39.1363 258.209 38.6098 258.21 38.062C258.211 37.5142 258.009 36.9872 257.646 36.5904Z" fill="#211715"/>
<path d="M272.423 96.6158L272.244 96.4659L272.83 97.9387V97.7201L272.244 99.1919L272.423 99.0421L271.54 99.5781C276.294 98.2864 281.206 96.0579 284.625 92.2826C286.269 90.4628 287.603 88.3644 288.568 86.0779C289.084 84.8742 289.524 83.6371 289.887 82.3745C290.073 81.7174 290.238 81.0547 290.381 80.3864C290.422 79.733 290.524 79.0853 290.685 78.4525L289.49 79.409L289.651 79.3518H288.587L288.748 79.409L287.553 78.4525C287.694 79.0121 287.781 79.585 287.813 80.1626C287.953 80.8319 288.113 81.497 288.293 82.1559C288.646 83.4214 289.078 84.6616 289.587 85.8687C290.561 88.2338 291.925 90.4042 293.616 92.2826C297.034 96.0579 301.947 98.2864 306.701 99.5781L305.819 99.0421L305.997 99.1919L305.411 97.7201V97.9387L305.997 96.4659L305.819 96.6158L306.701 96.0808C301.947 97.3725 297.034 99.6 293.616 103.375C291.972 105.196 290.639 107.294 289.673 109.58C289.157 110.784 288.717 112.021 288.354 113.284C288.169 113.942 288.004 114.604 287.86 115.271C287.818 115.925 287.715 116.573 287.553 117.206L288.748 116.25L288.587 116.306H289.651L289.49 116.25L290.685 117.206C290.544 116.646 290.457 116.073 290.425 115.495C290.285 114.826 290.125 114.161 289.946 113.503C289.592 112.238 289.159 110.997 288.651 109.79C287.676 107.425 286.313 105.254 284.622 103.375C281.204 99.6 276.291 97.3725 271.537 96.0808C269.042 95.4031 267.979 99.4178 270.473 100.095C274.384 101.158 278.477 102.874 281.389 105.887C284.166 108.985 285.999 112.87 286.657 117.051C286.857 118.069 286.873 119.213 287.746 119.892C288.177 120.231 288.709 120.401 289.249 120.371C289.789 120.341 290.301 120.114 290.695 119.729C291.422 118.974 291.424 117.811 291.625 116.826C291.864 115.636 292.17 114.461 292.542 113.307C293.699 109.467 296.055 106.138 299.236 103.849C301.046 102.661 302.983 101.697 305.007 100.977C306.747 100.326 310.078 99.9549 309.341 97.1664C309.001 95.8778 307.771 95.5874 306.7 95.2585C305.623 94.9287 304.565 94.5381 303.529 94.0885C301.656 93.3411 299.887 92.3353 298.272 91.0981C295.21 88.4507 293.045 84.8507 292.096 80.8277C291.61 79.0083 291.733 75.5848 289.387 75.2976C286.755 74.9759 286.767 78.3296 286.318 80.1668C285.217 84.6426 283.051 88.9154 279.314 91.5904C277.359 92.9282 275.243 93.9934 273.021 94.7588C271.946 95.1512 270.454 95.2949 269.592 96.0964C269.352 96.3108 269.16 96.5764 269.028 96.8751C268.897 97.1739 268.828 97.4987 268.828 97.8273C268.828 98.156 268.897 98.4808 269.028 98.7796C269.16 99.0783 269.352 99.3439 269.592 99.5583C269.974 99.9338 270.481 100.143 271.007 100.143C271.533 100.143 272.039 99.9338 272.422 99.5583C272.793 99.166 273.001 98.6377 273.001 98.0873C273.002 97.5368 272.794 97.0084 272.423 96.6158Z" fill="#211715"/>
<path d="M4.03033 131.047L3.93028 130.912V133.855L4.03033 133.72L3.14689 134.256C5.85982 133.619 8.3551 132.226 10.3655 130.227C12.2597 128.028 13.4791 125.291 13.8672 122.366L13.353 123.285L13.485 123.166H10.6526L10.7847 123.285L10.2704 122.366C10.6584 125.291 11.8778 128.028 13.7722 130.227C15.7827 132.226 18.2779 133.619 20.9908 134.256L20.1073 133.72L20.2124 133.855V130.912L20.1073 131.047L20.9908 130.511C18.2778 131.148 15.7826 132.541 13.7722 134.54C11.8781 136.739 10.6586 139.476 10.2704 142.401L10.7847 141.482L10.6526 141.6H13.482L13.35 141.482L13.8642 142.401C13.4762 139.476 12.2568 136.739 10.3625 134.54C8.35222 132.54 5.85689 131.148 3.14389 130.511C0.652646 129.822 -0.410883 133.842 2.08036 134.525C4.2839 134.995 6.29696 136.154 7.85023 137.847C8.4905 138.657 8.9847 139.581 9.30895 140.574C9.70915 141.768 9.70115 143.69 10.6526 144.544C11.0355 144.919 11.5415 145.128 12.0673 145.128C12.5932 145.128 13.0991 144.919 13.482 144.544C14.4305 143.692 14.4205 141.773 14.8257 140.574C15.2012 139.425 15.8053 138.372 16.5986 137.483C17.3663 136.673 18.2753 136.022 19.2769 135.566C19.8442 135.286 20.4276 135.043 21.0238 134.838C21.7739 134.723 22.4751 134.381 23.0398 133.855C23.3962 133.455 23.5942 132.929 23.5942 132.383C23.5942 131.838 23.3962 131.312 23.0398 130.912C22.4745 130.386 21.7737 130.044 21.0238 129.929C20.4878 129.746 19.9623 129.531 19.45 129.285C18.3835 128.817 17.415 128.137 16.5986 127.283C15.8463 126.441 15.2644 125.45 14.8877 124.369C14.659 123.721 14.4741 123.057 14.3345 122.383C14.3003 121.581 13.9989 120.818 13.482 120.223C13.0991 119.848 12.5932 119.639 12.0673 119.639C11.5415 119.639 11.0355 119.848 10.6526 120.223C9.70415 121.073 9.71416 122.994 9.30895 124.193C8.9332 125.341 8.32913 126.395 7.53607 127.284C6.76824 128.094 5.85929 128.744 4.85774 129.2C4.29045 129.48 3.70705 129.724 3.11087 129.929C2.36059 130.043 1.65932 130.385 1.09487 130.912C0.738425 131.312 0.540405 131.838 0.540405 132.383C0.540405 132.929 0.738425 133.455 1.09487 133.855L1.19492 133.99C1.57199 134.378 2.0804 134.595 2.61012 134.595C3.13984 134.595 3.64825 134.378 4.02532 133.99C4.39001 133.595 4.59404 133.068 4.59497 132.52C4.5959 131.971 4.39367 131.444 4.03033 131.047Z" fill="#211715"/>
<path d="M149.863 223.583C150.181 224.778 150.435 225.99 150.624 227.215L150.553 226.662C150.576 226.828 150.58 226.996 150.565 227.163L150.637 226.609C150.626 226.686 150.608 226.761 150.584 226.835L150.784 226.337C150.764 226.388 150.738 226.436 150.708 226.482L151.022 226.065C150.988 226.108 150.949 226.147 150.907 226.182L151.308 225.856C151.219 225.914 151.127 225.964 151.032 226.008L151.51 225.8C151.36 225.866 151.204 225.913 151.044 225.941L151.576 225.867C151.431 225.884 151.284 225.884 151.139 225.867L151.67 225.941C151.505 225.917 151.344 225.875 151.179 225.852C150.92 225.765 150.643 225.752 150.378 225.815C150.114 225.827 149.857 225.912 149.635 226.061C149.408 226.199 149.209 226.382 149.05 226.6C148.891 226.818 148.775 227.066 148.708 227.331C148.641 227.595 148.626 227.871 148.661 228.142C148.697 228.413 148.784 228.674 148.916 228.91C149.043 229.145 149.215 229.351 149.42 229.516C149.626 229.68 149.861 229.799 150.112 229.867C150.506 229.922 150.889 230.026 151.29 230.045C151.902 230.048 152.505 229.897 153.05 229.605C153.398 229.439 153.705 229.193 153.951 228.887C154.197 228.581 154.374 228.222 154.469 227.836C154.595 227.216 154.589 226.574 154.452 225.956C154.263 224.786 154.004 223.628 153.715 222.48C153.645 222.216 153.526 221.969 153.364 221.754C153.203 221.538 153.002 221.357 152.774 221.222C152.545 221.087 152.293 221 152.032 220.967C151.772 220.933 151.507 220.953 151.254 221.026C151 221.098 150.763 221.222 150.556 221.39C150.348 221.558 150.175 221.767 150.045 222.005C149.915 222.242 149.832 222.504 149.799 222.776C149.767 223.047 149.786 223.322 149.856 223.586L149.863 223.583Z" fill="#211715"/>
<path d="M131.826 213.331C131.256 215.257 131.626 219.689 135.133 220.068C139.769 220.041 140.018 214.683 138.458 212.163C137.182 210.105 133.425 209.24 131.826 213.331Z" fill="#211715"/>
<path d="M168.801 213.35C169.371 215.277 169.002 219.708 165.489 220.082C160.852 220.051 160.608 214.694 162.17 212.172C163.449 210.113 167.207 209.257 168.801 213.35Z" fill="#211715"/>
<path d="M146.758 239.978C147.713 239.789 148.667 239.602 149.627 239.444C150.445 239.302 151.269 239.203 152.097 239.148C153.019 239.078 153.944 239.075 154.865 239.139C155.086 239.155 155.306 239.176 155.526 239.201C155.226 239.167 155.813 239.247 155.869 239.257C156.087 239.297 156.305 239.341 156.521 239.393C156.646 239.42 156.769 239.452 156.891 239.488C156.666 239.369 156.643 239.374 156.824 239.502L156.106 238.755C156.008 238.571 155.972 238.358 156.006 238.15C156.025 238.009 156.015 238.052 155.977 238.276C155.93 238.474 155.885 238.669 155.827 238.864C155.814 238.908 155.65 239.394 155.727 239.187C155.804 238.98 155.608 239.451 155.587 239.494C155.41 239.858 155.209 240.209 154.987 240.545C154.961 240.584 154.666 240.986 154.786 240.827C154.873 240.716 154.552 241.105 154.5 241.164C153.527 242.257 152.424 243.218 151.218 244.022C150.768 244.309 150.443 244.765 150.309 245.296C150.175 245.827 150.244 246.391 150.5 246.87C150.773 247.342 151.211 247.684 151.723 247.824C152.234 247.963 152.778 247.889 153.238 247.617C155.065 246.392 156.701 244.883 158.087 243.141C158.75 242.241 159.27 241.236 159.626 240.164C160.054 238.875 160.27 237.293 159.251 236.233C158.368 235.314 156.916 235.215 155.749 235.066C154.649 234.929 153.54 234.894 152.434 234.962C150.17 235.139 147.92 235.472 145.699 235.961C145.188 236.109 144.754 236.462 144.492 236.941C144.23 237.421 144.16 237.989 144.298 238.522C144.45 239.047 144.791 239.491 145.249 239.762C145.707 240.033 146.248 240.111 146.759 239.979L146.758 239.978Z" fill="#211715"/>
</svg>
