<svg width="276" height="247" viewBox="0 0 276 247" fill="none" xmlns="http://www.w3.org/2000/svg">
<path d="M275.371 42.8311V63.7649H0.486328V42.8311C0.486328 29.6186 11.188 18.907 24.3894 18.907H251.468C264.669 18.907 275.371 29.6186 275.371 42.8311Z" fill="#A5A5A5"/>
<path d="M214.12 36.551V37.1491C214.12 39.6263 212.113 41.6349 209.638 41.6349C207.163 41.6349 205.156 39.6263 205.156 37.1491V36.551C205.156 34.0738 207.163 32.0652 209.638 32.0652C212.113 32.0652 214.12 34.0738 214.12 36.551ZM227.566 32.0652C225.091 32.0652 223.084 34.0738 223.084 36.551V37.1491C223.084 39.6263 225.091 41.6349 227.566 41.6349C230.041 41.6349 232.048 39.6263 232.048 37.1491V36.551C232.047 34.0738 230.041 32.0652 227.566 32.0652ZM245.493 32.0652C243.018 32.0652 241.011 34.0738 241.011 36.551V37.1491C241.011 39.6263 243.018 41.6349 245.493 41.6349C247.968 41.6349 249.975 39.6263 249.975 37.1491V36.551C249.975 34.0738 247.968 32.0652 245.493 32.0652Z" fill="#777777"/>
<path d="M275.371 54.7932V222.261C275.371 235.474 264.669 246.185 251.467 246.185H24.3894C11.188 246.185 0.486328 235.474 0.486328 222.261V54.7932H36.341V12.9262C36.341 6.3194 41.6916 0.964111 48.2926 0.964111H96.0983C102.699 0.964111 108.05 6.3194 108.05 12.9262V54.7932H275.371Z" fill="#F2EFE2"/>
<path d="M245.492 171.422C245.492 178.029 240.141 183.384 233.54 183.384H42.3163C35.7153 183.384 30.3647 178.029 30.3647 171.422C30.3647 164.816 35.7153 159.46 42.3163 159.46H233.54C240.141 159.461 245.492 164.816 245.492 171.422ZM149.88 199.619H42.3163C35.7153 199.619 30.3647 204.975 30.3647 211.581C30.3647 218.188 35.7153 223.543 42.3163 223.543H149.88C156.481 223.543 161.831 218.188 161.831 211.581C161.831 204.974 156.481 199.619 149.88 199.619Z" fill="#B5C4C6"/>
<path d="M275.371 54.7932V138.527H0.486328V54.7932H36.341V12.9262C36.341 6.3194 41.6916 0.964111 48.2926 0.964111H96.0983C102.699 0.964111 108.05 6.3194 108.05 12.9262V54.7932H275.371Z" fill="#DBD8D2"/>
<path d="M96.0987 21.8979V33.86C96.0987 37.1631 93.4234 39.8407 90.1232 39.8407H54.2685C50.9683 39.8407 48.293 37.1631 48.293 33.86V21.8979C48.293 18.5948 50.9683 15.9171 54.2685 15.9171H90.1232C93.4234 15.9166 96.0987 18.5942 96.0987 21.8979Z" fill="#CCCAC4"/>
<path d="M233.54 114.603H42.3163C35.7153 114.603 30.3647 109.248 30.3647 102.641V90.6789C30.3647 84.0721 35.7153 78.7168 42.3163 78.7168H233.54C240.141 78.7168 245.492 84.0721 245.492 90.6789V102.641C245.492 109.248 240.141 114.603 233.54 114.603Z" fill="white"/>
<path d="M106.556 96.6602C106.556 99.1374 104.549 101.146 102.074 101.146H48.292C45.8169 101.146 43.8101 99.1374 43.8101 96.6602C43.8101 94.1829 45.8169 92.1743 48.292 92.1743H102.074C104.549 92.1743 106.556 94.1829 106.556 96.6602Z" fill="#256277"/>
<path d="M150.395 98.5608L225.028 127.791C231.96 130.505 232.757 140.005 226.373 143.838L199.762 159.819L183.794 186.454C179.964 192.844 170.473 192.046 167.761 185.108L138.557 110.41C137.234 107.027 138.039 103.18 140.605 100.611C143.172 98.0417 147.015 97.2373 150.395 98.5608Z" fill="#FC8059"/>
<path d="M226.373 143.839L199.762 159.82L140.604 100.611C143.172 98.0417 147.014 97.2373 150.395 98.5619L225.027 127.792C231.96 130.506 232.757 140.006 226.373 143.839Z" fill="#AD3C1E"/>
</svg>
